<svg width="1280" height="175" viewBox="0 0 1280 175" fill="none" xmlns="http://www.w3.org/2000/svg">
<rect y="0.805176" width="1283.24" height="239.716" fill="white"/>
<mask id="mask0" mask-type="alpha" maskUnits="userSpaceOnUse" x="0" y="0" width="1284" height="241">
<rect y="0.805176" width="1283.24" height="239.716" fill="white"/>
</mask>
<g mask="url(#mask0)">
<rect y="-620.319" width="1283.24" height="1279.68" fill="white"/>
<path opacity="0.5" fill-rule="evenodd" clip-rule="evenodd" d="M1020.22 624.63L1106.11 641.433L1102.8 661.037H1118.34L1155.81 447.435L1164.47 661.037H1179.77L1176.96 588.987L1216.21 587.969L1220.29 661.037H1227.93L1223.86 587.715L1282.73 586.187V570.912L1234.31 572.184L1230.74 546.471L1282.99 547.998V540.361L1229.72 538.833L1222.58 488.679L1254.19 454.054L1283.24 472.385V463.22L1259.54 448.199L1283.24 421.976V410.519L1221.05 479.004C1217.74 459.91 1209.58 411.792 1206.02 391.425L1283.24 404.664V389.134L1244.76 382.514L1253.93 325.231C1264.13 327.268 1274.07 329.305 1283.24 331.342V315.557L1261.32 310.974L1283.24 282.969V258.019L1244.5 307.41L1194.29 296.972L1215.7 147.018L1283.24 159.238V133.27L1276.1 131.997L1283.24 83.6247V-22.0305L1275.34 31.4336L1203.47 14.1215C1207.04 -4.71826 1216.72 -54.8727 1220.29 -73.967L1283.24 -62.2558V-77.7858L1242.72 -85.4235L1274.58 -259.055L1283.24 -257.527V-283.495L1262.34 -287.314L1267.95 -326.521L1283.24 -329.831V-337.723L1268.97 -334.668L1281.46 -421.229L1283.24 -420.974V-614.209L1278.65 -582.13L1230.48 -579.075L1228.19 -620.319H1220.54L1222.84 -578.566L1182.06 -576.02L1180.28 -620.319H1164.98L1166.77 -575.002L1110.19 -571.437L1118.85 -620.064H1103.31L1094.9 -572.71L1009.52 -595.369L1014.1 -620.064H988.108L979.442 -572.965L920.824 -563.036L913.688 -620.064H898.141L905.532 -560.49L848.188 -550.816L823.466 -600.97C837.993 -605.298 862.715 -612.427 889.221 -620.064H834.17L816.584 -614.972L814.036 -620.064H785.491L791.608 -607.844C782.687 -605.298 770.709 -601.988 758.73 -598.679C756.946 -603.77 754.143 -611.408 751.339 -620.064H743.183L751.339 -596.642C737.067 -592.568 724.324 -589.004 719.226 -587.731L682.271 -599.188L684.565 -620.064H676.919L674.88 -601.734L627.475 -616.5L628.75 -620.319H612.438L606.322 -603.516L565.798 -620.319H551.526L539.037 -587.986L480.928 -608.098C483.222 -612.172 485.516 -616.245 487.81 -620.319H469.969C461.304 -605.553 451.874 -591.295 441.934 -578.566L435.053 -620.319H419.506L421.545 -608.608L382.806 -585.694L362.417 -620.319H353.496L401.411 -539.104C400.391 -538.341 399.117 -537.577 398.098 -536.813C382.806 -526.884 362.926 -519.501 339.989 -513.9L347.635 -620.319H339.989L332.088 -512.118C323.677 -510.336 315.012 -508.808 306.092 -507.281L297.681 -620.064H282.134L284.938 -581.876L192.422 -593.078L191.658 -620.064H176.366L176.876 -594.86L155.467 -597.406L132.529 -619.81H121.57L142.979 -598.933L64.9903 -608.353L66.5195 -619.81H58.8736L57.5993 -609.117L26.7607 -612.936L27.7802 -619.81H1.78405L0.764589 -613.445V-420.21L67.2841 -407.99L78.753 -352.999L0.764589 -336.705V-328.812L24.2121 -333.65L31.6031 -276.876L0.764589 -282.731V-256.763L34.6615 -250.398L8.92024 -75.4946L0.764589 -77.022V-61.492L6.62646 -60.4737L0.764589 -21.2667V84.3885L21.6634 -57.6732L94.2997 -44.1798L75.1849 147.272L1.01945 134.034V160.002L69.0682 172.222L1.01945 259.038V283.988L68.5584 197.936L49.9533 326.759L0.764589 316.575V332.36C20.644 336.433 37.2101 339.998 47.6596 342.034L39.7588 396.771L0.764589 390.152V405.682L5.35214 406.446L0.764589 411.538V422.994L14.2724 407.973L37.465 412.047L27.5253 481.55L0.509725 464.493V473.658L26.251 489.952L18.8599 542.143L0.764589 541.634V549.271L17.8405 549.781L14.7821 571.675L0.764589 572.184V587.46L12.4883 587.205L1.78405 662.564H27.7802L38.4845 588.478L67.7938 592.297L59.1285 662.31H66.7744L72.8911 614.192L121.825 662.31H132.784L73.9106 604.772L75.4398 593.316L175.092 606.554L176.366 662.31H191.658L190.383 608.591L279.076 620.302L282.134 662.31H297.681L296.152 640.669L342.028 632.777L339.989 662.31H347.635L348.399 653.399L353.751 662.31H362.672L349.419 639.906L349.928 631.504L412.88 620.811L419.761 662.31H435.308L413.644 532.214L523.236 540.615C511.257 577.276 493.672 622.339 470.479 662.31H488.32C497.749 645.252 506.16 627.685 513.806 610.373L564.779 629.722L552.035 662.31H566.308L561.211 660.273L586.697 594.843L633.592 605.79L612.948 662.31H629.259L668.254 555.127L689.407 552.326L677.174 662.31H684.82L689.662 618.266L724.578 608.846L743.438 662.31H751.594C744.458 641.942 735.538 616.483 731.969 606.809L755.417 600.444L785.746 662.31H814.291L801.293 635.578L903.493 604.008L897.886 643.979L834.68 662.31H889.73C892.534 661.546 895.337 660.782 898.396 659.764L898.651 662.31H914.197L913.433 655.436C944.781 646.27 975.874 637.36 994.479 632.013L988.872 662.31H1014.87L1020.22 624.63ZM1006.46 558.182L925.921 547.235L934.077 490.461L1016.4 504.463L1006.46 558.182ZM834.425 457.873L840.032 426.813L925.411 442.852L921.079 472.639L834.425 457.873ZM919.04 487.915L915.472 512.101L858.892 503.954L864.499 478.75L919.04 487.915ZM633.337 457.364L595.362 456.346L601.224 423.758L633.337 439.288C632.827 442.343 632.573 445.144 632.573 448.199C632.573 451.254 632.827 454.309 633.337 457.364ZM645.061 483.332C647.1 485.878 649.394 488.17 651.687 490.206L622.888 528.395L595.617 482.059L645.061 483.332ZM643.277 415.357L570.131 380.223L649.648 351.2L661.627 399.063C654.236 403.136 648.119 408.737 643.277 415.357ZM136.352 334.142L145.782 313.011L262.51 285.261L245.689 343.562L136.352 334.142ZM242.121 358.583L234.22 398.553L205.675 391.425L207.714 355.782L242.121 358.583ZM79.2627 -489.459C105.259 -487.422 135.333 -485.895 166.936 -485.386L166.681 -477.748L75.4397 -449.488L79.2627 -489.459ZM47.9144 -507.79L56.5798 -556.417L140.43 -545.978C139.666 -537.068 137.372 -513.9 136.097 -501.934C102.455 -503.207 71.8717 -505.498 47.9144 -507.79ZM246.454 -405.19L256.393 -316.592C233.455 -314.046 164.897 -306.154 140.43 -303.099L151.134 -396.024L246.454 -405.19ZM166.426 -469.601L164.132 -412.573L144.763 -410.791L126.922 -414.1L121.825 -455.853L166.426 -469.601ZM257.413 -308.954L260.981 -276.876L135.843 -261.6L139.665 -295.206L257.413 -308.954ZM784.981 -315.064L770.709 -264.91L712.09 -242.251C703.425 -266.183 696.798 -289.605 692.975 -303.608L784.981 -315.064ZM704.699 -363.691L749.555 -369.038L754.652 -337.214L708.522 -331.613L704.699 -363.691ZM927.705 -37.3059L873.419 -50.0355L900.435 -134.56L947.075 -125.904C943.762 -110.373 935.351 -72.4395 927.705 -37.3059ZM954.721 -124.631L1012.07 -113.938L937.135 -44.1799L954.721 -124.631ZM442.954 -107.064L531.646 -115.465L541.331 -77.0221L435.053 -73.967L442.954 -107.064ZM442.954 -173.766L524 -145.507L527.823 -130.486L449.58 -123.103L442.954 -173.766ZM846.658 -50.0353L832.131 -4.7182L768.925 -29.6681L785.746 -71.9302L846.658 -50.0353ZM788.549 -79.3134L803.077 -115.974C824.74 -103.5 845.894 -92.5521 858.127 -86.442L848.952 -57.4186L788.549 -79.3134ZM747.261 -16.9388L717.442 -42.1432L753.123 -92.8068L771.983 -79.3135L747.261 -16.9388ZM744.203 -9.55548L742.674 -5.99121L667.999 0.373535L630.534 -49.5262L667.744 -74.4761L744.203 -9.55548ZM660.353 3.42871L597.146 39.8352L582.619 -17.1931L623.907 -44.9435C631.043 -35.7783 652.962 -6.75494 660.353 3.42871ZM625.691 -55.3818C622.378 -59.4553 616.516 -67.093 612.183 -72.4394L643.277 -94.8434L661.627 -79.3134L625.691 -55.3818ZM619.32 -51.0538L580.835 -25.3401L575.483 -46.2166L605.812 -68.1115L619.32 -51.0538ZM577.777 67.0764L509.983 46.9637L560.956 0.373535L577.777 67.0764ZM501.318 44.4178L413.644 18.4495L433.269 -66.0745L543.115 -69.3842L558.662 -8.28247L501.318 44.4178ZM406.253 -119.03L394.275 -220.611L428.681 -225.703L442.189 -122.339L406.253 -119.03ZM405.489 -103.5L435.053 -106.3L420.781 -45.4528L391.471 -54.8726L405.489 -103.5ZM418.996 -37.8151L406.253 16.1583L373.886 6.48383L389.177 -47.4895L418.996 -37.8151ZM410.586 33.4703L368.788 146.763L337.695 133.779L369.808 21.2499L410.586 33.4703ZM417.977 35.7617L457.991 47.7274L440.66 99.1548C429.191 95.5905 408.037 88.9711 399.372 86.4252L417.977 35.7617ZM452.893 111.121C460.794 113.921 474.302 118.504 490.358 124.105L464.872 181.897L430.465 177.823L452.893 111.121ZM455.442 103.737L472.773 51.8008L532.156 69.3676L517.884 125.378L455.442 103.737ZM539.547 71.6589L582.109 84.3884L599.695 154.146L525.02 127.923L539.547 71.6589ZM599.44 47.4729L632.318 28.6332L648.374 85.9161L606.322 75.2233L599.44 47.4729ZM638.944 24.5597L667.234 8.26587L739.361 2.1557L700.621 99.1548L656.785 87.9528L638.944 24.5597ZM734.518 56.129L769.18 67.5856L756.691 113.412L715.913 102.974L734.518 56.129ZM737.322 49.0004L765.866 -22.7942L829.583 2.41034L807.154 72.1682L737.322 49.0004ZM832.386 77.7691L896.867 89.2257L842.835 179.351L809.448 149.055L832.386 77.7691ZM840.287 53.3284L871.125 -42.6523L926.176 -29.6682C920.569 -4.46368 915.727 18.4495 913.178 29.3969L865.263 57.9111L840.287 53.3284ZM932.802 -24.0671L955.74 3.93787L922.353 23.796L932.802 -24.0671ZM862.97 -101.208C837.228 -114.192 779.374 -144.998 752.359 -167.911C751.084 -168.929 749.81 -170.202 748.536 -171.475L810.468 -224.43L880.046 -154.163L862.97 -101.208ZM769.435 -209.664L749.3 -248.362L773.258 -257.527L799.508 -235.123L769.435 -209.664ZM763.573 -204.572L739.361 -183.95C730.44 -197.698 722.285 -216.283 714.894 -235.378L741.909 -245.816L763.573 -204.572ZM742.419 -156.2C754.398 -146.016 771.728 -134.56 789.824 -123.867L775.042 -86.6965L703.68 -138.378L736.557 -162.055C738.596 -160.019 740.38 -157.982 742.419 -156.2ZM747.007 -97.3893L711.58 -47.235L649.903 -99.6807L697.053 -133.541L747.007 -97.3893ZM652.962 -120.812L639.199 -166.383L673.351 -182.677L687.623 -145.507L652.962 -120.812ZM636.905 -174.021L625.946 -210.428L650.158 -243.27L670.547 -190.06L636.905 -174.021ZM639.709 -111.392L571.405 -62.2557L546.683 -159.764L620.594 -174.021L639.709 -111.392ZM545.154 -167.402L516.1 -282.222L585.678 -290.624L618.555 -181.404L545.154 -167.402ZM521.962 -154.418L441.934 -182.423L436.072 -226.721L501.318 -236.396L521.962 -154.418ZM393.255 -228.249L388.668 -266.692L490.358 -279.167L499.279 -244.034L393.255 -228.249ZM384.08 -291.897L376.434 -324.993L485.006 -319.902L489.084 -304.626L384.08 -291.897ZM389.687 -127.686L316.541 -211.446L313.483 -257.527L373.376 -264.91L389.687 -127.686ZM310.679 -282.986L305.327 -316.083C325.971 -319.138 349.164 -322.957 360.888 -324.484L369.043 -290.115L310.679 -282.986ZM305.837 -256.509L308.64 -213.483L276.273 -210.428L277.292 -253.199L305.837 -256.509ZM311.189 -205.845L388.413 -117.247L273.469 -106.3L276.018 -202.281C286.467 -203.554 305.072 -205.336 311.189 -205.845ZM388.923 -101.972L325.461 120.795L294.368 103.483L360.378 -99.1714L388.923 -101.972ZM333.617 148.8L412.88 181.897L403.96 208.374L326.481 172.986L333.617 148.8ZM375.924 149.818L396.568 93.2992L438.111 106.283L417.722 167.385L375.924 149.818ZM427.917 185.461L462.833 189.535L454.932 241.471L417.722 216.012L427.917 185.461ZM470.989 187.243L497.495 126.651C518.393 134.034 542.351 142.435 563.25 149.564L540.057 268.203L510.493 279.405L461.814 246.054L470.989 187.243ZM588.226 266.421L601.224 313.011L546.428 335.924L521.452 291.88L588.226 266.421ZM548.722 265.148L570.895 152.364C583.384 156.692 594.343 160.511 602.244 163.312L621.104 237.652L548.722 265.148ZM610.654 92.0262L696.289 113.921L674.115 143.199L626.966 156.692L610.654 92.0262ZM704.444 115.958L785.236 136.58L695.014 182.406L680.742 147.018L704.444 115.958ZM764.082 115.449L776.316 70.1315L804.861 79.5514L791.098 122.323L764.082 115.449ZM806.9 157.456L879.281 222.886L873.929 233.07C837.228 225.941 805.37 219.831 788.04 216.521L806.9 157.456ZM848.697 184.952L905.022 91.0079L944.271 98.1365L882.849 216.012L848.697 184.952ZM952.172 99.4094L964.66 101.701L940.448 246.054C920.824 242.235 900.944 238.416 881.83 234.852L952.172 99.4094ZM956.505 196.663L1019.71 211.684L1012.07 259.802C992.95 256.237 970.777 251.909 947.839 247.581L956.505 196.663ZM966.19 266.675L1009.26 274.822L990.147 354.255L954.721 347.126L966.19 266.675ZM1016.65 276.35L1056.92 283.988L1042.14 364.693L997.793 355.782L1016.65 276.35ZM1019.71 261.329L1027.36 212.957L1069.41 216.267L1059.72 268.967C1050.29 267.185 1036.53 264.384 1019.71 261.329ZM1028.63 205.319L1033.73 172.986L1076.29 178.842L1070.68 208.629L1028.63 205.319ZM1035 165.348L1042.9 115.703L1086.49 123.596L1077.82 171.204L1035 165.348ZM1020.99 204.046L957.779 189.025L972.306 102.974L1035.26 114.176L1020.99 204.046ZM888.456 61.9846L965.68 16.1583L1022.77 86.1707L888.456 61.9846ZM972.306 12.0848L1072.72 -47.4895L1095.15 -20.2483L994.48 39.0714L972.306 12.0848ZM962.367 -0.135681L935.861 -32.4687L1020.48 -111.392L1062.78 -59.71L962.367 -0.135681ZM1023.79 -167.656L963.641 -175.549C965.425 -187.005 967.209 -197.698 968.228 -203.045L1027.61 -191.079L1023.79 -167.656ZM1022.51 -160.273L1017.42 -128.704L957.524 -139.906C958.544 -146.78 960.328 -157.473 962.112 -168.42L1022.51 -160.273ZM950.133 -141.179L905.532 -149.58L925.411 -211.955L960.583 -204.827L950.133 -141.179ZM885.398 -170.966L822.446 -234.614L871.89 -276.876L912.923 -255.999L885.398 -170.966ZM805.37 -240.469L778.355 -263.383L793.392 -316.083L885.398 -327.285C886.672 -322.448 888.456 -317.865 891.005 -313.792L805.37 -240.469ZM769.944 -338.996L757.711 -417.155L809.958 -425.302L822.191 -345.361L769.944 -338.996ZM727.382 -174.276L694.25 -150.344L655.765 -250.398L682.271 -286.296C690.936 -255.49 707.248 -204.827 727.382 -174.276ZM623.143 -219.593L600.969 -292.661L677.684 -302.08C678.193 -300.298 678.703 -298.262 679.213 -295.97L623.143 -219.593ZM610.909 -319.647L586.187 -316.592L544.135 -384.059L611.164 -394.497L610.909 -319.647ZM577.777 -315.574L513.551 -307.681L539.037 -377.694L577.777 -315.574ZM501.318 -319.138L466.911 -452.034L540.312 -426.066L501.318 -319.138ZM482.967 -328.049L423.329 -330.849L407.273 -420.72L457.736 -425.557L482.967 -328.049ZM415.428 -331.104L374.65 -332.886L355.28 -415.373L399.627 -419.701L415.428 -331.104ZM359.103 -332.122L304.308 -323.72L298.956 -356.817L351.712 -363.946L359.103 -332.122ZM303.033 -281.968L276.273 -278.658L272.705 -310.736C278.821 -311.755 287.742 -313.028 297.936 -314.555L303.033 -281.968ZM273.214 -91.0245L352.222 -98.4077L311.954 24.8143L270.666 7.75671L273.214 -91.0245ZM309.66 32.1975L287.232 100.937L268.372 97.8819L270.411 16.1583L309.66 32.1975ZM284.683 108.32L266.588 163.821L268.117 105.52C273.469 106.283 280.35 107.556 284.683 108.32ZM292.074 110.866L323.422 128.433L290.035 245.545L264.804 233.324L265.823 190.807L292.074 110.866ZM324.697 180.369L401.666 215.503L377.709 287.297L304.308 251.909L324.697 180.369ZM415.174 223.65L501.827 282.969L427.152 311.484L391.471 294.171L415.174 223.65ZM424.858 338.725L493.417 371.822L475.576 404.918L414.664 391.934L424.858 338.725ZM446.267 320.649L514.061 294.68L539.292 338.725L509.728 350.945L446.267 320.649ZM603.518 320.649L613.458 356.546L560.446 375.895L518.903 356.037L603.518 320.649ZM595.617 263.62L624.672 252.418L647.609 343.562L620.594 353.491L595.617 263.62ZM628.75 164.076L674.115 151.091L717.697 258.529L657.294 277.368L628.75 164.076ZM698.073 189.534L783.707 145.999L738.086 288.061L698.073 189.534ZM783.197 231.542L856.343 245.544L842.326 324.468L758.73 307.665L783.197 231.542ZM854.814 342.798L937.39 359.601L931.018 404.409L851.246 363.166L854.814 342.798ZM857.363 327.523L871.38 248.345L950.898 263.62L939.429 344.071L857.363 327.523ZM952.427 362.402L1039.34 379.969L1030.67 426.559L945.546 409.756L952.427 362.402ZM1049.28 467.802L1086.49 472.64L1075.02 531.705L1038.32 527.122L1049.28 467.802ZM1050.55 460.164L1067.63 367.239L1105.6 373.858L1087.76 465.002L1050.55 460.164ZM1070.43 352.218L1082.15 289.08C1094.13 291.625 1114.01 295.699 1137.46 300.536L1123.7 361.383L1070.43 352.218ZM1084.7 274.059L1098.97 196.154L1190.72 208.884L1178.49 293.662L1084.7 274.059ZM1096.17 99.1548L1034.24 87.9528L999.067 45.1815L1099.74 -14.1382L1114.78 4.19238L1096.17 99.1548ZM1129.05 11.321L1192.76 26.851C1189.2 44.9269 1180.02 91.0079 1175.69 113.412L1111.46 101.955L1129.05 11.321ZM1118.6 -15.6656L1042.9 -108.082L1133.13 -91.0245L1118.6 -15.6656ZM1032.45 -125.649L1047.49 -220.102L1155.3 -204.572L1136.18 -106.045L1032.45 -125.649ZM1090.31 -229.522L1099.23 -292.66L1170.08 -279.422L1158.36 -219.593L1090.31 -229.522ZM1095.66 -319.392L1066.61 -324.739L1075.78 -377.185L1105.09 -374.13L1095.66 -319.392ZM1091.58 -294.188C1089.03 -276.621 1084.7 -245.052 1082.66 -230.795L1050.04 -235.632L1060.49 -300.298L1091.58 -294.188ZM1051.31 -327.794L995.754 -338.232C995.754 -339.251 995.754 -340.524 995.754 -341.542C995.754 -349.434 993.97 -357.072 991.166 -363.946L1043.67 -395.515L1057.94 -364.71L1051.31 -327.794ZM1045.45 -302.844L1028.89 -198.971L927.96 -219.338L949.623 -286.55C966.19 -289.351 980.462 -299.534 988.618 -313.791L1045.45 -302.844ZM939.684 -311.246C922.863 -311.246 909.1 -324.994 909.1 -341.797C909.1 -358.6 922.863 -372.347 939.684 -372.347C956.505 -372.347 970.267 -358.6 970.267 -341.797C970.267 -324.994 956.505 -311.246 939.684 -311.246ZM922.863 -288.078L914.962 -263.383L878.007 -282.222L900.435 -301.317C906.551 -295.461 914.197 -290.878 922.863 -288.078ZM884.633 -352.999L829.837 -346.379L817.349 -426.575L875.713 -435.741L901.454 -383.295C893.298 -375.148 887.182 -364.71 884.633 -352.999ZM744.968 -430.903L741.145 -461.454L852.775 -482.585L868.832 -449.998L744.968 -430.903ZM742.419 -414.864L748.281 -376.675L703.68 -371.329L699.347 -408.245L742.419 -414.864ZM700.876 -330.594L618.81 -320.665V-395.77L691.956 -407.226L700.876 -330.594ZM621.359 -411.554L647.61 -505.753L679.977 -493.533L661.372 -417.919L621.359 -411.554ZM613.203 -410.281L547.448 -400.098L593.578 -526.375L640.728 -508.554L613.203 -410.281ZM542.86 -433.195L505.141 -446.433L518.393 -494.042L558.917 -477.239L542.86 -433.195ZM498.004 -448.979L464.617 -460.69L448.306 -523.065L511.512 -496.842L498.004 -448.979ZM453.913 -440.323L348.654 -430.394L343.812 -464.509L442.444 -484.113L453.913 -440.323ZM349.928 -371.329L297.681 -364.201L290.545 -409.263L339.989 -414.1L349.928 -371.329ZM291.31 -355.544L296.662 -322.448L271.94 -318.629L268.117 -352.489L291.31 -355.544ZM267.098 -360.127L262 -406.717L282.899 -408.754L290.035 -363.437L267.098 -360.127ZM262 -251.162L260.981 -208.9C248.747 -207.882 224.026 -205.59 214.086 -204.827L215.615 -245.816L262 -251.162ZM198.284 0.119019L197.01 34.7433C188.345 34.4888 167.701 33.725 159.035 33.4704L160.564 -2.42688L198.284 0.119019ZM163.368 -17.957L201.343 -79.3134L198.794 -15.4111L163.368 -17.957ZM196.5 42.381L194.971 83.6247C182.483 81.0788 169.23 78.5329 156.996 76.2416L158.525 41.108L196.5 42.381ZM194.461 91.2625L188.09 142.69L147.821 132.251L155.977 83.6248L194.461 91.2625ZM192.167 171.968L214.596 177.569L212.302 208.12L189.109 196.918L192.167 171.968ZM193.187 164.076L201.852 92.5355L220.712 96.0998L215.36 169.422L193.187 164.076ZM228.358 97.8819L252.825 102.719L249.767 225.941L219.948 211.684L228.358 97.8819ZM202.617 85.1523L204.146 42.8902C214.086 43.3994 240.847 44.9269 254.099 45.6907L252.825 95.0813C242.631 93.0446 223.771 89.2257 202.617 85.1523ZM204.656 34.998L205.93 0.628235L255.374 4.1925L254.609 38.0531L204.656 34.998ZM206.44 -14.9019L209.498 -90.2608L257.922 -93.8251L255.884 -11.5922L206.44 -14.9019ZM209.753 -97.8986L211.027 -128.195L258.687 -126.922L257.922 -101.463L209.753 -97.8986ZM211.537 -143.47L213.576 -196.934L260.471 -201.008L258.942 -142.197L211.537 -143.47ZM137.881 -236.141L207.714 -244.543L206.185 -204.317L134.823 -205.081L137.881 -236.141ZM205.93 -196.68L203.891 -143.725L128.961 -145.762L134.058 -197.444L205.93 -196.68ZM203.382 -128.195L202.107 -94.8434L177.64 -55.1273L126.413 -119.793L127.432 -130.232L203.382 -128.195ZM173.053 -48.2533L154.448 -18.4662L116.218 -21.2667L125.138 -108.846L173.053 -48.2533ZM152.918 -3.19073L149.35 74.4595C132.529 71.1498 117.492 68.0947 107.808 66.3126L114.944 -5.99121L152.918 -3.19073ZM103.475 -149.326L72.6362 -153.654L87.9281 -241.742L112.395 -237.16L103.475 -149.326ZM106.788 73.9504L148.331 82.0974L133.549 169.931L98.6324 153.128L106.788 73.9504ZM146.547 139.889L187.07 150.327L181.718 193.099L140.94 173.495L146.547 139.889ZM185.541 223.65L268.627 263.62L264.804 276.859L149.35 304.355L185.541 223.65ZM275.763 266.93L316.541 286.534L298.701 347.89L253.845 344.071L275.763 266.93ZM330.559 293.408L365.73 310.211L339.989 417.648L295.642 413.065L330.559 293.408ZM391.726 430.887L387.903 450.49L285.448 447.69L293.349 420.703L391.726 430.887ZM347.635 418.412L372.866 313.775L410.586 332.105L393 423.504L347.635 418.412ZM413.389 399.572L522.471 422.994L518.648 454.055L403.705 450.745L413.389 399.572ZM483.477 406.701L500.553 375.131L538.528 393.462L525.02 415.611L483.477 406.701ZM530.372 421.212L545.154 396.771L593.833 420.194L587.462 456.091L526.039 454.309L530.372 421.212ZM688.643 417.648C705.464 417.648 719.226 431.396 719.226 448.199C719.226 465.002 705.464 478.75 688.643 478.75C671.822 478.75 658.059 465.002 658.059 448.199C658.314 431.396 671.822 417.648 688.643 417.648ZM703.934 394.226C699.092 392.953 693.995 392.189 688.643 392.189C687.878 392.189 687.113 392.189 686.349 392.189L659.333 284.752L720.755 265.657L734.518 299.772L703.934 394.226ZM754.143 322.431L839.777 339.743L838.503 347.381L734.518 415.611C732.224 412.556 729.931 409.756 727.127 407.21L754.143 322.431ZM836.464 357.564L819.133 455.073L744.458 442.343C743.693 434.96 741.654 428.086 738.341 421.976L836.464 357.564ZM857.108 477.222L851.246 502.681L782.688 492.752L795.94 466.784L857.108 477.222ZM841.306 418.921L849.717 371.058L929.744 412.302L926.431 434.96L841.306 418.921ZM1019.2 489.188L936.37 475.186L944.526 417.393L1029.14 433.942L1019.2 489.188ZM1058.45 616.229L1023.28 609.355L1037.04 534.505L1073.49 539.088L1058.45 616.229ZM1108.91 626.158L1073.49 619.284L1095.92 504.209L1129.05 511.592L1108.91 626.158ZM1130.32 503.699L1097.44 496.316L1120.89 376.15L1151.99 381.496L1130.32 503.699ZM1226.66 572.184L1176.45 573.457L1175.18 540.361L1215.96 495.553C1218.25 513.119 1224.11 554.618 1226.66 572.184ZM1214.43 485.878L1174.67 529.668L1168.81 384.806L1197.86 389.643L1214.43 485.878ZM1238.64 321.412L1229.46 379.205L1131.34 362.402L1145.1 301.809C1173.9 308.174 1207.29 315.048 1238.64 321.412ZM1192.25 201.246L1100.76 188.516L1111.97 128.178L1200.66 143.963L1192.25 201.246ZM1222.33 121.813L1183.33 114.939L1191.23 74.4594L1229.46 82.097L1222.33 121.813ZM1260.81 128.687L1229.97 123.086L1237.36 83.6248L1266.67 89.4803L1260.81 128.687ZM1272.79 45.9453L1267.44 81.588L1192.51 66.5671L1200.15 28.3785L1272.79 45.9453ZM1195.82 11.5756L1132.11 -3.95447L1148.67 -88.224L1212.64 -76.2582L1195.82 11.5756ZM1234.82 -87.7149L1151.48 -103.5L1165.49 -174.785L1248.07 -158.237L1234.82 -87.7149ZM1277.38 -575.002L1268.46 -513.391L1234.05 -513.9L1230.99 -572.201L1277.38 -575.002ZM1233.54 -498.624L1266.16 -498.115L1248.58 -376.421H1222.33L1233.54 -498.624ZM1221.56 -368.529H1247.56L1236.6 -292.915L1214.94 -296.989L1221.56 -368.529ZM1207.55 -298.516L1193.02 -301.317L1184.86 -499.388L1225.9 -498.624L1207.55 -298.516ZM1223.09 -571.692L1226.15 -513.9L1184.35 -514.664L1182.06 -569.146L1223.09 -571.692ZM1185.12 -276.621L1266.67 -261.346L1249.09 -165.62L1166.77 -182.168L1185.12 -276.621ZM1177.47 -304.117L1103.31 -318.12C1106.11 -334.923 1111.21 -363.437 1112.99 -373.366L1175.18 -366.746L1177.47 -304.117ZM1174.67 -374.639L1077.06 -385.077L1084.45 -426.575L1172.63 -427.339L1174.67 -374.639ZM1108.4 -564.818L1166.51 -568.382L1168.81 -511.099L1098.97 -511.609L1108.4 -564.818ZM1097.95 -503.971L1169.57 -503.462L1172.37 -435.231L1085.98 -434.468L1097.95 -503.971ZM1007.73 -589.004L1093.11 -566.346L1083.94 -513.9L998.557 -539.104L1007.73 -589.004ZM1082.66 -506.262L1062.53 -391.187L997.538 -531.467L1082.66 -506.262ZM992.44 -505.753L1040.35 -402.644L987.598 -370.82C983.265 -377.694 977.658 -383.804 970.777 -388.387L992.44 -505.753ZM977.404 -566.091L946.31 -397.297C944.526 -397.552 942.742 -397.552 940.703 -397.552L921.079 -556.417L977.404 -566.091ZM905.787 -553.871L925.411 -395.77C924.902 -395.77 924.647 -395.515 924.137 -395.515L850.736 -544.705L905.787 -553.871ZM797.724 -594.86L849.462 -489.714L798.489 -480.039L763.063 -585.185L797.724 -594.86ZM755.672 -583.149C763.063 -561.508 784.981 -495.824 790.843 -478.512L740.38 -469.092L726.872 -575.256L755.672 -583.149ZM729.931 -428.612L669.783 -419.192L687.368 -490.732L723.814 -476.984L729.931 -428.612ZM722.54 -485.64L650.158 -513.136L667.234 -550.561L716.678 -532.485L722.54 -485.64ZM678.193 -585.44L711.326 -575.256L715.658 -541.141L670.038 -557.689L678.193 -585.44ZM621.359 -603.007L671.057 -587.477L661.882 -556.417L643.277 -515.682L596.127 -533.503L621.359 -603.007ZM556.878 -616.245L602.753 -597.151L592.814 -570.164L545.154 -586.713L556.878 -616.245ZM540.312 -571.947L587.462 -555.653L561.465 -484.622L520.432 -501.68L540.312 -571.947ZM471.753 -595.624L533.176 -574.492L513.551 -504.48L446.012 -532.485L440.15 -554.634C451.619 -567.109 462.069 -580.857 471.753 -595.624ZM385.354 -580.094L421.545 -601.479L427.662 -564.309C420.781 -556.926 413.644 -550.561 406.253 -544.705L385.354 -580.094ZM405.234 -524.847C412.88 -529.939 420.526 -535.795 427.662 -542.16L440.915 -491.241L343.047 -471.892L339.224 -499.134C364.965 -505.244 387.648 -513.645 405.234 -524.847ZM331.323 -497.606L340.753 -429.63L238.298 -419.956L233.201 -486.404C267.607 -487.677 301.249 -491.241 331.323 -497.606ZM284.938 -567.364L289.526 -506.262C258.942 -502.443 226.064 -500.916 193.697 -500.916L191.913 -578.821L284.938 -567.364ZM225.81 -485.895L230.907 -418.938L171.778 -413.337L174.837 -485.131C191.403 -485.131 208.734 -485.386 225.81 -485.895ZM152.409 -583.403L176.111 -580.603L176.876 -549.033L148.841 -552.598C149.605 -559.472 151.389 -574.238 152.409 -583.403ZM177.131 -541.396L178.15 -500.916C166.426 -500.916 154.957 -501.17 143.743 -501.68L148.076 -544.96L177.131 -541.396ZM23.1926 -599.188L144.763 -584.422L141.195 -553.616L18.8599 -568.891L23.1926 -599.188ZM17.8405 -561.254L48.9339 -557.435L40.2685 -508.553C28.035 -509.826 18.0953 -510.845 10.7043 -511.609L17.8405 -561.254ZM65.5001 -425.302L0 -437.268L8.41051 -496.333C21.6634 -494.806 43.8366 -492.26 71.6168 -490.223L65.5001 -425.302ZM74.6752 -441.342L113.924 -453.562L118.767 -415.628L73.146 -424.029L74.6752 -441.342ZM74.1655 -407.99L135.588 -396.788L120.041 -261.6L103.985 -264.655L74.1655 -407.99ZM30.5837 -336.959L79.0079 -347.143L95.8289 -266.183L38.4845 -276.876L30.5837 -336.959ZM22.6829 -74.2216L48.4242 -249.125L80.2822 -243.27L49.9534 -69.3844L22.6829 -74.2216ZM57.5993 -67.8567L71.3619 -146.271L102.965 -141.943L94.8094 -60.9827L57.5993 -67.8567ZM95.3192 180.115L171.778 216.776L120.041 332.615L74.1655 328.796L95.3192 180.115ZM71.8717 344.071L192.677 354.255L190.638 389.898L63.9709 399.827L71.8717 344.071ZM190.129 397.79L187.325 444.635L155.722 443.616V400.336L190.129 397.79ZM62.6965 407.974L148.076 401.354V443.871L57.8541 441.325L62.6965 407.974ZM108.317 580.841L39.2491 571.675L49.6985 499.117L115.199 508.027L108.317 580.841ZM50.7179 491.479L54.286 466.784L118.767 468.566L115.963 500.39L50.7179 491.479ZM139.411 584.914L115.963 581.859L122.59 509.046L146.802 512.356L139.411 584.914ZM147.566 504.718L123.354 501.408L126.413 468.566L151.134 469.33L147.566 504.718ZM181.973 590.77L154.702 587.205L162.094 514.138L187.07 515.665L181.973 590.77ZM162.858 506.245L166.681 469.839L267.098 472.64L269.901 512.356L162.858 506.245ZM189.619 591.788L194.971 515.92L270.666 520.248L276.782 603.499L189.619 591.788ZM269.646 447.18L202.872 445.398L205.42 399.317L278.057 417.902L269.646 447.18ZM241.866 400.59L250.022 359.347L294.368 363.165L280.605 410.519L241.866 400.59ZM282.389 473.149L387.393 476.204L391.981 503.19L285.448 512.356L282.389 473.149ZM285.957 519.739L393.255 510.573L399.882 549.78L289.016 561.746L285.957 519.739ZM294.113 631.504L290.035 577.276L402.175 565.056L409.821 611.646L294.113 631.504ZM410.841 522.794L403.195 476.458L539.037 480.277C535.979 491.989 531.137 510.065 524.255 531.45L410.841 522.794ZM566.053 621.066L515.335 601.717C518.393 594.079 521.452 586.442 524.255 579.058L577.522 591.533L566.053 621.066ZM529.607 564.547C542.606 528.14 550.761 497.08 554.584 480.786L586.442 481.805L617.536 535.014L585.168 577.531L529.607 564.547ZM637.415 589.751L593.578 579.568L623.652 540.106L651.433 551.563L637.415 589.751ZM654.236 544.18L628.495 533.487L657.804 495.044C661.627 497.59 665.45 499.372 669.783 500.899L654.236 544.18ZM670.038 545.452L685.075 503.954C686.349 503.954 687.368 503.954 688.643 503.954C694.759 503.954 700.876 502.936 706.483 501.154L724.578 538.069L670.038 545.452ZM689.662 608.591L696.289 549.781L728.401 545.453L751.084 591.788L689.662 608.591ZM752.104 536.033L728.401 487.661C736.302 479.768 741.909 469.33 743.948 457.873L787.785 465.256L752.104 536.033ZM796.96 627.176L783.452 599.935L828.308 587.205L835.699 615.21L796.96 627.176ZM903.748 594.079L843.09 612.919L835.954 584.914L908.081 564.292L903.748 594.079ZM910.374 547.744L776.571 585.932L756.437 544.689L779.119 500.135L914.452 519.739L910.374 547.744ZM912.923 637.869L923.627 562.51L961.347 567.602L952.427 626.412L912.923 637.869ZM996.264 613.683L960.837 623.866L969.248 568.62L1003.65 573.203L996.264 613.683Z" fill="#D94227"/>
</g>
</svg>
