<svg width="24" height="24" viewBox="0 0 24 24" fill="none" xmlns="http://www.w3.org/2000/svg">
<path fill-rule="evenodd" clip-rule="evenodd" d="M22.6364 3.54528H1.36364V19.6362C1.36364 20.6905 2.21837 21.5453 3.27273 21.5453H20.7273C21.7816 21.5453 22.6364 20.6905 22.6364 19.6362V3.54528ZM0 2.18164V19.6362C0 21.4437 1.46525 22.9089 3.27273 22.9089H20.7273C22.5348 22.9089 24 21.4437 24 19.6362V2.18164H0Z" fill="black"/>
<path fill-rule="evenodd" clip-rule="evenodd" d="M5.71449 4.36355V1.09082H7.07812V4.36355H5.71449Z" fill="black"/>
<path fill-rule="evenodd" clip-rule="evenodd" d="M17.7145 4.36355V1.09082H19.0781V4.36355H17.7145Z" fill="black"/>
<path fill-rule="evenodd" clip-rule="evenodd" d="M19.4278 12.0004H13.1421V10.6367H19.4278V12.0004Z" fill="#ED2B2E"/>
<path fill-rule="evenodd" clip-rule="evenodd" d="M19.4278 17.4545H13.1421V16.0908H19.4278V17.4545Z" fill="#ED2B2E"/>
<path fill-rule="evenodd" clip-rule="evenodd" d="M9.29879 10.8835L6.2594 13.4624L4.67261 11.9477L5.61417 10.9614L6.31309 11.6285L8.41655 9.84375L9.29879 10.8835Z" fill="#ED2B2E"/>
<path fill-rule="evenodd" clip-rule="evenodd" d="M9.29879 16.3376L6.2594 18.9165L4.67261 17.4019L5.61417 16.4155L6.31309 17.0826L8.41655 15.2979L9.29879 16.3376Z" fill="#ED2B2E"/>
<path fill-rule="evenodd" clip-rule="evenodd" d="M24 7.09118L-1.2489e-07 7.09118L0 5.72754L24 5.72754L24 7.09118Z" fill="black"/>
</svg>
