<svg width="23" height="24" viewBox="0 0 23 24" fill="none" xmlns="http://www.w3.org/2000/svg">
<path fill-rule="evenodd" clip-rule="evenodd" d="M21.2853 14.6684H2.11865V13.4184H21.2853V14.6684Z" fill="#ED2B2E"/>
<path fill-rule="evenodd" clip-rule="evenodd" d="M10.425 16.9013L8.81188 23.1833L7.65479 22.8598L9.26791 16.5778L10.425 16.9013Z" fill="#ED2B2E"/>
<path fill-rule="evenodd" clip-rule="evenodd" d="M14.082 23.1836L12.5651 17.2761L13.7222 16.9526L15.2391 22.86L14.082 23.1836Z" fill="#ED2B2E"/>
<path fill-rule="evenodd" clip-rule="evenodd" d="M17.0067 23.3686H5.99316V22.1186H17.0067V23.3686Z" fill="black"/>
<path fill-rule="evenodd" clip-rule="evenodd" d="M2.15617 1.88129V14.6313C2.15617 15.5978 2.90702 16.3813 3.83325 16.3813H19.1666C20.0928 16.3813 20.8437 15.5978 20.8437 14.6313V1.88129H2.15617ZM1.91659 0.631287C1.38731 0.631287 0.958252 1.079 0.958252 1.63129V14.6313C0.958252 16.2881 2.24543 17.6313 3.83325 17.6313H19.1666C20.7544 17.6313 22.0416 16.2881 22.0416 14.6313V1.63129C22.0416 1.079 21.6125 0.631287 21.0833 0.631287H1.91659Z" fill="black"/>
</svg>
