<svg width="24" height="24" viewBox="0 0 24 24" fill="none" xmlns="http://www.w3.org/2000/svg">
<path fill-rule="evenodd" clip-rule="evenodd" d="M12.3728 5.25003C12.4056 5.45395 12.428 5.66269 12.4391 5.87529C12.4445 5.97854 12.4473 6.0827 12.4473 6.18766C12.4473 6.29263 12.4445 6.39678 12.4391 6.50003L5.00765 6.50003C5.00225 6.39679 4.99951 6.29263 4.99951 6.18767C4.99951 6.08271 5.00225 5.97855 5.00765 5.87531C5.01876 5.6627 5.04113 5.45396 5.07402 5.25003C5.4191 3.11049 6.92184 1.50015 8.72339 1.50015C10.5249 1.50015 12.0277 3.11048 12.3728 5.25003ZM6.33976 5.25003C6.66113 3.64994 7.78086 2.75015 8.72339 2.75015C9.66592 2.75015 10.7856 3.64994 11.107 5.25003L6.33976 5.25003Z" fill="#ED2B2E"/>
<path fill-rule="evenodd" clip-rule="evenodd" d="M18.6755 5.25003C18.7084 5.45399 18.7308 5.66277 18.7419 5.87542C18.7473 5.97864 18.75 6.08278 18.75 6.18773C18.75 6.29267 18.7473 6.3968 18.7419 6.50003L11.3104 6.50003C11.305 6.39681 11.3022 6.29267 11.3022 6.18773C11.3022 6.08279 11.305 5.97866 11.3104 5.87543C11.3215 5.66278 11.3439 5.454 11.3768 5.25003C11.7219 3.11052 13.2246 1.50021 15.0261 1.50021C16.8276 1.50021 18.3304 3.11052 18.6755 5.25003ZM12.6425 5.25003C12.9639 3.64998 14.0836 2.75021 15.0261 2.75021C15.9686 2.75021 17.0884 3.64998 17.4097 5.25003L12.6425 5.25003Z" fill="#ED2B2E"/>
<path fill-rule="evenodd" clip-rule="evenodd" d="M19.619 6.74982H4.38096C3.75635 6.74982 3.25 7.25617 3.25 7.88078C3.25 8.50539 3.75635 9.01174 4.38096 9.01174H19.619C20.2437 9.01174 20.75 8.5054 20.75 7.88078C20.75 7.25617 20.2437 6.74982 19.619 6.74982ZM4.38096 5.49982C3.06599 5.49982 2 6.56581 2 7.88078C2 9.19575 3.06599 10.2617 4.38096 10.2617H19.619C20.934 10.2617 22 9.19575 22 7.88078C22 6.56581 20.934 5.49982 19.619 5.49982H4.38096Z" fill="black"/>
<path fill-rule="evenodd" clip-rule="evenodd" d="M18.8448 10.4163H5.1543V19.4997C5.1543 20.4662 5.9378 21.2497 6.90429 21.2497H17.0948C18.0613 21.2497 18.8448 20.4662 18.8448 19.4997V10.4163ZM3.9043 9.16632V19.4997C3.9043 21.1566 5.24744 22.4997 6.90429 22.4997H17.0948C18.7516 22.4997 20.0948 21.1566 20.0948 19.4997V9.16632H3.9043Z" fill="black"/>
<path fill-rule="evenodd" clip-rule="evenodd" d="M11.5234 21.5477V9.64288H12.7734V21.5477H11.5234Z" fill="black"/>
</svg>
