<svg width="18" height="20" viewBox="0 0 18 20" fill="none" xmlns="http://www.w3.org/2000/svg">
<path d="M14.5 17.4023V16.1133C14.5 15.2826 13.8698 14.6094 12.6094 14.0938C11.349 13.5495 10.1458 13.2773 9 13.2773C7.85417 13.2773 6.65104 13.5495 5.39062 14.0938C4.13021 14.6094 3.5 15.2826 3.5 16.1133V17.4023H14.5ZM10.9336 7.21875C10.3893 6.67448 9.74479 6.40234 9 6.40234C8.25521 6.40234 7.61068 6.67448 7.06641 7.21875C6.52214 7.76302 6.25 8.40755 6.25 9.15234C6.25 9.89714 6.52214 10.5417 7.06641 11.0859C7.61068 11.6302 8.25521 11.9023 9 11.9023C9.74479 11.9023 10.3893 11.6302 10.9336 11.0859C11.4779 10.5417 11.75 9.89714 11.75 9.15234C11.75 8.40755 11.4779 7.76302 10.9336 7.21875ZM9.64453 3.00781C9.47266 2.83594 9.25781 2.75 9 2.75C8.74219 2.75 8.52734 2.83594 8.35547 3.00781C8.18359 3.17969 8.09766 3.39453 8.09766 3.65234C8.09766 3.91016 8.18359 4.13932 8.35547 4.33984C8.52734 4.51172 8.74219 4.59766 9 4.59766C9.25781 4.59766 9.47266 4.51172 9.64453 4.33984C9.81641 4.13932 9.90234 3.91016 9.90234 3.65234C9.90234 3.39453 9.81641 3.17969 9.64453 3.00781ZM15.4023 2.75C15.8893 2.75 16.319 2.9362 16.6914 3.30859C17.0638 3.68099 17.25 4.11068 17.25 4.59766V17.4023C17.25 17.8893 17.0638 18.319 16.6914 18.6914C16.319 19.0638 15.8893 19.25 15.4023 19.25H2.59766C2.11068 19.25 1.68099 19.0638 1.30859 18.6914C0.936198 18.319 0.75 17.8893 0.75 17.4023V4.59766C0.75 4.11068 0.936198 3.68099 1.30859 3.30859C1.68099 2.9362 2.11068 2.75 2.59766 2.75H6.42188C6.6224 2.20573 6.95182 1.76172 7.41016 1.41797C7.86849 1.07422 8.39844 0.902344 9 0.902344C9.60156 0.902344 10.1315 1.07422 10.5898 1.41797C11.0482 1.76172 11.3776 2.20573 11.5781 2.75H15.4023Z" fill="#C5D0DE"/>
</svg>
