<svg width="75" height="75" viewBox="0 0 75 75" fill="none" xmlns="http://www.w3.org/2000/svg">
<path d="M68.7495 51.25C66.7495 51.25 65.1245 49.75 64.9995 47.75C69.7495 45.75 72.6245 41 72.4995 35.875C72.4995 35.625 72.4995 35.125 72.4995 35C72.4995 28.75 67.4995 23.75 61.2495 23.75H46.2495C45.4995 23.75 44.9995 24.25 44.9995 25C44.9995 27.875 46.1245 30.625 47.9995 32.625C47.7495 33.875 47.4995 35 47.4995 36.25C47.4995 41.25 50.4995 45.75 54.9995 47.75C54.8745 49.75 53.2495 51.25 51.2495 51.25C47.7495 51.25 44.9995 54 44.9995 57.5V75H47.4995V57.5C47.4995 55.5 49.1245 53.75 51.1245 53.75L57.2495 54.75L54.9995 69.75C54.9995 70.125 55.1245 70.5 55.3745 70.875L59.1245 74.625C59.6245 75.125 60.3745 75.125 60.8745 74.625L64.6245 70.875C64.8745 70.625 64.9995 70.25 64.9995 69.75L62.7495 54.75L68.8745 53.75C70.8745 53.75 72.4995 55.5 72.4995 57.5V75H74.9995V57.5C74.9995 54 72.2495 51.25 68.7495 51.25ZM47.6245 26.25H61.2495C65.6245 26.25 69.2495 29.5 69.8745 33.75H56.2495C51.8745 33.75 48.2495 30.5 47.6245 26.25ZM59.9995 72L57.6245 69.625L59.8745 55H60.2495L62.4995 69.625L59.9995 72ZM61.1245 52.5H58.8745L55.6245 52C56.8745 50.875 57.4995 49.25 57.4995 47.5V46.875C57.4995 46.375 57.1245 45.875 56.6245 45.75C52.6245 44.25 49.9995 40.5 49.9995 36.25C49.9995 35.625 49.9995 35 50.1245 34.5C51.8745 35.625 53.9995 36.25 56.2495 36.25H69.9995C69.9995 40.5 67.3745 44.25 63.3745 45.625C62.8745 45.75 62.4995 46.25 62.4995 46.75V47.5C62.4995 49.125 63.1245 50.75 64.3745 52L61.1245 52.5Z" fill="white"/>
<path d="M68.7495 60H64.9995V62.5H68.7495V60Z" fill="white"/>
<path d="M73.75 0H1.25C0.5 0 0 0.5 0 1.25V6.25C0 7 0.5 7.5 1.25 7.5H2.5V52.5H1.25C0.5 52.5 0 53 0 53.75V58.75C0 59.5 0.5 60 1.25 60H33.75V73.75C33.75 74.5 34.25 75 35 75H40C40.75 75 41.25 74.5 41.25 73.75V60H42.5V57.5H2.5V55H42.5V52.5H5V7.5H70V25H72.5V7.5H73.75C74.5 7.5 75 7 75 6.25V1.25C75 0.5 74.5 0 73.75 0ZM36.25 60H38.75V72.5H36.25V60ZM72.5 5H2.5V2.5H72.5V5Z" fill="white"/>
<path d="M66.2495 10H8.74951C7.99951 10 7.49951 10.5 7.49951 11.25V36.25C7.49951 37 7.99951 37.5 8.74951 37.5H44.9995V35H9.99951V28L19.6245 31.25C19.7495 31.25 19.8745 31.375 19.9995 31.375C20.3745 31.375 20.6245 31.25 20.8745 31L27.7495 24.125L34.4995 27.5C34.8745 27.75 35.3745 27.625 35.7495 27.375L49.1245 17.5H53.7495V15H48.7495C48.4995 15 48.2495 15.125 47.9995 15.25L34.8745 24.75L27.9995 21.375C27.4995 21.125 26.9995 21.25 26.4995 21.625L19.4995 28.625L9.99951 25.375V12.5H64.9995V21.25H67.4995V11.25C67.4995 10.5 66.9995 10 66.2495 10Z" fill="white"/>
<path d="M42.1245 45.375L35.8745 39.125C35.3745 38.625 34.6245 38.625 34.1245 39.125L27.8745 45.375C27.3745 45.875 27.3745 46.625 27.8745 47.125C28.1245 47.375 28.3745 47.5 28.7495 47.5H31.2495V50C31.2495 50.75 31.7495 51.25 32.4995 51.25H37.4995C38.2495 51.25 38.7495 50.75 38.7495 50V47.5H41.2495C41.9995 47.5 42.4995 47 42.4995 46.25C42.4995 45.875 42.3745 45.625 42.1245 45.375ZM37.4995 45C36.7495 45 36.2495 45.5 36.2495 46.25V48.75H33.7495V46.25C33.7495 45.5 33.2495 45 32.4995 45H31.7495L34.9995 41.75L38.2495 45H37.4995Z" fill="white"/>
<path d="M25.8755 42.875C25.6255 42.625 25.3755 42.5 25.0005 42.5H22.5005V40C22.5005 39.25 22.0005 38.75 21.2505 38.75H16.2505C15.5005 38.75 15.0005 39.25 15.0005 40V42.5H12.5005C11.7505 42.5 11.2505 43 11.2505 43.75C11.2505 44.125 11.3755 44.375 11.6255 44.625L17.8755 50.875C18.3755 51.375 19.1255 51.375 19.6255 50.875L25.8755 44.625C26.3755 44.125 26.3755 43.375 25.8755 42.875ZM18.7505 48.25L15.5005 45H16.2505C17.0005 45 17.5005 44.5 17.5005 43.75V41.25H20.0005V43.75C20.0005 44.5 20.5005 45 21.2505 45H22.0005L18.7505 48.25Z" fill="white"/>
<path d="M61.25 15V13.75H58.75V15H57.5V17.5H58.75V18.75H61.25V17.5H62.5V15H61.25Z" fill="white"/>
<path d="M28.7502 16.25V15H26.2502V16.25H25.0002V18.75H26.2502V20H28.7502V18.75H30.0002V16.25H28.7502Z" fill="white"/>
</svg>
