<svg width="61" height="60" viewBox="0 0 61 60" fill="none" xmlns="http://www.w3.org/2000/svg">
<path d="M24.5959 35.6646L27.9976 41.3977L25.4189 55.3866" stroke="white" stroke-width="2" stroke-linecap="round" stroke-linejoin="round"/>
<path d="M36.4033 35.6646L33.0017 41.3977L35.5804 55.3866" stroke="white" stroke-width="2" stroke-linecap="round" stroke-linejoin="round"/>
<path d="M19.5149 4.58374C18.0389 12.2194 20.3219 17.8261 20.3219 17.8261C20.3226 20.5287 21.3952 23.1204 23.3039 25.0311C25.2126 26.9419 27.8011 28.0153 30.5 28.0153C33.1989 28.0153 35.7873 26.9419 37.696 25.0311C39.6047 23.1204 40.6773 20.5287 40.678 17.8261C40.678 16.4877 40.4148 15.1624 39.9033 13.9259C39.3918 12.6894 38.6421 11.5659 37.697 10.6195C36.7518 9.67314 35.6298 8.92236 34.3949 8.41019C33.1601 7.89802 31.8366 7.63455 30.5 7.63458C30.5 7.63458 22.5896 6.92376 19.5149 4.58374V4.58374Z" stroke="white" stroke-width="3" stroke-linecap="round" stroke-linejoin="round"/>
<path d="M9.93896 55.3867C9.93896 52.6829 10.4708 50.0056 11.5041 47.5076C12.5374 45.0097 14.0519 42.74 15.9611 40.8282C17.8704 38.9163 20.1371 37.3997 22.6316 36.365C25.1262 35.3303 27.7999 34.7979 30.5 34.7979C33.2001 34.7979 35.8738 35.3303 38.3684 36.365C40.863 37.3997 43.1296 38.9163 45.0389 40.8282C46.9481 42.74 48.4627 45.0097 49.4959 47.5076C50.5292 50.0056 51.0611 52.6829 51.0611 55.3867H30.5H9.93896Z" stroke="white" stroke-width="3" stroke-linecap="round" stroke-linejoin="round"/>
<path d="M20.3223 17.8266C20.3223 17.8266 30.3392 20.3484 34.275 15.1758" stroke="white" stroke-width="3" stroke-linecap="round" stroke-linejoin="round"/>
</svg>
