<svg width="60" height="60" viewBox="0 0 60 60" fill="none" xmlns="http://www.w3.org/2000/svg">
<path d="M30 0C26.6863 0 24 2.68625 24 6C24 9.31376 26.6863 12 30 12C33.3124 11.9968 35.9968 9.31238 36 6C36 2.68625 33.3138 0 30 0ZM30 10C27.7909 10 26 8.20913 26 6C26 3.79088 27.7909 2 30 2C32.2091 2 34 3.79088 34 6C34 8.20913 32.2091 10 30 10Z" fill="white"/>
<path d="M34 13H33.764L33.553 13.105C31.3154 14.2191 28.6846 14.2191 26.447 13.105L26.236 13H26C23.24 13.0033 21.0033 15.24 21 18V24C21 25.6569 22.3431 27 24 27H36C37.6569 27 39 25.6569 39 24V18C38.9968 15.24 36.76 13.0033 34 13ZM37 24C37 24.5523 36.5523 25 36 25H24C23.4478 25 23 24.5523 23 24V18C23.0003 16.426 24.2169 15.1198 25.787 15.008C28.4589 16.248 31.5413 16.248 34.213 15.008C35.783 15.1198 36.9998 16.426 37 18V24Z" fill="white"/>
<path d="M51 33.0002C47.6863 33.0002 45 35.6865 45 39.0002C45 42.314 47.6863 45.0003 51 45.0003C54.3138 45.0003 57 42.314 57 39.0002C56.9968 35.6879 54.3124 33.0035 51 33.0002ZM51 43.0002C48.7909 43.0002 47 41.2094 47 39.0002C47 36.7911 48.7909 35.0002 51 35.0002C53.2091 35.0002 55 36.7911 55 39.0002C55 41.2094 53.2091 43.0002 51 43.0002Z" fill="white"/>
<path d="M55 46H54.764L54.553 46.1C52.3154 47.214 49.6846 47.214 47.447 46.1L47.236 46H47C44.24 46.0033 42.0033 48.24 42 51V57C42 58.6569 43.3431 60 45 60H57C58.6569 60 60 58.6569 60 57V51C59.9968 48.24 57.76 46.0033 55 46ZM58 57C58 57.5523 57.5523 58 57 58H45C44.4478 58 44 57.5523 44 57V51C44.0003 49.426 45.2169 48.1198 46.787 48.008C49.4589 49.248 52.5411 49.248 55.213 48.008C56.7831 48.1198 57.9998 49.426 58 51V57Z" fill="white"/>
<path d="M9.00001 33.0002C5.68625 33.0002 3 35.6865 3 39.0002C3 42.314 5.68625 45.0003 9.00001 45.0003C12.3138 45.0003 15 42.314 15 39.0002C14.9968 35.6879 12.3124 33.0035 9.00001 33.0002ZM9.00001 43.0002C6.79088 43.0002 5 41.2094 5 39.0002C5 36.7911 6.79088 35.0002 9.00001 35.0002C11.2091 35.0002 13 36.7911 13 39.0002C13 41.2094 11.2091 43.0002 9.00001 43.0002Z" fill="white"/>
<path d="M13 46H12.764L12.553 46.1C10.3154 47.214 7.68464 47.214 5.44701 46.1L5.23601 46H5.00001C2.24 46.0033 0.00325 48.24 0 51V57C0 58.6569 1.34313 60 3 60H15C16.6569 60 18 58.6569 18 57V51C17.9968 48.24 15.76 46.0033 13 46ZM16 57C16 57.5523 15.5523 58 15 58H3C2.44775 58 2 57.5523 2 57V51C2.00025 49.426 3.21688 48.1198 4.78701 48.008C7.45889 49.248 10.5411 49.248 13.213 48.008C14.7831 48.1198 15.9998 49.426 16 51V57Z" fill="white"/>
<path d="M39.9216 50.7846C39.9211 50.7835 39.9206 50.7823 39.9201 50.7811C39.7036 50.273 39.1162 50.0366 38.6082 50.2531C34.0926 52.1456 29.0776 52.4908 24.3452 51.2351L25.2812 50.9601C25.8114 50.8048 26.1154 50.2493 25.9602 49.7191C25.8049 49.1888 25.2494 48.8848 24.7192 49.0401L20.7192 50.2131C20.7042 50.2131 20.6932 50.2301 20.6792 50.2351C20.5866 50.2696 20.4996 50.3178 20.4212 50.3781C20.3864 50.3968 20.3531 50.4178 20.3212 50.4411C20.2157 50.5352 20.1321 50.6512 20.0762 50.7811C20.0219 50.9118 19.9961 51.0526 20.0002 51.1941C20.0246 51.3295 20.0579 51.4631 20.1002 51.5941C20.1062 51.6081 20.1002 51.6241 20.1112 51.6381L22.1112 55.4651C22.3669 55.955 22.9713 56.1448 23.4612 55.8891C23.9511 55.6333 24.1409 55.029 23.8852 54.5391L23.0712 52.9831C28.4479 54.5993 34.2206 54.2852 39.3902 52.0951C39.8987 51.88 40.1367 51.2932 39.9216 50.7846Z" fill="white"/>
<path d="M56.7071 26.2929C56.3166 25.9026 55.6836 25.9026 55.2931 26.2929L53.8781 27.7079C53.0501 18.9492 47.4892 11.3484 39.392 7.90793C38.8839 7.69143 38.2966 7.92781 38.0801 8.43593C37.8636 8.94406 38.0999 9.53143 38.6081 9.74793C45.8718 12.8351 50.9211 19.5816 51.8351 27.4209L50.7071 26.2929C50.3098 25.9092 49.6768 25.9202 49.2931 26.3174C48.9188 26.7049 48.9188 27.3193 49.2931 27.7069L52.2931 30.7069C52.6831 31.0979 53.3163 31.0988 53.7073 30.7087C53.7079 30.7081 53.7086 30.7074 53.7091 30.7069L56.7091 27.7069C57.0989 27.3159 57.0981 26.6829 56.7071 26.2929Z" fill="white"/>
<path d="M21.971 8.65879C21.9678 8.60042 21.9592 8.54254 21.945 8.48579C21.945 8.47679 21.934 8.47079 21.93 8.46079C21.926 8.45079 21.93 8.44379 21.93 8.43579C21.9028 8.38717 21.8713 8.34092 21.836 8.29779C21.8037 8.23917 21.7654 8.18392 21.722 8.13279C21.6629 8.08042 21.5974 8.03579 21.527 7.99979C21.4919 7.96992 21.4544 7.94279 21.415 7.91879L17.415 6.09179C16.9041 5.88204 16.3199 6.12617 16.1101 6.63704C15.9118 7.12017 16.1186 7.67467 16.585 7.90979L18.656 8.85679C10.8594 13.0294 5.99438 21.1568 6 29.9998C6 30.5521 6.44776 30.9998 7.00001 30.9998C7.55226 30.9998 8.00001 30.5521 8.00001 29.9998C7.99501 22.2132 12.1126 15.0058 18.823 11.0558L18.1 12.5668C17.8616 13.0639 18.0705 13.6602 18.567 13.8998C18.7019 13.9657 18.8499 13.9999 19 13.9998C19.384 13.9993 19.7338 13.7789 19.9 13.4328L21.9 9.25979C21.9 9.24979 21.9 9.23879 21.908 9.22879C21.934 9.16042 21.9522 9.08929 21.962 9.01679C21.9792 8.96292 21.9919 8.90779 22 8.85179C21.9967 8.78667 21.987 8.72204 21.971 8.65879Z" fill="white"/>
</svg>
