<svg width="22" height="22" viewBox="0 0 22 22" fill="none" xmlns="http://www.w3.org/2000/svg">
<circle cx="11" cy="11" r="10.375" stroke="black" stroke-width="1.25"/>
<circle cx="11" cy="11" r="6.49265" stroke="black" stroke-width="1.25"/>
<path d="M13.5882 9.60238C13.5882 8.67062 12.9966 8.36003 12.1092 8.36003C11.7361 8.36003 11.3498 8.36003 11 8.36003M13.5882 12.3977C13.5882 13.64 12.6022 13.64 12.1092 13.64C11.7395 13.64 11.0739 13.64 9.89073 13.64C8.70754 13.64 8.41174 13.0189 8.41174 12.7083V9.60238C8.41174 8.67062 9.15124 8.36003 9.89073 8.36003C10.105 8.36003 10.5179 8.36003 11 8.36003M11 8.36003V7.11768M11 14.8824V13.64" stroke="#ED2B2E" stroke-width="1.25"/>
</svg>
