<svg width="32" height="32" viewBox="0 0 32 32" fill="none" xmlns="http://www.w3.org/2000/svg">
<path fill-rule="evenodd" clip-rule="evenodd" d="M1 26C1 25.3096 1.55964 24.75 2.25 24.75H16.75C17.4404 24.75 18 25.3096 18 26C18 26.6904 17.4404 27.25 16.75 27.25H2.25C1.55964 27.25 1 26.6904 1 26Z" fill="black"/>
<path fill-rule="evenodd" clip-rule="evenodd" d="M1 16C1 15.3096 1.55964 14.75 2.25 14.75H29.75C30.4404 14.75 31 15.3096 31 16C31 16.6904 30.4404 17.25 29.75 17.25H2.25C1.55964 17.25 1 16.6904 1 16Z" fill="#ED2B2E"/>
<path fill-rule="evenodd" clip-rule="evenodd" d="M1 6C1 5.30964 1.55964 4.75 2.25 4.75H22.75C23.4404 4.75 24 5.30964 24 6C24 6.69036 23.4404 7.25 22.75 7.25H2.25C1.55964 7.25 1 6.69036 1 6Z" fill="black"/>
</svg>
