<svg width="15" height="12" viewBox="0 0 15 12" fill="none" xmlns="http://www.w3.org/2000/svg">
<path d="M13.5938 0.75H1.40625C1.01562 0.75 0.683594 0.886719 0.410156 1.16016C0.136719 1.43359 0 1.76563 0 2.15625V10.5938C0 10.9844 0.136719 11.3164 0.410156 11.5898C0.683594 11.8633 1.01562 12 1.40625 12H13.5938C13.9844 12 14.3164 11.8633 14.5898 11.5898C14.8633 11.3164 15 10.9844 15 10.5938V2.15625C15 1.76563 14.8633 1.43359 14.5898 1.16016C14.3164 0.886719 13.9844 0.75 13.5938 0.75ZM13.5938 2.15625V3.35742C12.9102 3.92383 11.5918 4.95898 9.63867 6.46289L9.375 6.69727C8.98438 7.0293 8.67188 7.26367 8.4375 7.40039C8.06641 7.6543 7.75391 7.78125 7.5 7.78125C7.24609 7.78125 6.93359 7.6543 6.5625 7.40039C6.32812 7.26367 6.01562 7.0293 5.625 6.69727L5.36133 6.46289C3.4082 4.93945 2.08984 3.9043 1.40625 3.35742V2.15625H13.5938ZM1.40625 10.5938V5.14453L4.77539 7.83984C5.2832 8.25 5.68359 8.54297 5.97656 8.71875C6.52344 9.03125 7.03125 9.1875 7.5 9.1875C7.96875 9.1875 8.4668 9.03125 8.99414 8.71875C9.30664 8.54297 9.70703 8.25 10.1953 7.83984L13.5938 5.14453V10.5938H1.40625Z" fill="#C5D0DE"/>
</svg>
