<svg width="60" height="56" viewBox="0 0 60 56" fill="none" xmlns="http://www.w3.org/2000/svg">
<path fill-rule="evenodd" clip-rule="evenodd" d="M5.23801 42.1266C3.91024 43.1161 3.22586 44.3324 3.22586 45.5019V51.3605C3.22586 51.5421 3.22675 51.74 3.24985 51.9545C3.2734 52.1732 3.31493 52.3519 3.36863 52.4812C3.39387 52.5419 3.41693 52.5798 3.43289 52.6016C3.44764 52.6217 3.45638 52.6282 3.45885 52.63C3.46021 52.631 3.47161 52.6397 3.50531 52.6499C3.54102 52.6607 3.61505 52.6769 3.74194 52.6769H15.8061C16.4647 52.6769 16.6794 52.4719 16.7689 52.3611C16.906 52.1913 17.0318 51.8638 17.0318 51.3605V45.5019C17.0318 44.3324 16.3474 43.1161 15.0197 42.1266C13.7 41.143 11.9087 40.5239 10.1288 40.5239C8.34893 40.5239 6.55766 41.143 5.23801 42.1266ZM3.31035 39.5401C5.18415 38.1436 7.6508 37.2981 10.1288 37.2981C12.6069 37.2981 15.0735 38.1436 16.9473 39.5401C18.813 40.9306 20.2576 43.0098 20.2576 45.5019V51.3605C20.2576 52.3219 20.0285 53.459 19.2786 54.3877C18.481 55.3753 17.2764 55.9027 15.8061 55.9027H3.74194C2.91794 55.9027 2.17526 55.6845 1.56341 55.2402C0.964463 54.8052 0.6048 54.2367 0.389561 53.7184C-0.00212405 52.7753 -0.000538802 51.7716 5.03149e-05 51.3985C7.16953e-05 51.385 9.16915e-05 51.3723 9.16915e-05 51.3605V45.5019C9.16915e-05 43.0098 1.44467 40.9306 3.31035 39.5401Z" fill="white"/>
<path fill-rule="evenodd" clip-rule="evenodd" d="M9.42107 33.489C11.0721 33.489 12.5822 32.0788 12.5822 30.1239C12.5822 28.169 11.0721 26.7587 9.42107 26.7587C7.77009 26.7587 6.25994 28.169 6.25994 30.1239C6.25994 32.0788 7.77009 33.489 9.42107 33.489ZM9.42107 36.7148C12.9485 36.7148 15.808 33.764 15.808 30.1239C15.808 26.4838 12.9485 23.533 9.42107 23.533C5.89369 23.533 3.03418 26.4838 3.03418 30.1239C3.03418 33.764 5.89369 36.7148 9.42107 36.7148Z" fill="white"/>
<path fill-rule="evenodd" clip-rule="evenodd" d="M44.9804 42.1266C43.6527 43.1161 42.9683 44.3324 42.9683 45.5019V51.3605C42.9683 51.5421 42.9692 51.74 42.9923 51.9545C43.0158 52.1732 43.0574 52.3519 43.1111 52.4812C43.1363 52.5419 43.1594 52.5798 43.1753 52.6016C43.1901 52.6217 43.1988 52.6282 43.2013 52.63C43.2026 52.631 43.214 52.6397 43.2477 52.6499C43.2834 52.6607 43.3575 52.6769 43.4844 52.6769H55.5485C56.2072 52.6769 56.4218 52.4719 56.5113 52.3611C56.6485 52.1913 56.7742 51.8638 56.7742 51.3605V45.5019C56.7742 44.3324 56.0898 43.1161 54.7621 42.1266C53.4424 41.143 51.6512 40.5239 49.8713 40.5239C48.0914 40.5239 46.3001 41.143 44.9804 42.1266ZM43.0528 39.5401C44.9266 38.1436 47.3932 37.2981 49.8713 37.2981C52.3493 37.2981 54.8159 38.1436 56.6897 39.5401C58.5554 40.9306 60 43.0098 60 45.5019V51.3605C60 52.3219 59.771 53.459 59.021 54.3877C58.2234 55.3753 57.0188 55.9027 55.5485 55.9027H43.4844C42.6604 55.9027 41.9177 55.6845 41.3058 55.2402C40.7069 54.8052 40.3472 54.2367 40.132 53.7184C39.7403 52.7753 39.7419 51.7716 39.7425 51.3985C39.7425 51.385 39.7425 51.3723 39.7425 51.3605V45.5019C39.7425 43.0098 41.1871 40.9306 43.0528 39.5401Z" fill="white"/>
<path fill-rule="evenodd" clip-rule="evenodd" d="M49.1635 33.489C50.8145 33.489 52.3246 32.0788 52.3246 30.1239C52.3246 28.169 50.8145 26.7587 49.1635 26.7587C47.5125 26.7587 46.0024 28.169 46.0024 30.1239C46.0024 32.0788 47.5125 33.489 49.1635 33.489ZM49.1635 36.7148C52.6909 36.7148 55.5504 33.764 55.5504 30.1239C55.5504 26.4838 52.6909 23.533 49.1635 23.533C45.6361 23.533 42.7766 26.4838 42.7766 30.1239C42.7766 33.764 45.6361 36.7148 49.1635 36.7148Z" fill="white"/>
<path fill-rule="evenodd" clip-rule="evenodd" d="M25.1069 18.6903C23.7791 19.6798 23.0948 20.8961 23.0948 22.0656V27.9242C23.0948 28.1058 23.0956 28.3037 23.1187 28.5182C23.1423 28.7369 23.1838 28.9156 23.2375 29.0449C23.2628 29.1057 23.2858 29.1436 23.3018 29.1653C23.3165 29.1854 23.3253 29.1919 23.3277 29.1937C23.3291 29.1947 23.3405 29.2035 23.3742 29.2136C23.4099 29.2244 23.484 29.2406 23.6108 29.2406H35.675C36.3336 29.2406 36.5483 29.0357 36.6378 28.9248C36.7749 28.755 36.9007 28.4275 36.9007 27.9242V22.0656C36.9007 20.8961 36.2163 19.6798 34.8886 18.6903C33.5689 17.7067 31.7776 17.0876 29.9977 17.0876C28.2178 17.0876 26.4266 17.7067 25.1069 18.6903ZM23.1792 16.1038C25.053 14.7073 27.5197 13.8618 29.9977 13.8618C32.4758 13.8618 34.9424 14.7073 36.8162 16.1038C38.6819 17.4943 40.1265 19.5735 40.1265 22.0656V27.9242C40.1265 28.8856 39.8974 30.0227 39.1475 30.9514C38.3499 31.9391 37.1453 32.4664 35.675 32.4664H23.6108C22.7868 32.4664 22.0442 32.2482 21.4323 31.8039C20.8334 31.3689 20.4737 30.8004 20.2585 30.2821C19.8668 29.339 19.8684 28.3353 19.8689 27.9622C19.869 27.9487 19.869 27.936 19.869 27.9242V22.0656C19.869 19.5735 21.3136 17.4943 23.1792 16.1038Z" fill="white"/>
<path fill-rule="evenodd" clip-rule="evenodd" d="M29.2897 10.0533C30.9407 10.0533 32.4509 8.64298 32.4509 6.68809C32.4509 4.7332 30.9407 3.32293 29.2897 3.32293C27.6387 3.32293 26.1286 4.7332 26.1286 6.68809C26.1286 8.64298 27.6387 10.0533 29.2897 10.0533ZM29.2897 13.279C32.8171 13.279 35.6766 10.3282 35.6766 6.68809C35.6766 3.04803 32.8171 0.097168 29.2897 0.097168C25.7623 0.097168 22.9028 3.04803 22.9028 6.68809C22.9028 10.3282 25.7623 13.279 29.2897 13.279Z" fill="white"/>
</svg>
