<svg width="28" height="26" viewBox="0 0 28 26" fill="none" xmlns="http://www.w3.org/2000/svg">
<path d="M25.0651 8.31934V10.7401L25.1819 11.0256L25.0651 11.073V15.3413L26.675 14.6846L27.0281 15.5486C27.1836 15.9308 27.0084 16.3652 26.6372 16.5172L7.20582 24.4488C6.83816 24.599 6.40154 24.4031 6.24912 24.0307L5.8964 23.1662L20.767 17.0961H10.3114L4.40336 19.5076L3.41899 17.0957H2.43066L5.40267 24.3759C5.66051 25.0076 6.26317 25.4156 6.93875 25.4156C7.14959 25.4156 7.35648 25.3752 7.55239 25.2953L26.9833 17.3636C27.8214 17.021 28.2216 16.052 27.875 15.2025L25.0651 8.31934Z" fill="#78B2FC"/>
<path d="M19.7082 10.6131V10.0249L19.3669 10.6131H19.7082Z" fill="#78B2FC"/>
<path d="M7.91177 10.0249L7.57135 10.6131H7.91177V10.0249Z" fill="#78B2FC"/>
<path d="M10.146 10.867C10.1803 10.8222 10.197 10.7642 10.197 10.6922C10.197 10.6127 10.1777 10.5516 10.1386 10.509C10.0995 10.4664 10.052 10.4453 9.99537 10.4453C9.94969 10.4453 9.90884 10.4594 9.87414 10.487C9.82143 10.5279 9.79507 10.5938 9.79507 10.6847C9.79507 10.7581 9.81484 10.8182 9.85437 10.8644C9.89391 10.9109 9.94442 10.9342 10.005 10.9342C10.0648 10.9342 10.1118 10.9114 10.146 10.867Z" fill="#78B2FC"/>
<path d="M3.93138 14.1697C3.98233 14.1697 4.03021 14.1552 4.0737 14.1249C4.11719 14.0959 4.13959 14.0419 4.14091 13.9624V13.875C4.12553 13.8842 4.1106 13.8921 4.09522 13.8978C4.08029 13.9036 4.05876 13.9084 4.03197 13.9137L3.97838 13.9238C3.92787 13.9321 3.89185 13.9431 3.86945 13.9558C3.83255 13.9773 3.81366 14.0107 3.81366 14.056C3.81366 14.0964 3.82508 14.1245 3.84748 14.1425C3.87076 14.161 3.89888 14.1697 3.93138 14.1697Z" fill="#78B2FC"/>
<path d="M13.2082 10.9326C13.2693 10.9326 13.318 10.9142 13.3527 10.8773C13.3874 10.8404 13.405 10.7877 13.405 10.7209C13.405 10.6515 13.387 10.5983 13.3519 10.5623C13.3158 10.5259 13.2684 10.5083 13.2082 10.5083C13.1481 10.5083 13.1002 10.5263 13.0646 10.5623C13.029 10.5983 13.0114 10.6511 13.0114 10.7209C13.0114 10.7881 13.029 10.8404 13.0637 10.8773C13.0984 10.9142 13.1472 10.9326 13.2082 10.9326Z" fill="#78B2FC"/>
<path d="M6.46081 13.5825C6.40019 13.5825 6.35363 13.5992 6.32025 13.6335C6.28686 13.6677 6.26622 13.7147 6.25787 13.7732H6.66287C6.65891 13.7099 6.63783 13.6629 6.60049 13.6304C6.56272 13.5983 6.51616 13.5825 6.46081 13.5825Z" fill="#78B2FC"/>
<path d="M14.2789 9.96436C14.2332 9.96436 14.1941 9.97709 14.1611 10.0026C14.1097 10.0425 14.0838 10.1111 14.0838 10.2073C14.0838 10.2881 14.1005 10.3487 14.1335 10.3896C14.1664 10.43 14.2169 10.4502 14.285 10.4502C14.3228 10.4502 14.357 10.4396 14.3896 10.4181C14.4506 10.3795 14.4809 10.3114 14.4809 10.216C14.4809 10.1387 14.4633 10.0777 14.4273 10.0324C14.3909 9.98676 14.3417 9.96436 14.2789 9.96436Z" fill="#78B2FC"/>
<path d="M13.2081 10.3022C13.263 10.3022 13.3052 10.2864 13.335 10.2548C13.3645 10.2231 13.3798 10.1832 13.3798 10.1331C13.3798 10.079 13.3645 10.0369 13.335 10.0061C13.3052 9.97538 13.2626 9.96045 13.2081 9.96045C13.1541 9.96045 13.1115 9.97538 13.0811 10.0061C13.0504 10.0369 13.0355 10.079 13.0355 10.1331C13.0355 10.1823 13.0504 10.2231 13.0811 10.2548C13.1115 10.2868 13.1541 10.3022 13.2081 10.3022Z" fill="#78B2FC"/>
<path d="M9.33779 13.9242C9.28772 13.9326 9.25126 13.9436 9.22974 13.9563C9.19284 13.9778 9.17395 14.0112 9.17395 14.0565C9.17395 14.0969 9.18537 14.125 9.20777 14.143C9.23017 14.161 9.25829 14.1702 9.29035 14.1702C9.34175 14.1702 9.38919 14.1557 9.43267 14.1254C9.47616 14.096 9.49856 14.0424 9.49988 13.9629V13.8755C9.48494 13.8847 9.47001 13.8926 9.45419 13.8983C9.43926 13.904 9.41774 13.9089 9.39094 13.9141L9.33779 13.9242Z" fill="#78B2FC"/>
<path d="M13.2864 13.9242C13.2359 13.9322 13.1998 13.9436 13.1779 13.9563C13.141 13.9778 13.1221 14.0112 13.1221 14.0565C13.1221 14.0969 13.1335 14.125 13.1559 14.143C13.1783 14.161 13.2064 14.1702 13.2389 14.1702C13.2899 14.1702 13.3378 14.1557 13.3813 14.1254C13.4247 14.096 13.4472 14.0424 13.4485 13.9629V13.8755C13.4335 13.8847 13.4182 13.8926 13.4028 13.8983C13.3879 13.904 13.3663 13.9089 13.3395 13.9141L13.2864 13.9242Z" fill="#78B2FC"/>
<path d="M15.6283 13.6335C15.5945 13.6677 15.5742 13.7147 15.5655 13.7732H15.9709C15.9665 13.7099 15.945 13.6629 15.9076 13.6304C15.8699 13.5983 15.8237 13.5825 15.7684 13.5825C15.7078 13.5825 15.6612 13.5992 15.6283 13.6335Z" fill="#78B2FC"/>
<path d="M21.8006 10.9342C21.8603 10.9342 21.9069 10.9114 21.9412 10.867C21.9759 10.8222 21.9926 10.7642 21.9926 10.6922C21.9926 10.6127 21.9728 10.5516 21.9337 10.509C21.895 10.4664 21.8476 10.4453 21.7905 10.4453C21.7448 10.4453 21.704 10.4594 21.6697 10.487C21.617 10.5279 21.5906 10.5938 21.5906 10.6847C21.5906 10.7581 21.61 10.8182 21.6499 10.8644C21.6895 10.9109 21.7404 10.9342 21.8006 10.9342Z" fill="#78B2FC"/>
<path d="M2.33206 10.8072C2.35753 10.8902 2.41068 10.9324 2.49019 10.9324C2.56969 10.9324 2.62197 10.8906 2.647 10.8072C2.66853 10.736 2.67863 10.6315 2.68214 10.5059C2.68258 10.4852 2.68478 10.4694 2.68478 10.4474C2.68478 10.2832 2.67248 10.161 2.64788 10.082C2.62328 10.0029 2.57101 9.96338 2.49107 9.96338C2.41112 9.96338 2.35885 10.0025 2.33294 10.082C2.30658 10.161 2.29428 10.2832 2.29428 10.4474C2.29428 10.5283 2.2978 10.599 2.30482 10.66C2.30966 10.7176 2.31888 10.7672 2.33206 10.8072Z" fill="#78B2FC"/>
<path d="M0.956005 16.0937C1.1686 16.1943 1.40405 16.2553 1.65398 16.2553H2.08753H3.07585H12.3705H22.8261H22.8384C23.2847 16.2553 23.6884 16.0739 23.9866 15.7818C24.2968 15.477 24.4922 15.0522 24.4922 14.5804V11.3075V9.33792V6.9163V2.25931C24.4922 1.78755 24.2968 1.36235 23.9866 1.05794C23.688 0.765836 23.2843 0.583984 22.8384 0.583984H1.65442C0.742087 0.583984 0.000183105 1.33599 0.000183105 2.25931V14.5804C0.000183105 15.2499 0.393317 15.8257 0.956005 16.0937ZM2.019 10.4475C2.019 10.2221 2.05414 10.0478 2.12399 9.92564C2.19383 9.80309 2.3155 9.74204 2.48989 9.74204C2.66383 9.74204 2.78595 9.80353 2.85579 9.92564C2.91948 10.0372 2.95067 10.1967 2.95594 10.3935C2.95638 10.4123 2.96077 10.4268 2.96077 10.447C2.96077 10.6724 2.92563 10.8459 2.85579 10.9676C2.78595 11.0892 2.66383 11.1503 2.48989 11.1503C2.31594 11.1503 2.19383 11.0897 2.12399 10.9676C2.09148 10.9113 2.06864 10.8411 2.05107 10.7629C2.03086 10.6719 2.019 10.5683 2.019 10.4475ZM14.8198 4.97786C14.8198 3.73301 15.8336 2.71965 17.0785 2.71965C17.5691 2.71965 18.0211 2.88173 18.3918 3.1488C18.7771 2.84088 19.2589 2.64893 19.7891 2.64893C20.2437 2.64893 20.6659 2.78641 21.0203 3.0201C21.3133 3.21249 21.5514 3.47385 21.7276 3.77738C21.9199 4.10901 22.0385 4.48897 22.0385 4.89924C22.0385 6.1397 21.0291 7.14911 19.7891 7.14911C19.3029 7.14911 18.8557 6.99054 18.4876 6.72742C18.0997 7.04017 17.6144 7.23608 17.0785 7.23608C16.3493 7.23608 15.7075 6.88336 15.2946 6.34615C15.1075 6.10412 14.97 5.82651 14.894 5.52122C14.8497 5.3464 14.8198 5.1663 14.8198 4.97786ZM14.3946 13.6602C14.3744 13.6163 14.3357 13.5952 14.2778 13.5952C14.2101 13.5952 14.1653 13.6167 14.142 13.6602C14.1293 13.6848 14.1236 13.7221 14.1236 13.7709V14.3125H13.8846V13.4138H14.1135V13.5451C14.1425 13.4986 14.1701 13.4652 14.1961 13.4454C14.2417 13.4103 14.3006 13.3923 14.3735 13.3923C14.4416 13.3923 14.4978 13.4067 14.5404 13.4375C14.5738 13.4652 14.6006 13.5016 14.6177 13.546C14.6489 13.4928 14.6867 13.4546 14.7328 13.4292C14.7816 13.4041 14.8352 13.3923 14.8949 13.3923C14.9345 13.3923 14.974 13.4002 15.0122 13.4151C15.0509 13.4309 15.0856 13.4577 15.1167 13.4964C15.1418 13.528 15.1598 13.5662 15.1677 13.6123C15.1734 13.6422 15.176 13.6866 15.176 13.7454L15.1743 14.3129H14.9336V13.7393C14.9336 13.7054 14.9274 13.6773 14.9164 13.6554C14.8958 13.6141 14.8576 13.5926 14.8014 13.5926C14.7359 13.5926 14.6911 13.6198 14.6661 13.6738C14.6538 13.7019 14.6472 13.7371 14.6472 13.7766V14.3129H14.41V13.7766C14.4109 13.7235 14.4056 13.6844 14.3946 13.6602ZM14.4126 10.6232C14.3625 10.6531 14.3006 10.6684 14.2273 10.6684C14.1188 10.6684 14.0226 10.6311 13.9382 10.556C13.8539 10.4809 13.8117 10.3728 13.8117 10.2318C13.8117 10.0855 13.8539 9.9665 13.9387 9.87601C14.023 9.78508 14.1324 9.73984 14.2677 9.73984C14.4759 9.73984 14.6182 9.83164 14.6955 10.0157C14.7399 10.1198 14.7609 10.2573 14.7609 10.4273C14.7609 10.5924 14.7403 10.7299 14.6977 10.8402C14.6169 11.0506 14.4697 11.1556 14.2554 11.1556C14.1526 11.1556 14.0608 11.1253 13.9795 11.0646C13.8978 11.0036 13.8508 10.9153 13.8389 10.7998H14.106C14.1126 10.8397 14.1297 10.8722 14.157 10.8977C14.1842 10.9232 14.2211 10.9351 14.2677 10.9351C14.3555 10.9351 14.4179 10.8863 14.4535 10.7879C14.4732 10.7339 14.4851 10.6557 14.4899 10.5516C14.4666 10.5837 14.4407 10.6069 14.4126 10.6232ZM12.808 10.2472C12.7887 10.1958 12.7786 10.1479 12.7786 10.1035C12.7786 10.0038 12.8159 9.9195 12.8906 9.84921C12.9653 9.77937 13.0711 9.74467 13.2077 9.74467C13.3439 9.74467 13.4498 9.77937 13.5249 9.84921C13.6 9.91906 13.6369 10.0038 13.6369 10.1035C13.6369 10.1479 13.6268 10.1958 13.607 10.2472C13.5877 10.2981 13.5442 10.3425 13.4783 10.3803C13.5455 10.4176 13.5965 10.4677 13.6307 10.5296C13.6646 10.592 13.6821 10.661 13.6821 10.7378C13.6821 10.8529 13.6395 10.9509 13.5543 11.0313C13.4695 11.1116 13.3505 11.152 13.1976 11.152C13.0448 11.152 12.9292 11.1116 12.8506 11.0313C12.772 10.9509 12.7325 10.8529 12.7325 10.7378C12.7325 10.6614 12.75 10.592 12.7847 10.5296C12.8194 10.4677 12.8695 10.4207 12.9363 10.3895C12.8708 10.346 12.8278 10.2986 12.808 10.2472ZM13.4107 13.6009C13.3843 13.5868 13.3465 13.5794 13.296 13.5794C13.2398 13.5794 13.1994 13.5939 13.1765 13.6211C13.1594 13.6413 13.1489 13.669 13.1432 13.7037H12.9156C12.9209 13.6251 12.9429 13.5605 12.982 13.51C13.0443 13.4309 13.1515 13.3909 13.3035 13.3909C13.4023 13.3909 13.4902 13.4107 13.5675 13.4494C13.6444 13.4889 13.6826 13.5627 13.6826 13.6712V14.0841C13.6826 14.1122 13.683 14.1473 13.6843 14.1882C13.6861 14.2185 13.6909 14.2396 13.6984 14.251C13.7063 14.2615 13.7177 14.2712 13.7335 14.2787V14.3129H13.4774C13.47 14.2945 13.4656 14.2778 13.4629 14.2615C13.4603 14.2457 13.4577 14.2277 13.4564 14.2071C13.4234 14.2427 13.3861 14.2725 13.3435 14.2971C13.293 14.3266 13.235 14.3415 13.1704 14.3415C13.0883 14.3415 13.0206 14.3178 12.9675 14.2721C12.9139 14.2255 12.8871 14.1596 12.8871 14.0744C12.8871 13.9637 12.9301 13.8838 13.0162 13.8341C13.0632 13.8069 13.1331 13.7885 13.2244 13.7766L13.3048 13.7669C13.3487 13.7608 13.3799 13.7546 13.3993 13.7463C13.4331 13.7322 13.4498 13.7098 13.4498 13.6795C13.4493 13.6404 13.4362 13.6145 13.4107 13.6009ZM12.4689 13.6558C12.4461 13.6097 12.4021 13.5864 12.3384 13.5864C12.2589 13.5864 12.2049 13.6202 12.175 13.6879C12.1597 13.7235 12.1522 13.7691 12.1522 13.8249V14.3121H11.9163V13.4133H12.1443V13.5447C12.1742 13.499 12.2027 13.4647 12.2295 13.445C12.2774 13.4085 12.3393 13.3905 12.4131 13.3905C12.5058 13.3905 12.5814 13.4147 12.6402 13.4639C12.6995 13.5122 12.7289 13.5934 12.7289 13.7059V14.3125H12.4878V13.7652C12.4878 13.7177 12.4821 13.6813 12.4689 13.6558ZM11.1612 14.1328C11.1709 14.1421 11.199 14.146 11.2473 14.146C11.2548 14.146 11.2623 14.146 11.2706 14.146C11.2785 14.1451 11.2864 14.1451 11.2943 14.1443V14.3204L11.1828 14.3244C11.0716 14.3279 10.9956 14.3085 10.9548 14.2668C10.9284 14.2396 10.9148 14.1979 10.9148 14.1416V13.5873H10.7892V13.4204H10.9148V13.1687H11.1481V13.4204H11.2943V13.5873H11.1481V14.0634C11.1472 14.1008 11.1516 14.1236 11.1612 14.1328ZM11.2074 10.505C11.1691 10.5894 11.1344 10.6935 11.1033 10.8156C11.0725 10.9377 11.0571 11.0387 11.0571 11.1173H10.7787C10.787 10.8722 10.8674 10.6184 11.0198 10.3535C11.1186 10.1896 11.2012 10.0754 11.2675 10.0109H10.5871L10.5906 9.76971H11.5548V9.98011C11.5144 10.0192 11.4586 10.0899 11.387 10.1914C11.3154 10.292 11.2552 10.3965 11.2074 10.505ZM7.37134 10.823V10.5889L7.87341 9.76048H8.17518V10.6135H8.32936V10.8235H8.17474V11.1173H7.91206V10.8235L7.37134 10.823ZM7.98542 13.0949H8.23975V14.0933H8.84812V14.3125H7.98542V13.0949ZM8.58325 11.0479C8.50023 10.9781 8.45323 10.8793 8.444 10.7514H8.71107C8.72161 10.8099 8.74226 10.8547 8.77213 10.8863C8.802 10.9179 8.84548 10.9337 8.90303 10.9337C8.96935 10.9337 9.02031 10.91 9.05501 10.8635C9.09015 10.8173 9.10728 10.758 9.10728 10.6873C9.10728 10.6179 9.09059 10.5586 9.05852 10.5107C9.02602 10.4629 8.97507 10.4387 8.9061 10.4387C8.8736 10.4387 8.84505 10.4426 8.82133 10.451C8.77916 10.4659 8.74753 10.494 8.72601 10.5345L8.48529 10.523L8.58105 9.76883H9.33218V9.9968H8.77433L8.72557 10.2951C8.7673 10.2678 8.79892 10.2498 8.82264 10.2415C8.8613 10.227 8.90874 10.2199 8.96452 10.2199C9.07741 10.2199 9.17581 10.2577 9.2597 10.3337C9.3436 10.4097 9.38533 10.5195 9.38533 10.6649C9.38533 10.791 9.34448 10.9034 9.2641 11.0031C9.18327 11.1024 9.06248 11.1516 8.90083 11.1516C8.77301 11.1525 8.66627 11.1178 8.58325 11.0479ZM9.4622 13.6009C9.43584 13.5868 9.39807 13.5794 9.34799 13.5794C9.29177 13.5794 9.25136 13.5939 9.22808 13.6211C9.21095 13.6413 9.19996 13.669 9.19469 13.7037H8.9676C8.97287 13.6251 8.99483 13.5605 9.03393 13.51C9.0963 13.4309 9.20392 13.3909 9.35546 13.3909C9.45429 13.3909 9.54214 13.4107 9.61945 13.4494C9.69632 13.4889 9.73498 13.5627 9.73498 13.6712V14.0841C9.73498 14.1122 9.73542 14.1473 9.73674 14.1882C9.73849 14.2185 9.74332 14.2396 9.75079 14.251C9.7587 14.2615 9.77012 14.2712 9.78593 14.2787V14.3129H9.52985C9.52282 14.2945 9.51799 14.2778 9.51491 14.2615C9.51227 14.2457 9.51008 14.2277 9.50876 14.2071C9.47626 14.2427 9.43804 14.2725 9.39587 14.2971C9.34492 14.3266 9.28738 14.3415 9.22281 14.3415C9.14067 14.3415 9.07302 14.3178 9.01943 14.2721C8.96584 14.2255 8.93949 14.1596 8.93949 14.0744C8.93949 13.9637 8.98253 13.8838 9.06863 13.8341C9.11563 13.8069 9.18547 13.7885 9.27683 13.7766L9.35766 13.7669C9.40158 13.7608 9.43277 13.7546 9.45166 13.7463C9.4846 13.73 9.50173 13.7076 9.50173 13.6782C9.50085 13.6404 9.48812 13.6145 9.4622 13.6009ZM9.62077 10.9368C9.55708 10.8244 9.52545 10.6798 9.52545 10.5015C9.52545 10.3974 9.52985 10.3126 9.53863 10.2472C9.55444 10.1308 9.58475 10.0341 9.63 9.95683C9.66865 9.89094 9.72004 9.83779 9.78286 9.79782C9.84567 9.75741 9.92122 9.7372 10.0091 9.7372C10.136 9.7372 10.237 9.76971 10.3126 9.83472C10.3882 9.89973 10.4303 9.98626 10.44 10.0943H10.1734C10.1734 10.0724 10.165 10.0482 10.1474 10.0218C10.1189 9.97923 10.075 9.95771 10.0165 9.95771C9.92913 9.95771 9.86675 10.0065 9.8303 10.1044C9.81009 10.1585 9.79647 10.238 9.78857 10.3438C9.82195 10.3043 9.86061 10.2753 9.90453 10.2573C9.94846 10.2388 9.99853 10.23 10.0552 10.23C10.1764 10.23 10.2757 10.2713 10.353 10.3535C10.4303 10.4361 10.4694 10.541 10.4694 10.6689C10.4694 10.7967 10.4316 10.9087 10.3556 11.0062C10.2797 11.1037 10.1615 11.1525 10.0012 11.1525C9.82942 11.1525 9.70247 11.0809 9.62077 10.9368ZM10.4369 14.0182C10.4149 14.0046 10.3328 13.9809 10.19 13.9475C10.0881 13.9216 10.0161 13.8899 9.97437 13.8522C9.93264 13.8144 9.91156 13.7604 9.91156 13.6905C9.91156 13.6071 9.94406 13.5355 10.0095 13.4757C10.075 13.416 10.1672 13.3857 10.2854 13.3857C10.3978 13.3857 10.4896 13.4081 10.5603 13.4533C10.6315 13.4986 10.6719 13.575 10.6825 13.6852H10.447C10.4439 13.6558 10.4352 13.6312 10.4215 13.6136C10.3952 13.582 10.3513 13.5662 10.2893 13.5662C10.2379 13.5662 10.2015 13.5745 10.1795 13.5899C10.1575 13.6062 10.1466 13.6251 10.1466 13.6466C10.1466 13.6738 10.1584 13.6931 10.1813 13.705C10.2045 13.7177 10.2862 13.7393 10.4268 13.77C10.5208 13.7924 10.5911 13.8254 10.6376 13.8706C10.6838 13.9158 10.7075 13.9716 10.7075 14.0397C10.7075 14.1289 10.6737 14.2014 10.6073 14.258C10.541 14.3143 10.4378 14.3424 10.299 14.3424C10.1571 14.3424 10.0521 14.3129 9.98492 14.2528C9.91727 14.193 9.88345 14.117 9.88345 14.0243H10.1224C10.1277 14.0661 10.1382 14.0955 10.1549 14.1131C10.1839 14.1451 10.2384 14.1605 10.3179 14.1605C10.3644 14.1605 10.4013 14.1535 10.4286 14.1399C10.4558 14.1267 10.4699 14.1056 10.4699 14.0779C10.4699 14.0529 10.4593 14.0323 10.4369 14.0182ZM6.34568 14.1188C6.38214 14.1412 6.42474 14.1526 6.4757 14.1526C6.52929 14.1526 6.57277 14.139 6.6066 14.1113C6.62504 14.0968 6.64086 14.0757 6.65491 14.0485H6.89519C6.8886 14.1021 6.85961 14.1561 6.80734 14.2115C6.72695 14.2989 6.61406 14.3428 6.46867 14.3428C6.34875 14.3428 6.24289 14.3059 6.15153 14.2321C6.06016 14.1583 6.01404 14.0384 6.01404 13.8719C6.01404 13.716 6.05533 13.5965 6.13835 13.5131C6.22093 13.4305 6.32811 13.3887 6.46032 13.3887C6.53851 13.3887 6.60923 13.4028 6.67205 13.4309C6.73486 13.4581 6.78669 13.5029 6.82754 13.564C6.86444 13.6176 6.88816 13.68 6.89958 13.7498C6.90617 13.792 6.9088 13.8513 6.90749 13.929H6.25168C6.25475 14.0182 6.28682 14.0819 6.34568 14.1188ZM6.12825 10.1176C6.12825 10.1984 6.10453 10.2661 6.05665 10.3214C6.02678 10.3561 5.99515 10.3794 5.96265 10.3921C5.98724 10.3921 6.02195 10.4128 6.06763 10.4554C6.13615 10.5191 6.16997 10.6052 6.16997 10.7154C6.16997 10.8305 6.13 10.9324 6.05006 11.0203C5.97011 11.1077 5.85151 11.1512 5.69514 11.1512C5.50231 11.1512 5.36789 11.0879 5.29234 10.9619C5.25281 10.8946 5.23085 10.8064 5.22645 10.6983H5.49001C5.49001 10.7528 5.49879 10.798 5.51592 10.8336C5.54843 10.8995 5.60773 10.9324 5.69382 10.9324C5.74609 10.9324 5.79221 10.9144 5.83131 10.8784C5.8704 10.8419 5.88973 10.7905 5.88973 10.7225C5.88973 10.6324 5.85327 10.5727 5.78079 10.5428C5.7395 10.5257 5.67406 10.5169 5.58533 10.5169V10.3245C5.6723 10.3232 5.73335 10.3148 5.76762 10.2986C5.80803 10.2806 5.82955 10.2454 5.84273 10.2024C5.84888 10.1822 5.85722 10.1642 5.85722 10.1382C5.85722 10.0864 5.84185 10.0442 5.81198 10.0113C5.78123 9.9788 5.73863 9.9621 5.68372 9.9621C5.62047 9.9621 5.5739 9.98231 5.54404 10.0227C5.51417 10.0627 5.49967 10.1163 5.50143 10.1839H5.25105C5.25325 10.1163 5.26555 10.0517 5.28619 9.99109C5.30815 9.9375 5.34242 9.88875 5.38942 9.84307C5.42456 9.811 5.46629 9.78684 5.51417 9.76971C5.56248 9.75258 5.62178 9.74423 5.69206 9.74423C5.82252 9.74423 5.92795 9.77806 6.00789 9.84526C6.08081 9.90676 6.11551 9.98934 6.12254 10.0886C6.12385 10.0996 6.12825 10.1071 6.12825 10.1176ZM5.60948 13.6549C5.5884 13.6136 5.55018 13.5921 5.49352 13.5921C5.42851 13.5921 5.38371 13.6193 5.35911 13.6734C5.34637 13.7015 5.33978 13.7366 5.33978 13.7762V14.3125H5.10302V13.7762C5.10302 13.7226 5.09731 13.6835 5.08633 13.6598C5.06656 13.6158 5.02791 13.5948 4.96993 13.5948C4.90272 13.5948 4.85792 13.6163 4.8342 13.6598C4.82146 13.6844 4.81575 13.7217 4.81575 13.7705V14.3121H4.57679V13.4133H4.80565V13.5447C4.83464 13.4981 4.86231 13.4647 4.88823 13.445C4.93391 13.4098 4.99321 13.3918 5.06568 13.3918C5.13421 13.3918 5.19043 13.4063 5.2326 13.4371C5.26686 13.4647 5.29278 13.5012 5.30991 13.5456C5.3411 13.4924 5.37931 13.4542 5.42456 13.4287C5.47288 13.4037 5.5269 13.3918 5.58664 13.3918C5.62662 13.3918 5.66571 13.3997 5.70392 13.4147C5.74258 13.4305 5.77728 13.4573 5.80891 13.4959C5.83394 13.5275 5.85151 13.5658 5.85986 13.6119C5.86557 13.6418 5.86821 13.6861 5.86821 13.745L5.86645 14.3125H5.6253V13.7388C5.62662 13.7054 5.62047 13.6773 5.60948 13.6549ZM16.5702 10.0293C16.5386 9.99109 16.4921 9.97177 16.4332 9.97177C16.3515 9.97177 16.2961 10.0025 16.2667 10.0631C16.25 10.0987 16.2395 10.1545 16.2364 10.2305H15.9755C15.9799 10.1145 16.0014 10.0205 16.0392 9.94893C16.1108 9.81232 16.2377 9.74467 16.4205 9.74467C16.565 9.74467 16.6801 9.7842 16.7657 9.86459C16.8509 9.94453 16.8935 10.0504 16.8935 10.1826C16.8935 10.2836 16.8632 10.3737 16.803 10.4523C16.7626 10.5046 16.6981 10.5626 16.6076 10.6267L16.5004 10.7031C16.4332 10.7506 16.3866 10.7857 16.362 10.8064C16.3374 10.8279 16.3164 10.8525 16.2992 10.881H16.8953V11.1178H15.9606C15.9623 11.0198 15.9838 10.9302 16.0229 10.8494C16.0616 10.758 16.1516 10.6618 16.2948 10.5599C16.4178 10.4716 16.4986 10.4079 16.5351 10.3693C16.5905 10.31 16.6186 10.2445 16.6186 10.1738C16.6186 10.1154 16.6019 10.0675 16.5702 10.0293ZM15.9794 13.4309C16.0423 13.4581 16.095 13.5029 16.1349 13.564C16.1723 13.6176 16.196 13.68 16.2074 13.7498C16.2136 13.792 16.2166 13.8513 16.2144 13.929H15.5586C15.5622 14.0186 15.5938 14.0828 15.6531 14.1192C15.6891 14.1416 15.7321 14.153 15.7831 14.153C15.8367 14.153 15.8802 14.1394 15.914 14.1118C15.9324 14.0973 15.9483 14.0762 15.9628 14.0489H16.2026C16.196 14.1025 16.1674 14.1566 16.1156 14.2119C16.0348 14.2993 15.9219 14.3432 15.7769 14.3432C15.6575 14.3432 15.5512 14.3063 15.4598 14.2326C15.3684 14.1588 15.3228 14.0388 15.3228 13.8724C15.3228 13.7164 15.364 13.5969 15.4466 13.5135C15.5292 13.4309 15.6368 13.3892 15.769 13.3892C15.8468 13.3887 15.9175 13.4028 15.9794 13.4309ZM15.5573 11.1169H15.2819V10.1751H14.9612V9.99241C15.046 9.9889 15.1053 9.98275 15.1387 9.97528C15.1927 9.96342 15.2367 9.9397 15.27 9.90412C15.2938 9.87952 15.3109 9.84702 15.3228 9.80617C15.3298 9.78157 15.3329 9.76356 15.3329 9.7517H15.5573V11.1169ZM18.6501 10.5424C18.6088 10.5252 18.5434 10.5164 18.4547 10.5164V10.324C18.5412 10.3227 18.6027 10.3144 18.6369 10.2981C18.6967 10.2713 18.7266 10.2186 18.7266 10.1378C18.7266 10.086 18.7112 10.0438 18.6809 10.0109C18.6506 9.97836 18.6075 9.96166 18.553 9.96166C18.4894 9.96166 18.4432 9.98187 18.4134 10.0223C18.3839 10.0623 18.369 10.1158 18.3708 10.1835H18.1208C18.1226 10.1158 18.1349 10.0513 18.1555 9.99065C18.177 9.93707 18.2122 9.88831 18.2587 9.84263C18.2939 9.81056 18.3356 9.7864 18.3835 9.76927C18.4318 9.75214 18.4911 9.74379 18.561 9.74379C18.6914 9.74379 18.7968 9.77762 18.8777 9.84482C18.9572 9.91203 18.9971 10.0025 18.9971 10.1167C18.9971 10.1971 18.9725 10.2652 18.9255 10.3201C18.8952 10.3552 18.8636 10.3785 18.8311 10.3908C18.8561 10.3908 18.8908 10.4119 18.937 10.4541C19.0055 10.5178 19.0393 10.6043 19.0393 10.7141C19.0393 10.8292 18.9993 10.9307 18.9194 11.0185C18.8394 11.1059 18.7208 11.1499 18.564 11.1499C18.3712 11.1499 18.2363 11.0866 18.1617 10.9601C18.1217 10.8933 18.1002 10.805 18.0962 10.6965H18.3593C18.3593 10.7514 18.3681 10.7963 18.3861 10.8323C18.4182 10.8982 18.4779 10.9311 18.5631 10.9311C18.6154 10.9311 18.6615 10.9131 18.7006 10.8771C18.7397 10.8406 18.7595 10.7892 18.7595 10.7211C18.7591 10.6324 18.7222 10.5727 18.6501 10.5424ZM20.1251 10.6131V10.823H19.9701V11.1169H19.7074V10.823H19.1676V10.5885L19.6692 9.76005H19.9714V10.6131H20.1251ZM20.8547 10.5107C20.8227 10.4629 20.7717 10.4387 20.7023 10.4387C20.6698 10.4387 20.6413 10.4426 20.618 10.451C20.5758 10.4659 20.5438 10.494 20.5222 10.5345L20.282 10.523L20.3777 9.76883H21.1293V9.9968H20.571L20.5222 10.2951C20.564 10.2678 20.5956 10.2498 20.6189 10.2415C20.6584 10.227 20.705 10.2199 20.7607 10.2199C20.8741 10.2199 20.972 10.2577 21.0559 10.3337C21.1398 10.4097 21.1816 10.5195 21.1816 10.6649C21.1816 10.791 21.1411 10.9034 21.0608 11.0031C20.9804 11.1029 20.8591 11.1516 20.6975 11.1516C20.5675 11.1516 20.4607 11.1169 20.3777 11.0475C20.2947 10.9777 20.2473 10.8793 20.238 10.751H20.5051C20.5156 10.8094 20.5363 10.8542 20.5666 10.8859C20.5969 10.9175 20.6408 10.9333 20.6979 10.9333C20.7647 10.9333 20.8152 10.9096 20.8504 10.863C20.8846 10.8165 20.9022 10.7572 20.9022 10.6864C20.9039 10.6179 20.8868 10.5586 20.8547 10.5107ZM22.2366 10.0952H21.9696C21.9696 10.0732 21.9608 10.0491 21.9437 10.0227C21.9151 9.98011 21.8712 9.95859 21.8128 9.95859C21.7254 9.95859 21.6625 10.0073 21.6261 10.1053C21.6063 10.1593 21.5923 10.2388 21.5848 10.3447C21.6177 10.3052 21.6564 10.2762 21.7003 10.2582C21.7442 10.2397 21.7952 10.2305 21.8514 10.2305C21.9718 10.2305 22.0715 10.2718 22.1492 10.3544C22.2265 10.4369 22.2656 10.5419 22.2656 10.6693C22.2656 10.7971 22.2274 10.9091 22.1514 11.0067C22.0754 11.1042 21.9577 11.1529 21.797 11.1529C21.6252 11.1529 21.4983 11.0809 21.417 10.9373C21.3529 10.8248 21.3217 10.6803 21.3217 10.5019C21.3217 10.3978 21.3265 10.3131 21.3349 10.2476C21.3502 10.1312 21.381 10.035 21.4262 9.95727C21.4653 9.89138 21.5163 9.83823 21.5795 9.79826C21.6423 9.75785 21.7179 9.73764 21.8062 9.73764C21.9327 9.73764 22.0342 9.77015 22.1093 9.83516C22.1844 9.90061 22.2265 9.98714 22.2366 10.0952ZM4.62423 9.74467C4.76919 9.74467 4.88383 9.7842 4.96949 9.86459C5.05514 9.94453 5.09775 10.0504 5.09775 10.1826C5.09775 10.2836 5.06788 10.3737 5.00726 10.4523C4.96817 10.5037 4.90404 10.5608 4.81531 10.6236C4.81399 10.6245 4.81311 10.6254 4.8118 10.6263L4.70418 10.7027C4.63697 10.7501 4.59085 10.7853 4.56581 10.8059C4.54121 10.8274 4.52013 10.852 4.503 10.8806H5.09907V11.1173H4.16389C4.16609 11.026 4.18629 10.943 4.22056 10.8661C4.22275 10.8604 4.22407 10.8542 4.22671 10.8485C4.26492 10.7572 4.35497 10.661 4.49817 10.5591C4.6216 10.4708 4.70198 10.4071 4.738 10.3684C4.79379 10.3091 4.8219 10.2437 4.8219 10.1729C4.8219 10.1154 4.80565 10.0671 4.77402 10.0289C4.74239 9.99065 4.69627 9.97133 4.63697 9.97133C4.55527 9.97133 4.49992 10.0021 4.47049 10.0627C4.45336 10.0983 4.44326 10.1541 4.44062 10.23H4.17927C4.18366 10.1141 4.20474 10.0201 4.24252 9.94849C4.27371 9.88919 4.32027 9.84834 4.37254 9.81495C4.39714 9.79958 4.42657 9.79123 4.45512 9.78113C4.50651 9.764 4.55747 9.74467 4.62423 9.74467ZM2.67042 14.3125H2.43366V13.0949H2.70029L3.18347 13.944V13.0949H3.42067V14.3125H3.16634L2.6713 13.4485V14.3125H2.67042ZM3.48656 11.1169V10.1773V10.1751H3.16502V9.99241C3.2498 9.9889 3.30866 9.98275 3.34248 9.97528C3.39651 9.96342 3.44044 9.9397 3.47382 9.90412C3.4971 9.87952 3.51423 9.84702 3.52609 9.80617C3.53312 9.78157 3.53663 9.76356 3.53663 9.7517H3.76109V10.0658V11.0541V11.1173H3.60604L3.48656 11.1169ZM2.60409 6.85041V5.98156H3.47646V6.87018H2.60629C2.60629 6.86315 2.60409 6.857 2.60409 6.85041ZM3.47646 8.01181C3.12857 7.9077 2.84393 7.65733 2.70249 7.32744H3.47646V8.01181ZM3.93372 7.32744H4.68792V8.06759H3.93372V7.32744ZM5.14519 7.32744H5.9196C5.77816 7.65733 5.49308 7.9077 5.14519 8.01181V7.32744ZM6.01755 6.85041C6.01755 6.85744 6.0158 6.86315 6.0158 6.87018H5.14607V5.98156H6.01799L6.01755 6.85041ZM4.91678 5.52386L4.68792 5.5243V6.86974H3.93372V4.65369H4.80037C5.34988 4.65369 5.81022 5.02223 5.96089 5.52342H4.91678V5.52386ZM3.47646 5.52386H2.66076C2.77848 5.13248 3.08464 4.8272 3.47646 4.70992V5.52386ZM3.70794 13.8328C3.75494 13.806 3.82479 13.7867 3.91615 13.7753L3.99697 13.7652C4.0409 13.7595 4.07165 13.7533 4.09098 13.7445C4.1248 13.73 4.14193 13.7076 4.14193 13.6782C4.14193 13.6409 4.12919 13.6158 4.10327 13.6013C4.07692 13.5873 4.03914 13.5798 3.98907 13.5798C3.93284 13.5798 3.89243 13.5943 3.86915 13.6215C3.85202 13.6418 3.84148 13.6694 3.83577 13.7041H3.60867C3.6135 13.6255 3.63591 13.5609 3.675 13.5104C3.73737 13.4313 3.84499 13.3914 3.99654 13.3914C4.09537 13.3914 4.18322 13.4111 4.26053 13.4498C4.3374 13.4893 4.37605 13.5631 4.37605 13.6716V14.0845C4.37605 14.1126 4.37649 14.1478 4.37781 14.1886C4.37957 14.2189 4.38396 14.2405 4.39187 14.2514C4.39977 14.262 4.41075 14.2716 4.42657 14.2791V14.3134H4.17048C4.16301 14.2949 4.15862 14.2782 4.15599 14.262C4.15335 14.2462 4.15115 14.2282 4.1494 14.2075C4.11689 14.2431 4.07868 14.273 4.03651 14.2976C3.98555 14.327 3.92801 14.3419 3.86344 14.3419C3.7813 14.3419 3.71365 14.3182 3.66007 14.2725C3.60648 14.226 3.58012 14.1601 3.58012 14.0749C3.57924 13.9624 3.62229 13.882 3.70794 13.8328Z" fill="#78B2FC"/>
<path d="M15.7358 6.16551C16.0652 6.53843 16.5423 6.77827 17.0781 6.77827C17.4616 6.77827 17.8157 6.65572 18.1082 6.4497H18.1662H18.4671H18.5075H18.7754H18.8646C18.8703 6.44531 18.8738 6.43916 18.88 6.43477C19.0021 6.33682 19.1141 6.227 19.2099 6.10269H19.0232H18.7649H18.471H18.4688H18.1723H17.8925C17.8394 6.01704 17.7906 5.92743 17.748 5.83431H18.0067H18.2672H18.6516H18.9116H19.1651H19.3825C19.4413 5.72405 19.4897 5.60809 19.527 5.48686H19.2731H19.0346H18.7961H18.1038H17.8644H17.6263C17.6189 5.45918 17.6075 5.43239 17.6013 5.40428C17.5842 5.33312 17.5771 5.25976 17.5684 5.18684H17.7972H18.0261H18.1332H18.858H19.0869H19.3157H19.596C19.6083 5.09724 19.6232 5.00763 19.6232 4.9145C19.6232 4.88903 19.6166 4.86531 19.6149 4.83939H19.3227H19.0939H18.9845H18.865H18.0019H17.7731H17.5442C17.5473 4.74012 17.5587 4.64304 17.5741 4.54773H17.8029H18.0318H18.8202H19.0596H19.292H19.5845C19.5613 4.42737 19.5261 4.31141 19.4826 4.20027H19.1897H18.9516H18.6946H18.1376H18.1284H17.8982H17.6602C17.6949 4.09617 17.7344 3.9969 17.7827 3.90026H18.041H18.301H18.5114H18.7917H18.8642H19.0495H19.3311C19.299 3.84799 19.2564 3.80406 19.2213 3.75487C19.1712 3.68634 19.1264 3.61343 19.0671 3.55237H18.815H18.6177H18.5211H18.2918H18.1662H17.9979C18.0186 3.52514 18.0419 3.49966 18.063 3.47331C17.7796 3.28794 17.4423 3.17725 17.079 3.17725C16.0859 3.17725 15.2781 3.98504 15.2781 4.97776C15.2781 5.10514 15.2921 5.22857 15.3176 5.34805C15.3817 5.65904 15.5324 5.93621 15.7358 6.16551Z" fill="#78B2FC"/>
</svg>
