<svg width="28" height="26" viewBox="0 0 28 26" fill="none" xmlns="http://www.w3.org/2000/svg">
<path d="M26.9304 4.17738L9.77919 0.547714C9.05355 0.394193 8.33432 0.86235 8.1808 1.58799L7.85495 3.682L27.6445 7.86979L27.9704 5.77578C28.1239 5.05041 27.656 4.33095 26.9304 4.17738Z" fill="#FDD574"/>
<path d="M19.7229 8.31391C19.5225 7.59248 18.7686 7.16606 18.0474 7.36607L14.7915 8.26994L7.11585 6.64551L6.27169 10.6341L0.997367 12.098C0.27621 12.298 -0.150215 13.052 0.0497962 13.7732L3.02219 24.4843C3.22252 25.2054 3.97649 25.6321 4.69764 25.4318L21.7477 20.7002C22.4688 20.4999 22.8953 19.7463 22.6953 19.0248L22.1851 17.186L24.0973 17.5903C24.8229 17.7441 25.5421 17.2759 25.6957 16.5503L26.9055 10.8333L20.0176 9.37579L19.7229 8.31391ZM21.6919 13.7577L22.1136 11.7649C22.1769 11.4665 22.4728 11.274 22.7711 11.337L24.764 11.7589C25.0627 11.8223 25.2551 12.1178 25.1921 12.4165L24.7705 14.4094C24.7071 14.7078 24.4113 14.9005 24.1129 14.8372L22.12 14.4156C21.8211 14.352 21.6286 14.0561 21.6919 13.7577ZM1.29407 13.1669L6.01247 11.8579L17.1455 8.76839L18.3435 8.43554C18.3654 8.42964 18.3872 8.42685 18.4085 8.42685C18.5046 8.42685 18.6195 8.4899 18.6531 8.61066L18.7938 9.11721L19.2345 10.7052L1.70031 15.571L1.11895 13.4767C1.08252 13.3453 1.16269 13.2033 1.29407 13.1669ZM21.6261 19.3212C21.6485 19.4024 21.625 19.4697 21.6011 19.5117C21.5776 19.5537 21.5322 19.6087 21.4509 19.631L4.40122 24.3626C4.37966 24.3685 4.35752 24.3716 4.33619 24.3716C4.2401 24.3716 4.1252 24.3083 4.09161 24.1875L2.35791 17.9399L19.8921 13.0738L20.9615 16.9271L21.6261 19.3212Z" fill="#FDD574"/>
<path d="M7.1582 19.7488C7.07638 19.4546 6.7693 19.2809 6.47511 19.3624L4.48392 19.9152C4.19002 19.9967 4.01604 20.3041 4.09786 20.5983L4.65035 22.5892C4.73217 22.8834 5.03925 23.0571 5.33343 22.9752L7.32462 22.4227C7.61881 22.3412 7.79251 22.0338 7.71096 21.7397L7.1582 19.7488Z" fill="#FDD574"/>
</svg>
