<svg width="27" height="26" viewBox="0 0 27 26" fill="none" xmlns="http://www.w3.org/2000/svg">
<path d="M23.8955 25.002H3.61406C1.90225 25.002 0.509766 23.5852 0.509766 21.8435V13.6316H2.5793V17.0006C2.5793 18.6851 3.2525 18.6851 3.61406 18.6851C5.32587 18.6851 6.71836 20.1019 6.71836 21.8435C6.71836 22.4536 7.37115 22.8963 8.2705 22.8963H19.239C20.1384 22.8963 20.7912 22.4536 20.7912 21.8435C20.7912 20.1019 22.1837 18.6851 23.8955 18.6851C24.257 18.6851 24.9302 18.6851 24.9302 17.0006V13.2105C24.9302 11.526 24.257 11.526 23.8955 11.526C22.1837 11.526 20.7912 10.1092 20.7912 8.36756C20.7912 7.75747 20.1384 7.31475 19.239 7.31475H11.53V5.20913H23.8955C25.6073 5.20913 26.9998 6.6259 26.9998 8.36756V21.8435C26.9998 23.5852 25.6073 25.002 23.8955 25.002ZM4.64883 21.8435C4.64883 21.263 4.1846 20.7907 3.61406 20.7907C3.24361 20.7907 2.8972 20.7362 2.5793 20.6314V21.8435C2.5793 22.424 3.04353 22.8963 3.61406 22.8963H4.84062C4.71653 22.5696 4.64883 22.2163 4.64883 21.8435ZM23.8955 7.31475H22.6689C22.793 7.64149 22.8607 7.99476 22.8607 8.36756C22.8607 8.94805 23.3249 9.42037 23.8955 9.42037C24.2659 9.42037 24.6123 9.47486 24.9302 9.57973V8.36756C24.9302 7.78708 24.466 7.31475 23.8955 7.31475ZM23.8955 20.7907C23.3249 20.7907 22.8607 21.263 22.8607 21.8435C22.8607 22.2163 22.793 22.5696 22.6689 22.8963H23.8955C24.466 22.8963 24.9302 22.424 24.9302 21.8435V20.6314C24.6123 20.7362 24.2659 20.7907 23.8955 20.7907ZM21.9811 14.0591C21.4096 14.0591 20.9464 14.5304 20.9464 15.1119C20.9464 15.6934 21.4096 16.1647 21.9811 16.1647C22.5527 16.1647 23.0159 15.6934 23.0159 15.1119C23.0159 14.5304 22.5527 14.0591 21.9811 14.0591ZM5.52838 14.0591C4.95683 14.0591 4.49361 14.5304 4.49361 15.1119C4.49361 15.6934 4.95683 16.1647 5.52838 16.1647C6.09992 16.1647 6.56314 15.6934 6.56314 15.1119C6.56314 14.5304 6.09992 14.0591 5.52838 14.0591ZM0.509766 7.31475H9.46049V5.20913H0.509766V7.31475ZM0.509766 11.526H11.0126V9.42037H0.509766V11.526ZM0.509766 3.10351H7.90834V0.997894H0.509766V3.10351ZM16.9108 15.1119C16.9108 17.1437 15.4951 18.7968 13.7548 18.7968C12.0145 18.7968 10.5987 17.1437 10.5987 15.1119C10.5987 14.5855 10.6945 14.085 10.8655 13.6316H8.7026C8.58963 14.1043 8.5292 14.6005 8.5292 15.1119C8.5292 18.3049 10.8734 20.896 13.7548 20.896C16.6361 20.896 18.9803 18.3049 18.9803 15.1119C18.9803 11.9191 16.6361 9.32146 13.7548 9.32146C13.527 9.32146 13.3025 9.33792 13.0822 9.36938V11.5122C13.299 11.4571 13.524 11.4271 13.7548 11.4271C15.4951 11.4271 16.9108 13.0801 16.9108 15.1119Z" fill="#DA71C4"/>
</svg>
