<svg width="24" height="24" viewBox="0 0 24 24" fill="none" xmlns="http://www.w3.org/2000/svg">
<path fill-rule="evenodd" clip-rule="evenodd" d="M19.7814 4.41406H4.21865C2.69986 4.41406 1.46865 5.64528 1.46865 7.16406V16.8361C1.46865 18.3549 2.69987 19.5861 4.21865 19.5861H19.7814C21.3001 19.5861 22.5314 18.3549 22.5314 16.8361V7.16406C22.5314 5.64528 21.3001 4.41406 19.7814 4.41406ZM4.21865 3.16406C2.00951 3.16406 0.218647 4.95492 0.218647 7.16406V16.8361C0.218647 19.0452 2.00951 20.8361 4.21865 20.8361H19.7814C21.9905 20.8361 23.7814 19.0452 23.7814 16.8361V7.16406C23.7814 4.95492 21.9905 3.16406 19.7814 3.16406H4.21865Z" fill="black"/>
<path fill-rule="evenodd" clip-rule="evenodd" d="M20.5097 17.6797L14.619 17.6797L14.619 16.4297L20.5097 16.4297L20.5097 17.6797Z" fill="#ED2B2E"/>
<path fill-rule="evenodd" clip-rule="evenodd" d="M20.5098 13.4707L2.83779 13.4707L2.83779 12.2207L20.5098 12.2207L20.5098 13.4707Z" fill="#ED2B2E"/>
<path fill-rule="evenodd" clip-rule="evenodd" d="M20.5098 10.9453L2.83779 10.9453L2.83779 9.69531L20.5098 9.69531L20.5098 10.9453Z" fill="#ED2B2E"/>
<path fill-rule="evenodd" clip-rule="evenodd" d="M20.5098 8.42188L2.83779 8.42188L2.83779 7.17188L20.5098 7.17188L20.5098 8.42188Z" fill="#ED2B2E"/>
</svg>
