<svg width="24" height="24" viewBox="0 0 24 24" fill="none" xmlns="http://www.w3.org/2000/svg">
<g clip-path="url(#clip0)">
<path d="M6.38806 19.6122L6.95564 20.1798L8.83115 19.1724C8.92836 19.217 9.02648 19.2601 9.12542 19.3013L9.7821 21.3504H14.2167L14.8248 19.3862C14.9459 19.3397 15.066 19.2906 15.1847 19.2385L17.0431 20.179L20.1784 17.0436L19.258 15.2527C19.3179 15.1197 19.374 14.9852 19.4264 14.8489L21.3499 14.2172V12.6753" stroke="#272A2F" stroke-width="1.5" stroke-linecap="round" stroke-linejoin="round"/>
<path d="M21.35 10.336V9.78372L19.436 9.15095C19.38 9.01527 19.3202 8.88111 19.2567 8.74852L20.1785 6.95726L17.0432 3.82192L15.1903 4.75469C15.0696 4.70631 14.9478 4.66049 14.8248 4.61778L14.2168 2.65039H13.6112" stroke="#272A2F" stroke-width="1.5" stroke-linecap="round" stroke-linejoin="round"/>
<path d="M11.1679 2.65039H9.78215L9.12547 4.69852C9.02743 4.73972 8.93022 4.78327 8.83396 4.82862L6.95571 3.82077L3.82042 6.95611L4.84142 8.89489C4.80702 8.97993 4.77422 9.06504 4.74289 9.15084L2.65002 9.78349V14.2169L4.73331 14.8486C4.76921 14.9333 4.80667 15.0173 4.84556 15.1004L3.82044 17.0443L4.63368 17.8575" stroke="#272A2F" stroke-width="1.5" stroke-linecap="round" stroke-linejoin="round"/>
<path d="M16.6266 12.0002C16.6266 13.0706 16.2555 14.1078 15.5764 14.9353C14.8974 15.7627 13.9524 16.3291 12.9026 16.5379C11.8527 16.7468 10.763 16.5851 9.81896 16.0805C8.87495 15.5759 8.1351 14.7596 7.72548 13.7707C7.31585 12.7817 7.26179 11.6814 7.57251 10.6571C7.88324 9.63281 8.53951 8.74796 9.42952 8.15327C10.3195 7.55859 11.3882 7.2909 12.4534 7.39582C13.5187 7.50074 14.5146 7.97171 15.2715 8.7286" stroke="#ED2B2E" stroke-width="1.5" stroke-linecap="round" stroke-linejoin="round"/>
</g>
<defs>
<clipPath id="clip0">
<rect width="24" height="24" fill="white"/>
</clipPath>
</defs>
</svg>
