<svg width="24" height="24" viewBox="0 0 24 24" fill="none" xmlns="http://www.w3.org/2000/svg">
<path fill-rule="evenodd" clip-rule="evenodd" d="M13.5938 2.24976H10.4062C9.99204 2.24976 9.65625 2.58554 9.65625 2.99976V20.9998C9.65625 21.414 9.99204 21.7498 10.4063 21.7498H13.5938C14.008 21.7498 14.3438 21.414 14.3438 20.9998V2.99976C14.3438 2.58554 14.008 2.24976 13.5938 2.24976ZM10.4062 0.999756C9.30168 0.999756 8.40625 1.89519 8.40625 2.99976V20.9998C8.40625 22.1043 9.30168 22.9998 10.4063 22.9998H13.5938C14.6983 22.9998 15.5938 22.1043 15.5938 20.9998V2.99976C15.5938 1.89519 14.6983 0.999756 13.5938 0.999756H10.4062Z" fill="#ED2B2E"/>
<path fill-rule="evenodd" clip-rule="evenodd" d="M4.96875 13.9832H2.5C2.08579 13.9832 1.75 14.3189 1.75 14.7332V20.9998C1.75 21.414 2.08579 21.7498 2.5 21.7498H4.96875C5.38296 21.7498 5.71875 21.414 5.71875 20.9998V14.7332C5.71875 14.3189 5.38296 13.9832 4.96875 13.9832ZM2.5 12.7332C1.39543 12.7332 0.5 13.6286 0.5 14.7332V20.9998C0.5 22.1044 1.39543 22.9998 2.5 22.9998H4.96875C6.07332 22.9998 6.96875 22.1044 6.96875 20.9998V14.7332C6.96875 13.6286 6.07332 12.7332 4.96875 12.7332H2.5Z" fill="black"/>
<path fill-rule="evenodd" clip-rule="evenodd" d="M21.5 9.58325H19.0312C18.617 9.58325 18.2812 9.91904 18.2812 10.3333V20.9999C18.2812 21.4141 18.617 21.7499 19.0313 21.7499H21.5C21.9142 21.7499 22.25 21.4141 22.25 20.9999V10.3333C22.25 9.91904 21.9142 9.58325 21.5 9.58325ZM19.0312 8.33325C17.9267 8.33325 17.0312 9.22868 17.0312 10.3333V20.9999C17.0312 22.1045 17.9267 22.9999 19.0313 22.9999H21.5C22.6046 22.9999 23.5 22.1045 23.5 20.9999V10.3333C23.5 9.22868 22.6046 8.33325 21.5 8.33325H19.0312Z" fill="black"/>
</svg>
