<svg width="32" height="32" viewBox="0 0 32 32" fill="none" xmlns="http://www.w3.org/2000/svg">
<path d="M23.543 22.1328C23.8477 22.4883 24 22.8945 24 23.3008C24 23.707 23.8477 24.1133 23.543 24.418C23.2383 24.7227 22.832 24.875 22.375 24.875H2.875C2.36719 24.875 2.01172 24.7227 1.70703 24.418C1.40234 24.1133 1.25 23.707 1.25 23.3008C1.25 22.8945 1.40234 22.4883 1.70703 22.1328L1.85938 21.9297C2.62109 21.1172 3.17969 20.3555 3.58594 19.543C4.19531 18.2227 4.5 16.4453 4.5 14.3125C4.5 12.3828 5.10938 10.6562 6.32812 9.18359C7.54688 7.76172 9.07031 6.84766 11 6.44141V5.375C11 4.96875 11.1523 4.5625 11.457 4.25781C11.7617 3.95312 12.168 3.75 12.625 3.75C13.0312 3.75 13.4375 3.95312 13.7422 4.25781C14.0469 4.5625 14.25 4.96875 14.25 5.375V6.44141C16.1289 6.84766 17.7031 7.76172 18.9219 9.18359C20.1406 10.6562 20.75 12.3828 20.75 14.3125C20.75 16.4453 21.0547 18.2227 21.6641 19.543C22.0195 20.3555 22.5781 21.1172 23.3906 21.9297C23.4414 22.0312 23.4922 22.1328 23.543 22.1328ZM4.70312 22.4375H20.5469C19.0234 20.457 18.3125 17.7656 18.3125 14.3633V14.3125C18.3125 13.2969 18.0586 12.3828 17.5508 11.4688C17.043 10.6055 16.332 9.89453 15.4688 9.38672C14.5547 8.87891 13.6406 8.625 12.625 8.625C11.6094 8.625 10.6445 8.87891 9.78125 9.38672C8.86719 9.89453 8.20703 10.6055 7.69922 11.4688C7.19141 12.3828 6.9375 13.2969 6.9375 14.3125V14.3633C6.9375 17.7656 6.17578 20.457 4.70312 22.4375ZM12.625 29.75C11.7109 29.75 10.9492 29.4453 10.3398 28.8359C9.67969 28.2266 9.375 27.4141 9.375 26.5H15.875C15.875 27.4141 15.5195 28.2266 14.9102 28.8359C14.25 29.4453 13.4883 29.75 12.625 29.75Z" fill="black"/>
<circle cx="16" cy="11.5" r="8.25" fill="#ED2B2E" stroke="white" stroke-width="1.5"/>
<path d="M14.4696 8.76V7.44H17.0096V14.5H15.5296V8.76H14.4696Z" fill="white"/>
</svg>
