<svg width="24" height="24" viewBox="0 0 24 24" fill="none" xmlns="http://www.w3.org/2000/svg">
<path fill-rule="evenodd" clip-rule="evenodd" d="M21.75 4.89691H2.25V15.6469C2.25 16.6134 3.0335 17.3969 4 17.3969H20C20.9665 17.3969 21.75 16.6134 21.75 15.6469V4.89691ZM1 3.64691V15.6469C1 17.3038 2.34315 18.6469 4 18.6469H20C21.6569 18.6469 23 17.3038 23 15.6469V3.64691H1Z" fill="black"/>
<path fill-rule="evenodd" clip-rule="evenodd" d="M1.25 1.89691V3.39691H22.75V1.89691H1.25ZM1 0.646912C0.447715 0.646912 0 1.09463 0 1.64691V3.64691C0 4.1992 0.447716 4.64691 1 4.64691H23C23.5523 4.64691 24 4.1992 24 3.64691V1.64691C24 1.09463 23.5523 0.646912 23 0.646912H1Z" fill="black"/>
<path fill-rule="evenodd" clip-rule="evenodd" d="M17.3999 8.77191H15.4082V7.52191H19.5332V11.6469H18.2832V9.65638L14.5173 13.4223L10.0173 10.9223L5.35068 15.5889L4.4668 14.705L9.80015 9.37166L14.3002 11.8717L17.3999 8.77191Z" fill="#ED2B2E"/>
<path fill-rule="evenodd" clip-rule="evenodd" d="M11.7198 17.6088L15.1885 23.3899L14.331 23.9044L11.7996 19.6854L9.70693 23.8707L8.8125 23.4235L11.7198 17.6088Z" fill="black"/>
</svg>
