<svg width="15" height="16" viewBox="0 0 15 16" fill="none" xmlns="http://www.w3.org/2000/svg">
<path d="M15 6.03125C15 6.96875 14.7656 7.83789 14.2969 8.63867C13.8477 9.41992 13.2227 10.0449 12.4219 10.5137C11.6406 10.9629 10.7812 11.1875 9.84375 11.1875C9.51172 11.1875 9.18945 11.1582 8.87695 11.0996L8.17383 11.8906C8.03711 12.0469 7.86133 12.125 7.64648 12.125H6.5625V13.2969C6.5625 13.4922 6.49414 13.6582 6.35742 13.7949C6.2207 13.9316 6.05469 14 5.85938 14H4.6875V15.1719C4.6875 15.3672 4.61914 15.5332 4.48242 15.6699C4.3457 15.8066 4.17969 15.875 3.98438 15.875H0.703125C0.507812 15.875 0.341797 15.8066 0.205078 15.6699C0.0683594 15.5332 0 15.3672 0 15.1719V12.8867C0 12.6914 0.0683594 12.5254 0.205078 12.3887L4.95117 7.64258C4.77539 7.11523 4.6875 6.57812 4.6875 6.03125C4.6875 5.09375 4.91211 4.23438 5.36133 3.45312C5.83008 2.65234 6.45508 2.02734 7.23633 1.57812C8.03711 1.10938 8.90625 0.875 9.84375 0.875C10.7812 0.875 11.6406 1.10938 12.4219 1.57812C13.2227 2.02734 13.8477 2.65234 14.2969 3.45312C14.7656 4.23438 15 5.09375 15 6.03125ZM9.84375 4.625C9.84375 5.01562 9.98047 5.34766 10.2539 5.62109C10.5273 5.89453 10.8594 6.03125 11.25 6.03125C11.6406 6.03125 11.9727 5.89453 12.2461 5.62109C12.5195 5.34766 12.6562 5.01562 12.6562 4.625C12.6562 4.23438 12.5195 3.90234 12.2461 3.62891C11.9727 3.35547 11.6406 3.21875 11.25 3.21875C10.8594 3.21875 10.5273 3.35547 10.2539 3.62891C9.98047 3.90234 9.84375 4.23438 9.84375 4.625Z" fill="#C5D0DE"/>
</svg>
