<svg width="24" height="24" viewBox="0 0 24 24" fill="none" xmlns="http://www.w3.org/2000/svg">
<path fill-rule="evenodd" clip-rule="evenodd" d="M11.9996 6.69427L15.7299 14.1643L22.439 9.9585L18.2706 23.7499H6.04042L1.17383 9.94876L8.2614 14.1802L11.9996 6.69427ZM11.9996 10.0517L8.88091 16.2971L3.96875 13.3644L7.10198 22.2499H17.157L19.8456 13.3547L15.1263 16.313L11.9996 10.0517Z" fill="black"/>
<path d="M13.7135 2.79098C13.7135 3.78015 12.946 4.58203 11.9992 4.58203C11.0524 4.58203 10.2849 3.78015 10.2849 2.79098C10.2849 1.80182 11.0524 0.999939 11.9992 0.999939C12.946 0.999939 13.7135 1.80182 13.7135 2.79098Z" fill="#ED2B2E"/>
<path d="M2.28571 6.96985C2.28571 7.62929 1.77404 8.16388 1.14286 8.16388C0.511675 8.16388 0 7.62929 0 6.96985C0 6.3104 0.511675 5.77582 1.14286 5.77582C1.77404 5.77582 2.28571 6.3104 2.28571 6.96985Z" fill="#ED2B2E"/>
<path d="M24.0001 6.96985C24.0001 7.62929 23.4884 8.16388 22.8572 8.16388C22.226 8.16388 21.7144 7.62929 21.7144 6.96985C21.7144 6.3104 22.226 5.77582 22.8572 5.77582C23.4884 5.77582 24.0001 6.3104 24.0001 6.96985Z" fill="#ED2B2E"/>
</svg>
