<svg width="24" height="24" viewBox="0 0 24 24" fill="none" xmlns="http://www.w3.org/2000/svg">
<path fill-rule="evenodd" clip-rule="evenodd" d="M7.08251 19.5554L7.11133 4.44439L8.36133 4.44678L8.3325 19.5578L7.08251 19.5554Z" fill="#ED2B2E"/>
<path fill-rule="evenodd" clip-rule="evenodd" d="M20.2153 3.55566C20.2153 5.72597 21.9097 7.4855 24 7.48563V16.5149C21.9098 16.515 20.2153 18.2743 20.2153 20.4446H3.78517C3.7851 18.2742 2.09055 16.5149 0.000224113 16.5149L0 7.97687C2.35156 7.97674 4.25783 5.99742 4.25783 3.55582L20.2153 3.55566ZM1.25 9.08113C3.31796 8.58931 4.91242 6.90369 5.37277 4.80566H19.1138C19.556 6.63393 20.946 8.10378 22.75 8.57579V15.4247C20.9461 15.8967 19.5561 17.3664 19.1139 19.1946H4.88659C4.4443 17.3663 3.0541 15.8964 1.25 15.4246V9.08113Z" fill="black"/>
<path fill-rule="evenodd" clip-rule="evenodd" d="M15.5547 14.75C17.0735 14.75 18.3047 13.5188 18.3047 12C18.3047 10.4812 17.0735 9.25 15.5547 9.25C14.0359 9.25 12.8047 10.4812 12.8047 12C12.8047 13.5188 14.0359 14.75 15.5547 14.75ZM15.5547 16C17.7638 16 19.5547 14.2091 19.5547 12C19.5547 9.79086 17.7638 8 15.5547 8C13.3455 8 11.5547 9.79086 11.5547 12C11.5547 14.2091 13.3455 16 15.5547 16Z" fill="#ED2B2E"/>
</svg>

