<svg width="18" height="18" viewBox="0 0 18 18" fill="none" xmlns="http://www.w3.org/2000/svg">
<path d="M6.28125 18L18 6.28125V9.14062L9.14062 18H6.28125ZM18 15.9844C18 16.5156 17.7969 16.9844 17.3906 17.3906C16.9844 17.7969 16.5156 18 15.9844 18H14.0156L18 14.0156V15.9844ZM2.01562 0H3.98438L0 3.98438V2.01562C0 1.48438 0.203125 1.01562 0.609375 0.609375C1.01562 0.203125 1.48438 0 2.01562 0ZM8.85938 0H11.7188L0 11.7188V8.85938L8.85938 0ZM16.5 0.09375C17.2812 0.3125 17.7656 0.78125 17.9531 1.5L1.5 17.9062C0.78125 17.6875 0.3125 17.2188 0.09375 16.5L16.5 0.09375Z" fill="#C5D0DE"/>
</svg>
