<svg width="24" height="24" viewBox="0 0 24 24" fill="none" xmlns="http://www.w3.org/2000/svg">
<path fill-rule="evenodd" clip-rule="evenodd" d="M6.49792 9.52358C4.17466 10.5902 2.5564 12.9788 2.5564 15.7543C2.5564 19.5236 5.54113 22.5793 9.22298 22.5793C12.9048 22.5793 15.8896 19.5236 15.8896 15.7543C15.8896 15.5171 15.8778 15.2828 15.8547 15.0519C15.8423 14.9277 15.8266 14.8045 15.8078 14.6824L19.7724 14.1796C20.6958 14.0046 22.744 13.1821 22.5425 11.2921C22.3411 9.40207 22.1553 8.76878 22.0389 8.40455C21.9224 8.04033 21.5352 7.35449 20.5279 7.35449C19.7677 7.35449 12.9851 8.3115 9.70388 8.78092C8.78364 8.91257 8.13881 9.00587 7.97949 9.02895C7.9717 9.03008 7.96506 9.03104 7.95962 9.03183C7.94741 9.0336 7.94116 9.03451 7.94116 9.03451L7.96334 9.05086C7.95692 9.05211 7.9505 9.05338 7.94409 9.05466C7.93713 9.05604 7.93017 9.05744 7.92322 9.05884C7.42603 9.15943 6.94871 9.31662 6.49792 9.52358ZM8.55458 10.2088L8.2035 10.2776C5.71934 10.7639 3.8064 13.0145 3.8064 15.7543C3.8064 18.8611 6.25901 21.3293 9.22298 21.3293C12.187 21.3293 14.6396 18.8611 14.6396 15.7543C14.6396 15.4535 14.6165 15.1592 14.5724 14.8728L14.3769 13.6039L19.5727 12.9449C19.9003 12.8773 20.4229 12.6917 20.8167 12.3885C21.1897 12.1013 21.3406 11.81 21.2996 11.4246C21.1043 9.59303 20.932 9.04727 20.8483 8.78524C20.8368 8.74957 20.8085 8.69706 20.7739 8.66537C20.7611 8.65369 20.7451 8.64231 20.7191 8.63218C20.6933 8.62214 20.635 8.60449 20.5279 8.60449C20.5337 8.60449 20.5209 8.60442 20.4803 8.60693C20.4429 8.60924 20.3932 8.61301 20.3299 8.61857C20.2032 8.62969 20.0378 8.64658 19.836 8.66902C19.4333 8.71382 18.9063 8.77842 18.2954 8.85683C17.0747 9.01349 15.538 9.22278 14.0289 9.43259C12.5207 9.64229 11.0435 9.85205 9.94315 10.0094C9.39304 10.0881 8.93727 10.1536 8.61908 10.1995L8.55458 10.2088Z" fill="black"/>
<path fill-rule="evenodd" clip-rule="evenodd" d="M9.22203 17.129C9.92025 17.129 10.5361 16.5412 10.5361 15.7539C10.5361 14.9667 9.92025 14.3789 9.22203 14.3789C8.52381 14.3789 7.90796 14.9667 7.90796 15.7539C7.90796 16.5412 8.52381 17.129 9.22203 17.129ZM9.22203 18.379C10.6381 18.379 11.7861 17.2037 11.7861 15.7539C11.7861 14.3042 10.6381 13.1289 9.22203 13.1289C7.80593 13.1289 6.65796 14.3042 6.65796 15.7539C6.65796 17.2037 7.80593 18.379 9.22203 18.379Z" fill="black"/>
<path fill-rule="evenodd" clip-rule="evenodd" d="M9.62751 5.70043C9.28513 5.65661 9.04148 5.34333 9.08332 5.0007L9.44463 2.04144C9.48647 1.69881 9.79794 1.45657 10.1403 1.50039C10.4827 1.5442 10.7264 1.85748 10.6845 2.20011L10.3232 5.15937C10.2814 5.50201 9.9699 5.74424 9.62751 5.70043Z" fill="#ED2B2E"/>
<path fill-rule="evenodd" clip-rule="evenodd" d="M7.0779 6.45929C6.7435 6.54488 6.40603 6.34242 6.32415 6.0071L5.59504 3.02138C5.51316 2.68605 5.71786 2.34484 6.05226 2.25925C6.38666 2.17366 6.72412 2.37612 6.80601 2.71144L7.53511 5.69716C7.617 6.03249 7.41229 6.3737 7.0779 6.45929Z" fill="#ED2B2E"/>
<path fill-rule="evenodd" clip-rule="evenodd" d="M4.05024 7.11365C3.74298 7.27093 3.3711 7.147 3.21962 6.83684L1.71692 3.76C1.56544 3.44983 1.69172 3.07089 1.99899 2.91361C2.30625 2.75633 2.67813 2.88026 2.82961 3.19042L4.33231 6.26726C4.48379 6.57743 4.35751 6.95637 4.05024 7.11365Z" fill="#ED2B2E"/>
</svg>
