<svg width="24" height="18" viewBox="0 0 24 18" fill="none" xmlns="http://www.w3.org/2000/svg">
<path fill-rule="evenodd" clip-rule="evenodd" d="M20.2153 0.555664C20.2153 2.72597 21.9097 4.4855 24 4.48563V13.5149C21.9098 13.515 20.2153 15.2743 20.2153 17.4446H3.78517C3.7851 15.2742 2.09055 13.5149 0.000224113 13.5149L0 4.97687C2.35156 4.97674 4.25783 2.99742 4.25783 0.555819L20.2153 0.555664ZM1.25 6.08113C3.31796 5.58931 4.91242 3.90369 5.37277 1.80566H19.1138C19.556 3.63393 20.946 5.10378 22.75 5.57579V12.4247C20.9461 12.8967 19.5561 14.3664 19.1139 16.1946H4.88659C4.4443 14.3663 3.0541 12.8964 1.25 12.4246V6.08113Z" fill="black"/>
</svg>
