<svg width="24" height="24" viewBox="0 0 24 24" fill="none" xmlns="http://www.w3.org/2000/svg">
<path fill-rule="evenodd" clip-rule="evenodd" d="M16.1348 11.0761L21.1248 15.825V21.9828L16.1348 20.0832V11.0761ZM17.3848 13.9913V19.2215L19.8748 20.1694V16.361L17.3848 13.9913Z" fill="black"/>
<path fill-rule="evenodd" clip-rule="evenodd" d="M7.865 11.4321V20.0832L2.875 21.9828V16.181L7.865 11.4321ZM4.125 16.717V20.1694L6.615 19.2216V14.3473L4.125 16.717Z" fill="black"/>
<path fill-rule="evenodd" clip-rule="evenodd" d="M7.94824 19.0274H16.5004L14.0542 23.1248H9.90527L7.94824 19.0274ZM9.93052 20.2774L10.6935 21.8748H13.3446L14.2983 20.2774H9.93052Z" fill="black"/>
<path fill-rule="evenodd" clip-rule="evenodd" d="M11.6602 19.2966V15.0254H12.9102V19.2966H11.6602Z" fill="#ED2B2E"/>
<path fill-rule="evenodd" clip-rule="evenodd" d="M6.90039 10.0424C6.90039 10.0424 7.24039 7.69325 8.60039 5.41528C9.96039 3.13732 12.0004 1.50003 12.0004 1.50003C12.0004 1.50003 14.0937 3.02134 15.4004 5.41528C16.7071 7.80922 17.1004 10.0424 17.1004 10.0424V20.0085H6.90039V10.0424ZM8.15039 18.7585H15.8504V10.1634C15.8392 10.1091 15.8229 10.0334 15.8009 9.93873C15.7492 9.71611 15.6664 9.38981 15.5448 8.99138C15.3007 8.19124 14.9055 7.11763 14.3032 6.01418C13.7266 4.95793 12.9643 4.07505 12.3311 3.44839C12.2246 3.34303 12.1226 3.24571 12.0268 3.15682C11.9254 3.2548 11.817 3.36217 11.7033 3.47821C11.0636 4.13112 10.2855 5.03123 9.67366 6.05605C9.06374 7.07767 8.67555 8.12889 8.44015 8.93391C8.32323 9.33373 8.246 9.6659 8.19866 9.89391C8.17599 10.003 8.16028 10.0878 8.15039 10.1442V18.7585Z" fill="black"/>
<path fill-rule="evenodd" clip-rule="evenodd" d="M11.9991 11.6398C12.5699 11.6398 13.1291 11.1385 13.1291 10.3983C13.1291 9.65806 12.5699 9.15677 11.9991 9.15677C11.4284 9.15677 10.8691 9.65806 10.8691 10.3983C10.8691 11.1385 11.4284 11.6398 11.9991 11.6398ZM11.9991 12.8898C13.3136 12.8898 14.3791 11.7743 14.3791 10.3983C14.3791 9.02226 13.3136 7.90677 11.9991 7.90677C10.6847 7.90677 9.61914 9.02226 9.61914 10.3983C9.61914 11.7743 10.6847 12.8898 11.9991 12.8898Z" fill="#ED2B2E"/>
</svg>
