<svg width="44" height="42" viewBox="0 0 44 42" fill="none" xmlns="http://www.w3.org/2000/svg">
<path d="M35.7845 10.9758C35.314 8.17996 33.9297 5.62845 31.8125 3.6922C29.46 1.53879 26.4018 0.353516 23.2169 0.353516C20.7559 0.353516 18.3582 1.05925 16.3043 2.3893C14.5943 3.49314 13.1738 4.98605 12.1694 6.74134C11.7351 6.65991 11.2827 6.61467 10.8304 6.61467C6.98499 6.61467 3.85441 9.74525 3.85441 13.5906C3.85441 14.0882 3.9087 14.5678 3.99918 15.0383C1.511 16.8479 0 19.7613 0 22.8647C0 25.371 0.931935 27.8049 2.63294 29.7321C4.37919 31.7045 6.68641 32.8717 9.14744 33.0074C9.17458 33.0074 9.19268 33.0074 9.21982 33.0074H17.001C17.6796 33.0074 18.2225 32.4646 18.2225 31.786C18.2225 31.1074 17.6796 30.5645 17.001 30.5645H9.25601C5.55542 30.3383 2.44294 26.8187 2.44294 22.8557C2.44294 20.2951 3.81822 17.9065 6.03496 16.6126C6.55069 16.314 6.76784 15.6897 6.56878 15.1288C6.38783 14.6402 6.29735 14.1244 6.29735 13.5725C6.29735 11.0753 8.33313 9.03951 10.8304 9.03951C11.3642 9.03951 11.889 9.12999 12.3775 9.31095C12.9747 9.5281 13.6352 9.25666 13.9066 8.68664C15.5986 5.09462 19.254 2.77836 23.226 2.77836C28.5643 2.77836 32.9706 6.77753 33.4773 12.0796C33.5316 12.6315 33.9478 13.0749 34.4906 13.1654C38.517 13.853 41.5571 17.5717 41.5571 21.8152C41.5571 26.312 38.0193 30.2207 33.6582 30.5554H26.9899C26.3113 30.5554 25.7685 31.0983 25.7685 31.7769C25.7685 32.4555 26.3113 32.9984 26.9899 32.9984H33.7035C33.7306 32.9984 33.7578 32.9984 33.794 32.9984C36.5536 32.7993 39.1322 31.5326 41.0504 29.4154C42.9595 27.3163 44 24.62 44 21.8152C43.991 16.7393 40.5256 12.2244 35.7845 10.9758Z" fill="#C5D0DE"/>
<path d="M29.3332 24.0222C29.8127 23.5427 29.8127 22.7736 29.3332 22.2941L22.8639 15.8248C22.6377 15.5986 22.3211 15.4629 22.0044 15.4629C21.6877 15.4629 21.371 15.5896 21.1448 15.8248L14.6756 22.2941C14.196 22.7736 14.196 23.5427 14.6756 24.0222C14.9108 24.2575 15.2275 24.3841 15.5351 24.3841C15.8428 24.3841 16.1594 24.2665 16.3947 24.0222L20.7829 19.634V39.8018C20.7829 40.4804 21.3258 41.0232 22.0044 41.0232C22.683 41.0232 23.2259 40.4804 23.2259 39.8018V19.634L27.6141 24.0222C28.0846 24.5018 28.8537 24.5018 29.3332 24.0222Z" fill="#C5D0DE"/>
</svg>
