<svg width="30" height="30" viewBox="0 0 30 30" fill="none" xmlns="http://www.w3.org/2000/svg">
<path fill-rule="evenodd" clip-rule="evenodd" d="M2.619 22.0632C1.95512 22.5579 1.61293 23.1661 1.61293 23.7508V26.6801C1.61293 26.7709 1.61338 26.8699 1.62493 26.9771C1.6367 27.0865 1.65747 27.1758 1.68431 27.2405C1.69693 27.2708 1.70847 27.2898 1.71644 27.3007C1.72382 27.3107 1.72819 27.314 1.72943 27.3149C1.73011 27.3154 1.7358 27.3197 1.75265 27.3248C1.77051 27.3302 1.80753 27.3383 1.87097 27.3383H7.90304C8.23237 27.3383 8.3397 27.2358 8.38446 27.1804C8.45301 27.0955 8.5159 26.9318 8.5159 26.6801V23.7508C8.5159 23.1661 8.17371 22.5579 7.50983 22.0632C6.85 21.5714 5.95437 21.2618 5.06442 21.2618C4.17447 21.2618 3.27883 21.5714 2.619 22.0632ZM1.65517 20.7699C2.59207 20.0717 3.8254 19.6489 5.06442 19.6489C6.30343 19.6489 7.53676 20.0717 8.47366 20.7699C9.4065 21.4652 10.1288 22.5048 10.1288 23.7508V26.6801C10.1288 27.1608 10.0143 27.7294 9.63928 28.1937C9.24051 28.6875 8.63819 28.9512 7.90304 28.9512H1.87097C1.45897 28.9512 1.08763 28.8421 0.781704 28.62C0.482232 28.4025 0.3024 28.1182 0.19478 27.8591C-0.00106203 27.3875 -0.000269401 26.8857 2.51574e-05 26.6991C3.58477e-05 26.6924 4.58457e-05 26.686 4.58457e-05 26.6801V23.7508C4.58457e-05 22.5048 0.722334 21.4652 1.65517 20.7699Z" fill="black"/>
<path fill-rule="evenodd" clip-rule="evenodd" d="M4.71102 17.7446C5.53652 17.7446 6.29159 17.0395 6.29159 16.0621C6.29159 15.0846 5.53652 14.3795 4.71102 14.3795C3.88553 14.3795 3.13046 15.0846 3.13046 16.0621C3.13046 17.0395 3.88553 17.7446 4.71102 17.7446ZM4.71102 19.3575C6.47472 19.3575 7.90447 17.8821 7.90447 16.0621C7.90447 14.242 6.47472 12.7666 4.71102 12.7666C2.94733 12.7666 1.51758 14.242 1.51758 16.0621C1.51758 17.8821 2.94733 19.3575 4.71102 19.3575Z" fill="black"/>
<path fill-rule="evenodd" clip-rule="evenodd" d="M22.4901 22.0632C21.8262 22.5579 21.484 23.1661 21.484 23.7508V26.6801C21.484 26.7709 21.4845 26.8699 21.496 26.9771C21.5078 27.0865 21.5286 27.1758 21.5554 27.2405C21.568 27.2708 21.5796 27.2898 21.5875 27.3007C21.5949 27.3107 21.5993 27.314 21.6005 27.3149C21.6012 27.3154 21.6069 27.3197 21.6237 27.3248C21.6416 27.3302 21.6786 27.3383 21.7421 27.3383H27.7741C28.1035 27.3383 28.2108 27.2358 28.2556 27.1804C28.3241 27.0955 28.387 26.9318 28.387 26.6801V23.7508C28.387 23.1661 28.0448 22.5579 27.3809 22.0632C26.7211 21.5714 25.8255 21.2618 24.9355 21.2618C24.0456 21.2618 23.1499 21.5714 22.4901 22.0632ZM21.5263 20.7699C22.4632 20.0717 23.6965 19.6489 24.9355 19.6489C26.1745 19.6489 27.4079 20.0717 28.3448 20.7699C29.2776 21.4652 29.9999 22.5048 29.9999 23.7508V26.6801C29.9999 27.1608 29.8854 27.7294 29.5104 28.1937C29.1116 28.6875 28.5093 28.9512 27.7741 28.9512H21.7421C21.3301 28.9512 20.9587 28.8421 20.6528 28.62C20.3533 28.4025 20.1735 28.1182 20.0659 27.8591C19.87 27.3875 19.8708 26.8857 19.8711 26.6991C19.8711 26.6924 19.8711 26.686 19.8711 26.6801V23.7508C19.8711 22.5048 20.5934 21.4652 21.5263 20.7699Z" fill="black"/>
<path fill-rule="evenodd" clip-rule="evenodd" d="M24.5821 17.7446C25.4076 17.7446 26.1627 17.0395 26.1627 16.0621C26.1627 15.0846 25.4076 14.3795 24.5821 14.3795C23.7566 14.3795 23.0016 15.0846 23.0016 16.0621C23.0016 17.0395 23.7566 17.7446 24.5821 17.7446ZM24.5821 19.3575C26.3458 19.3575 27.7756 17.8821 27.7756 16.0621C27.7756 14.242 26.3458 12.7666 24.5821 12.7666C22.8184 12.7666 21.3887 14.242 21.3887 16.0621C21.3887 17.8821 22.8184 19.3575 24.5821 19.3575Z" fill="black"/>
<path fill-rule="evenodd" clip-rule="evenodd" d="M12.5526 10.3449C11.8887 10.8397 11.5465 11.4478 11.5465 12.0326V14.9619C11.5465 15.0526 11.547 15.1516 11.5585 15.2589C11.5703 15.3682 11.5911 15.4576 11.6179 15.5222C11.6305 15.5526 11.6421 15.5715 11.65 15.5824C11.6574 15.5925 11.6618 15.5957 11.663 15.5966C11.6637 15.5971 11.6694 15.6015 11.6862 15.6066C11.7041 15.612 11.7411 15.6201 11.8046 15.6201H17.8366C18.166 15.6201 18.2733 15.5176 18.3181 15.4622C18.3866 15.3773 18.4495 15.2135 18.4495 14.9619V12.0326C18.4495 11.4478 18.1073 10.8397 17.4434 10.3449C16.7836 9.85313 15.888 9.54355 14.998 9.54355C14.1081 9.54355 13.2124 9.85313 12.5526 10.3449ZM11.5888 9.05167C12.5257 8.35341 13.759 7.93066 14.998 7.93066C16.237 7.93066 17.4704 8.35341 18.4073 9.05167C19.3401 9.74691 20.0624 10.7865 20.0624 12.0326V14.9619C20.0624 15.4425 19.9479 16.0111 19.5729 16.4755C19.1741 16.9693 18.5718 17.233 17.8366 17.233H11.8046C11.3926 17.233 11.0212 17.1239 10.7153 16.9017C10.4158 16.6842 10.236 16.3999 10.1284 16.1408C9.93253 15.6692 9.93332 15.1674 9.93362 14.9809C9.93363 14.9741 9.93364 14.9678 9.93364 14.9619V12.0326C9.93364 10.7865 10.6559 9.74691 11.5888 9.05167Z" fill="#ED2B2E"/>
<path fill-rule="evenodd" clip-rule="evenodd" d="M14.6446 6.02638C15.4701 6.02638 16.2252 5.32125 16.2252 4.3438C16.2252 3.36636 15.4701 2.66122 14.6446 2.66122C13.8191 2.66122 13.0641 3.36636 13.0641 4.3438C13.0641 5.32125 13.8191 6.02638 14.6446 6.02638ZM14.6446 7.63926C16.4083 7.63926 17.8381 6.16384 17.8381 4.3438C17.8381 2.52377 16.4083 1.04834 14.6446 1.04834C12.8809 1.04834 11.4512 2.52377 11.4512 4.3438C11.4512 6.16384 12.8809 7.63926 14.6446 7.63926Z" fill="#ED2B2E"/>
</svg>

