<svg width="14" height="16" viewBox="0 0 14 16" fill="none" xmlns="http://www.w3.org/2000/svg">
<path d="M9.19922 9.78125C8.94531 9.78125 8.61328 9.84961 8.20312 9.98633C7.92969 10.0645 7.70508 10.123 7.5293 10.1621C7.23633 10.2207 6.91406 10.25 6.5625 10.25C6.21094 10.25 5.88867 10.2207 5.5957 10.1621C5.41992 10.123 5.19531 10.0645 4.92188 9.98633C4.51172 9.84961 4.17969 9.78125 3.92578 9.78125C3.22266 9.78125 2.56836 9.95703 1.96289 10.3086C1.35742 10.6602 0.878906 11.1387 0.527344 11.7441C0.175781 12.3496 0 13.0039 0 13.707V14.4688C0 14.8594 0.136719 15.1914 0.410156 15.4648C0.683594 15.7383 1.01562 15.875 1.40625 15.875H11.7188C12.1094 15.875 12.4414 15.7383 12.7148 15.4648C12.9883 15.1914 13.125 14.8594 13.125 14.4688V13.707C13.125 13.0039 12.9492 12.3496 12.5977 11.7441C12.2461 11.1387 11.7676 10.6602 11.1621 10.3086C10.5566 9.95703 9.90234 9.78125 9.19922 9.78125ZM11.7188 14.4688H1.40625V13.707C1.40625 13.0234 1.65039 12.4375 2.13867 11.9492C2.64648 11.4414 3.24219 11.1875 3.92578 11.1875C4.02344 11.1875 4.21875 11.2266 4.51172 11.3047C5.23438 11.5391 5.91797 11.6562 6.5625 11.6562C7.22656 11.6562 7.91016 11.5391 8.61328 11.3047C8.88672 11.2266 9.08203 11.1875 9.19922 11.1875C9.88281 11.1875 10.4688 11.4414 10.957 11.9492C11.4648 12.4375 11.7188 13.0234 11.7188 13.707V14.4688ZM6.5625 9.3125C7.32422 9.3125 8.02734 9.12695 8.67188 8.75586C9.31641 8.36523 9.82422 7.84766 10.1953 7.20312C10.5859 6.55859 10.7812 5.85547 10.7812 5.09375C10.7812 4.33203 10.5859 3.62891 10.1953 2.98438C9.82422 2.33984 9.31641 1.83203 8.67188 1.46094C8.02734 1.07031 7.32422 0.875 6.5625 0.875C5.80078 0.875 5.09766 1.07031 4.45312 1.46094C3.80859 1.83203 3.29102 2.33984 2.90039 2.98438C2.5293 3.62891 2.34375 4.33203 2.34375 5.09375C2.34375 5.85547 2.5293 6.55859 2.90039 7.20312C3.29102 7.84766 3.80859 8.36523 4.45312 8.75586C5.09766 9.12695 5.80078 9.3125 6.5625 9.3125ZM6.5625 2.28125C7.34375 2.28125 8.00781 2.55469 8.55469 3.10156C9.10156 3.64844 9.375 4.3125 9.375 5.09375C9.375 5.875 9.10156 6.53906 8.55469 7.08594C8.00781 7.63281 7.34375 7.90625 6.5625 7.90625C5.78125 7.90625 5.11719 7.63281 4.57031 7.08594C4.02344 6.53906 3.75 5.875 3.75 5.09375C3.75 4.3125 4.02344 3.64844 4.57031 3.10156C5.11719 2.55469 5.78125 2.28125 6.5625 2.28125Z" fill="#C5D0DE"/>
</svg>
