<svg width="24" height="24" viewBox="0 0 24 24" fill="none" xmlns="http://www.w3.org/2000/svg">
<path fill-rule="evenodd" clip-rule="evenodd" d="M2.0952 17.6506C1.5641 18.0465 1.29034 18.533 1.29034 19.0008V21.3442C1.29034 21.4168 1.2907 21.496 1.29994 21.5818C1.30936 21.6693 1.32597 21.7407 1.34745 21.7925C1.35755 21.8168 1.36677 21.8319 1.37315 21.8406C1.37905 21.8487 1.38255 21.8513 1.38354 21.852C1.38409 21.8524 1.38864 21.8559 1.40212 21.86C1.41641 21.8643 1.44602 21.8708 1.49678 21.8708H6.32243C6.58589 21.8708 6.67176 21.7888 6.70757 21.7444C6.76241 21.6765 6.81272 21.5455 6.81272 21.3442V19.0008C6.81272 18.533 6.53897 18.0465 6.00786 17.6506C5.48 17.2572 4.76349 17.0095 4.05153 17.0095C3.33957 17.0095 2.62306 17.2572 2.0952 17.6506ZM1.32414 16.616C2.07366 16.0574 3.06032 15.7192 4.05153 15.7192C5.04274 15.7192 6.02941 16.0574 6.77893 16.616C7.5252 17.1722 8.10303 18.0039 8.10303 19.0008V21.3442C8.10303 21.7287 8.01141 22.1836 7.71143 22.5551C7.39241 22.9501 6.91055 23.1611 6.32243 23.1611H1.49678C1.16718 23.1611 0.870105 23.0738 0.625364 22.8961C0.385785 22.7221 0.24192 22.4947 0.155824 22.2874C-0.00084962 21.9101 -0.000215521 21.5086 2.01259e-05 21.3594C2.86781e-05 21.354 3.66766e-05 21.3489 3.66766e-05 21.3442V19.0008C3.66766e-05 18.0039 0.577867 17.1722 1.32414 16.616Z" fill="black"/>
<path fill-rule="evenodd" clip-rule="evenodd" d="M3.76844 14.1958C4.42883 14.1958 5.03289 13.6317 5.03289 12.8497C5.03289 12.0678 4.42883 11.5037 3.76844 11.5037C3.10805 11.5037 2.50399 12.0678 2.50399 12.8497C2.50399 13.6317 3.10805 14.1958 3.76844 14.1958ZM3.76844 15.4861C5.1794 15.4861 6.3232 14.3058 6.3232 12.8497C6.3232 11.3937 5.1794 10.2134 3.76844 10.2134C2.35749 10.2134 1.21368 11.3937 1.21368 12.8497C1.21368 14.3058 2.35749 15.4861 3.76844 15.4861Z" fill="black"/>
<path fill-rule="evenodd" clip-rule="evenodd" d="M17.9922 17.6506C17.4611 18.0465 17.1873 18.533 17.1873 19.0008V21.3442C17.1873 21.4168 17.1877 21.496 17.1969 21.5818C17.2063 21.6693 17.2229 21.7407 17.2444 21.7925C17.2545 21.8168 17.2637 21.8319 17.2701 21.8406C17.276 21.8487 17.2795 21.8513 17.2805 21.852C17.2811 21.8524 17.2856 21.8559 17.2991 21.86C17.3134 21.8643 17.343 21.8708 17.3937 21.8708H22.2194C22.4829 21.8708 22.5687 21.7888 22.6045 21.7444C22.6594 21.6765 22.7097 21.5455 22.7097 21.3442V19.0008C22.7097 18.533 22.4359 18.0465 21.9048 17.6506C21.377 17.2572 20.6605 17.0095 19.9485 17.0095C19.2365 17.0095 18.52 17.2572 17.9922 17.6506ZM17.2211 16.616C17.9706 16.0574 18.9573 15.7192 19.9485 15.7192C20.9397 15.7192 21.9264 16.0574 22.6759 16.616C23.4222 17.1722 24 18.0039 24 19.0008V21.3442C24 21.7287 23.9084 22.1836 23.6084 22.5551C23.2894 22.9501 22.8075 23.1611 22.2194 23.1611H17.3937C17.0641 23.1611 16.7671 23.0738 16.5223 22.8961C16.2828 22.7221 16.1389 22.4947 16.0528 22.2874C15.8961 21.9101 15.8968 21.5086 15.897 21.3594C15.897 21.354 15.897 21.3489 15.897 21.3442V19.0008C15.897 18.0039 16.4748 17.1722 17.2211 16.616Z" fill="black"/>
<path fill-rule="evenodd" clip-rule="evenodd" d="M19.6654 14.1958C20.3258 14.1958 20.9299 13.6317 20.9299 12.8497C20.9299 12.0678 20.3258 11.5037 19.6654 11.5037C19.005 11.5037 18.401 12.0678 18.401 12.8497C18.401 13.6317 19.005 14.1958 19.6654 14.1958ZM19.6654 15.4861C21.0764 15.4861 22.2202 14.3058 22.2202 12.8497C22.2202 11.3937 21.0764 10.2134 19.6654 10.2134C18.2545 10.2134 17.1107 11.3937 17.1107 12.8497C17.1107 14.3058 18.2545 15.4861 19.6654 15.4861Z" fill="black"/>
<path fill-rule="evenodd" clip-rule="evenodd" d="M10.0427 8.27611C9.51164 8.67194 9.23788 9.15845 9.23788 9.62625V11.9697C9.23788 12.0423 9.23824 12.1215 9.24748 12.2073C9.2569 12.2948 9.27351 12.3662 9.29499 12.418C9.30509 12.4423 9.31431 12.4574 9.3207 12.4661C9.3266 12.4742 9.33009 12.4768 9.33108 12.4775C9.33163 12.4779 9.33618 12.4814 9.34966 12.4854C9.36395 12.4898 9.39356 12.4963 9.44432 12.4963H14.27C14.5334 12.4963 14.6193 12.4143 14.6551 12.3699C14.71 12.302 14.7603 12.171 14.7603 11.9697V9.62625C14.7603 9.15845 14.4865 8.67194 13.9554 8.27611C13.4275 7.8827 12.711 7.63503 11.9991 7.63503C11.2871 7.63503 10.5706 7.8827 10.0427 8.27611ZM9.27168 7.24153C10.0212 6.68292 11.0079 6.34473 11.9991 6.34473C12.9903 6.34473 13.9769 6.68292 14.7265 7.24153C15.4727 7.79772 16.0506 8.6294 16.0506 9.62625V11.9697C16.0506 12.3542 15.959 12.8091 15.659 13.1806C15.3399 13.5756 14.8581 13.7866 14.27 13.7866H9.44432C9.11472 13.7866 8.81764 13.6993 8.5729 13.5216C8.33333 13.3476 8.18946 13.1201 8.10336 12.9128C7.94669 12.5356 7.94732 12.1341 7.94756 11.9849C7.94757 11.9795 7.94758 11.9744 7.94758 11.9697V9.62625C7.94758 8.6294 8.52541 7.79772 9.27168 7.24153Z" fill="#ED2B2E"/>
<path fill-rule="evenodd" clip-rule="evenodd" d="M11.7159 4.8213C12.3763 4.8213 12.9803 4.25719 12.9803 3.47524C12.9803 2.69328 12.3763 2.12917 11.7159 2.12917C11.0555 2.12917 10.4514 2.69328 10.4514 3.47524C10.4514 4.25719 11.0555 4.8213 11.7159 4.8213ZM11.7159 6.11161C13.1268 6.11161 14.2706 4.93126 14.2706 3.47524C14.2706 2.01921 13.1268 0.838867 11.7159 0.838867C10.3049 0.838867 9.16113 2.01921 9.16113 3.47524C9.16113 4.93126 10.3049 6.11161 11.7159 6.11161Z" fill="#ED2B2E"/>
</svg>
