<svg width="24" height="24" viewBox="0 0 24 24" fill="none" xmlns="http://www.w3.org/2000/svg">
<path fill-rule="evenodd" clip-rule="evenodd" d="M8.71967 4.24225L9.25422 4.97235C9.37379 5.13567 9.49285 5.30975 9.59718 5.46231C9.6559 5.54817 9.70996 5.62721 9.75684 5.69369C9.9025 5.9003 10.0211 6.04967 10.1446 6.16465C10.353 6.35867 10.6288 6.50923 11.2499 6.50923H17.2499V7.75923H11.2499C10.3711 7.75923 9.77191 7.52564 9.29274 7.07942C9.07811 6.87955 8.9034 6.65153 8.74748 6.43133C8.61948 6.60103 8.48705 6.76839 8.35427 6.92708C8.03499 7.30865 7.67709 7.68471 7.35241 7.90645L6.64746 6.87419C6.82278 6.75447 7.08987 6.4903 7.3956 6.12492C7.69117 5.77168 7.98893 5.36509 8.2261 5.00066L8.71967 4.24225Z" fill="#ED2B2E"/>
<path fill-rule="evenodd" clip-rule="evenodd" d="M17.4996 8.41429C17.4996 11.9502 15.0372 14.3045 11.9996 14.3045C9.11015 14.3045 6.74111 11.7107 6.51696 8.41429C6.50547 8.24532 6.49374 5.85335 6.49961 5.34117C6.53192 2.52413 9.74961 1.49976 11.9996 1.49976C14.2496 1.49976 17.4996 2.52413 17.4996 5.34117C17.5197 5.54309 17.5079 7.19798 17.5022 8.00109C17.5007 8.20994 17.4996 8.36118 17.4996 8.41429ZM16.2496 5.4033V5.34117C16.2496 4.51813 15.8133 3.91665 14.9859 3.45652C14.1231 2.97672 12.9704 2.74976 11.9996 2.74976C11.0296 2.74976 9.88568 2.9764 9.02719 3.45557C8.20425 3.91489 7.7591 4.52113 7.74953 5.3555C7.74674 5.59904 7.74811 6.3139 7.75176 6.99979C7.75357 7.34024 7.75591 7.66885 7.75851 7.92205C7.7607 8.13588 7.76293 8.26183 7.76376 8.30862C7.76403 8.32369 7.76415 8.33055 7.76408 8.32949C7.95529 11.1416 9.92667 13.0545 11.9996 13.0545C14.3062 13.0545 16.2496 11.3012 16.2496 8.41429C16.2496 8.35996 16.2507 8.20189 16.2523 7.98593C16.2544 7.68524 16.2573 7.27234 16.2591 6.87101C16.2607 6.51989 16.2615 6.17217 16.2603 5.8978C16.2594 5.68291 16.2571 5.55469 16.2561 5.49839C16.2556 5.47191 16.2554 5.46134 16.2558 5.46513L16.2496 5.4033Z" fill="black"/>
<path fill-rule="evenodd" clip-rule="evenodd" d="M5.71221 17.3517C5.31837 17.976 5.125 18.5128 5.125 18.9148V21.8752H18.875V18.9148C18.875 18.8285 18.8474 18.6715 18.7605 18.4362C18.6764 18.2089 18.5496 17.9423 18.3846 17.6482C18.0547 17.0601 17.5929 16.3994 17.0806 15.779C16.5674 15.1576 16.0189 14.5951 15.5218 14.1945C15.2731 13.994 15.0496 13.8441 14.8603 13.747C14.6628 13.6457 14.5467 13.6248 14.5 13.6248V12.3748C14.8283 12.3748 15.1497 12.4906 15.4308 12.6348C15.7199 12.7831 16.016 12.9873 16.3063 13.2213C16.8874 13.6897 17.4951 14.3179 18.0444 14.9831C18.5946 15.6494 19.1016 16.3715 19.4747 17.0365C19.6613 17.369 19.8197 17.6966 19.9329 18.0028C20.0432 18.3011 20.125 18.6171 20.125 18.9148V23.1252H3.875V18.9148C3.875 18.1644 4.21288 17.3856 4.65498 16.6848C5.1059 15.97 5.71077 15.265 6.34449 14.6459C6.97889 14.0261 7.65887 13.4761 8.27188 13.0764C8.57801 12.8767 8.87759 12.7079 9.15419 12.5868C9.41757 12.4716 9.71498 12.3748 10 12.3748V13.6248C9.97252 13.6248 9.86368 13.6408 9.65538 13.7319C9.4603 13.8173 9.22277 13.9486 8.95469 14.1234C8.41925 14.4726 7.80236 14.9692 7.21801 15.54C6.63298 16.1116 6.09723 16.7414 5.71221 17.3517Z" fill="black"/>
</svg>
