<svg width="90" height="67" viewBox="0 0 90 67" fill="none" xmlns="http://www.w3.org/2000/svg">
<path d="M85.9767 49.1938L80.5319 47.6162C80.2969 47.5482 80.1327 47.3275 80.1327 47.0795V45.2365C80.5757 44.9253 80.9982 44.577 81.3932 44.1882C83.3075 42.3044 84.3616 39.7777 84.3616 37.0732V34.53L84.8881 33.4625C85.4659 32.2905 85.7712 30.9783 85.7712 29.6682V22.7786C85.7712 22.0403 85.181 21.4417 84.4529 21.4417H71.7662C67.153 21.4417 63.3997 25.2478 63.3997 29.9259V30.0056C63.3997 31.0951 63.6537 32.1862 64.1341 33.1605L64.8093 34.5299V36.7135C64.8093 40.1741 66.491 43.2791 69.0383 45.1476L69.0386 47.0792C69.0386 47.377 69.0386 47.5004 67.95 47.8159L65.2932 48.5856L57.6079 45.7517C57.6355 45.384 57.5132 45.01 57.2486 44.7282L54.7928 42.1117V37.7196C55.0524 37.5026 55.3083 37.2798 55.5564 37.0441C58.6545 34.0994 60.4313 29.9418 60.4313 25.6375V22.1298C61.3668 20.0654 61.8409 17.8809 61.8409 15.6311V1.33691C61.8409 0.598579 61.2506 0 60.5225 0H40.7878C33.8426 0 28.1925 5.72981 28.1925 12.7725V15.6315C28.1925 17.8812 28.6666 20.0658 29.6021 22.1301V25.1481C29.6021 30.1457 31.7934 34.648 35.2406 37.6163V42.1119L32.7848 44.7283C32.5202 45.0102 32.3979 45.3841 32.4255 45.7519L24.3141 48.7428C23.7263 48.9596 23.1801 49.2532 22.6842 49.6088L21.4105 48.963C25.2021 47.2893 26.4032 44.9355 26.4609 44.8185C26.6465 44.4422 26.6465 43.9991 26.4609 43.6228C25.5104 41.6952 25.3953 38.162 25.3028 35.3231C25.2721 34.378 25.2429 33.4851 25.1872 32.6901C24.7377 26.2776 19.9304 21.4417 14.0048 21.4417C8.07926 21.4417 3.27182 26.2774 2.82252 32.6901C2.7668 33.4853 2.73762 34.3782 2.70686 35.3235C2.61439 38.1622 2.49908 41.695 1.54881 43.6226C1.36318 43.9989 1.36318 44.4421 1.54881 44.8184C1.60646 44.9353 2.80512 47.2843 6.60428 48.9599L3.06633 50.7537C1.17492 51.7134 0 53.6412 0 55.7855V65.6624C0 66.4007 0.590273 66.9993 1.31836 66.9993C2.04645 66.9993 2.63672 66.4007 2.63672 65.6624V55.7855C2.63672 54.6603 3.25318 53.6487 4.24547 53.1455L8.65107 50.9118L10.1835 52.3886C11.2551 53.4213 12.6297 53.9373 14.0048 53.9373C15.3796 53.9373 16.7549 53.4209 17.8262 52.3886L19.3584 50.912L20.7949 51.6403C20.1185 52.7379 19.7346 54.0248 19.7346 55.373V65.6627C19.7346 66.4011 20.3249 66.9996 21.053 66.9996C21.7811 66.9996 22.3713 66.4011 22.3713 65.6627V55.373C22.3713 53.5377 23.5141 51.8831 25.2151 51.2558L33.7672 48.1023L37.3273 53.5179C37.7824 54.2102 38.5117 54.6543 39.3282 54.7363C39.4193 54.7454 39.5098 54.7498 39.6002 54.7498C40.3205 54.7498 41.0105 54.4623 41.5262 53.9395L43.6982 51.737V65.6629C43.6982 66.4012 44.2884 66.9998 45.0165 66.9998C45.7446 66.9998 46.3349 66.4012 46.3349 65.6629V51.737L48.5068 53.9395C49.0224 54.4625 49.7123 54.75 50.4329 54.75C50.523 54.75 50.6138 54.7455 50.7046 54.7364C51.5213 54.6544 52.2506 54.2104 52.7057 53.5181L56.266 48.1027L64.8179 51.2562C66.5188 51.8835 67.6617 53.538 67.6617 55.3733V65.6631C67.6617 66.4014 68.252 67 68.9801 67C69.7082 67 70.2984 66.4014 70.2984 65.6631V55.3733C70.2984 53.5145 69.5702 51.7712 68.3485 50.4819L68.6742 50.3876C69.0028 50.2924 69.451 50.1621 69.901 49.9384L73.267 53.3518V65.6631C73.267 66.4014 73.8573 67 74.5854 67C75.3135 67 75.9038 66.4014 75.9038 65.6631V53.3518L79.2464 49.9621C79.4241 50.0537 79.6108 50.1311 79.8073 50.1879L85.2523 51.7655C86.4951 52.1255 87.3633 53.2926 87.3633 54.6035V65.6631C87.3633 66.4014 87.9536 67 88.6816 67C89.4097 67 90 66.4014 90 65.6631V54.6035C90 52.1047 88.3456 49.8803 85.9767 49.1938ZM8.45772 46.8325C5.99168 45.9326 4.75471 44.733 4.22666 44.0779C4.58666 43.1235 4.8201 42.0305 4.97813 40.8766C5.70516 42.6444 6.92279 44.1535 8.45772 45.2301V46.8325ZM16.0102 50.4507C14.8857 51.5341 13.1242 51.5339 12.0001 50.4505L10.774 49.269C10.9809 48.876 11.0946 48.4303 11.0946 47.9635V46.5385C12.0143 46.83 12.992 46.9872 14.0052 46.9872C15.0172 46.9872 15.9943 46.8293 16.9156 46.5394L16.9154 47.9633C16.9154 48.4303 17.029 48.8761 17.2361 49.2694L16.0102 50.4507ZM14.0055 44.3134C10.0688 44.3134 6.86619 41.0656 6.86619 37.0736C6.86619 36.3352 6.27592 35.7366 5.54783 35.7366C5.474 35.7366 5.40193 35.7443 5.33145 35.7563C5.33531 35.6413 5.339 35.5261 5.34287 35.4122C5.37223 34.493 5.40053 33.6247 5.45273 32.8799C5.62113 30.4778 6.56771 28.2642 8.1181 26.6467C9.68238 25.0146 11.7731 24.1159 14.0052 24.1159C16.2373 24.1159 18.3278 25.0146 19.8923 26.6467C21.4427 28.2642 22.3893 30.4778 22.5577 32.8799C22.6097 33.6245 22.6382 34.4926 22.668 35.4117C22.6707 35.4907 22.6733 35.5707 22.676 35.6502C21.2416 33.4092 19.0264 31.7577 16.1641 30.825C13.5199 29.9635 11.2456 30.0168 11.1496 30.0193C10.8044 30.0291 10.4767 30.1756 10.2371 30.4277L7.85848 32.9293C7.35311 33.4609 7.36822 34.3072 7.8924 34.8197C8.41658 35.3322 9.25119 35.3167 9.75656 34.7853L11.7359 32.7038C13.4404 32.7883 18.9243 33.435 21.057 38.1974C20.5204 41.7069 17.5458 44.3134 14.0055 44.3134ZM19.552 46.8369L19.5521 45.2424C21.0858 44.1716 22.3052 42.6654 23.0328 40.8843C23.1908 42.0354 23.4241 43.126 23.7834 44.0782C23.2583 44.7271 22.0155 45.9374 19.552 46.8369ZM32.2388 25.148V21.831C32.2388 21.6298 32.194 21.431 32.1077 21.2497C31.2594 19.4682 30.8292 17.578 30.8292 15.6315V12.7727C30.8292 7.20416 35.2967 2.674 40.7878 2.674H59.2042V15.6317C59.2042 17.5782 58.774 19.4684 57.9257 21.2499C57.8394 21.4312 57.7946 21.6299 57.7946 21.8312V25.6378C57.7946 29.2583 56.3593 32.6165 53.7532 35.0937C53.4278 35.4028 53.0902 35.6926 52.7411 35.9627C52.7333 35.968 52.7259 35.9739 52.7184 35.9794C50.277 37.8591 47.2866 38.7727 44.1636 38.5675C37.4767 38.1285 32.2388 32.2339 32.2388 25.148ZM39.6619 52.0485C39.6527 52.0578 39.6315 52.0797 39.5884 52.0751C39.5455 52.0708 39.5286 52.0453 39.5214 52.0343L35.4213 45.7975L36.7407 44.3916L42.9608 48.7031L39.6619 52.0485ZM45.0167 46.8893L37.8773 41.9406V39.4451C39.7246 40.4577 41.793 41.0911 43.993 41.2354C44.3405 41.2583 44.6859 41.2695 45.0302 41.2695C47.5511 41.2695 49.9772 40.6584 52.1561 39.4985V41.9406L45.0167 46.8893ZM50.512 52.0346C50.5048 52.0457 50.4879 52.0712 50.445 52.0755C50.4019 52.081 50.3808 52.058 50.3715 52.0489L47.0726 48.7036L53.2927 44.392L54.6122 45.7979L50.512 52.0346ZM74.5854 50.9066L71.5936 47.8729C71.6458 47.6325 71.6753 47.3692 71.6752 47.0788L71.675 46.5146C72.5052 46.7909 73.3802 46.9549 74.2857 46.9824C74.3873 46.9856 74.488 46.987 74.5893 46.987C75.5898 46.987 76.5664 46.8337 77.496 46.5412V47.0795C77.496 47.3462 77.529 47.6075 77.5912 47.8587L74.5854 50.9066ZM79.557 42.2695C78.1597 43.6446 76.3138 44.3708 74.365 44.3098C70.5498 44.1938 67.446 40.7861 67.446 36.7138V34.2145C67.446 34.0069 67.3984 33.8022 67.3068 33.6167L66.4924 31.965C66.1941 31.3598 66.0364 30.6824 66.0364 30.0058V29.9261C66.0364 26.7221 68.6069 24.1157 71.7662 24.1157H83.1345V29.6683C83.1345 30.5657 82.9253 31.4642 82.5296 32.2669L81.8641 33.6167C81.7726 33.8024 81.7249 34.0069 81.7249 34.2145V37.0734C81.7249 39.0484 80.955 40.8937 79.557 42.2695Z" fill="white"/>
</svg>
