<svg width="187" height="51" viewBox="0 0 187 51" fill="none" xmlns="http://www.w3.org/2000/svg">
<rect width="186.15" height="51" rx="4" fill="#D8D8D8"/>
<mask id="mask0" mask-type="alpha" maskUnits="userSpaceOnUse" x="0" y="0" width="187" height="51">
<rect width="186.15" height="51" rx="4" fill="white"/>
</mask>
<g mask="url(#mask0)">
<rect width="186.15" height="51" fill="black"/>
</g>
<path fill-rule="evenodd" clip-rule="evenodd" d="M114.857 36.536C115.646 35.825 116.039 34.904 116.039 33.772C116.039 32.852 115.77 32.081 115.231 31.465C114.69 30.847 113.849 30.308 112.704 29.847C111.768 29.478 111.123 29.136 110.768 28.82C110.36 28.478 110.157 28.043 110.157 27.517C110.157 27.042 110.335 26.641 110.69 26.312C111.11 25.944 111.696 25.759 112.446 25.759C113.395 25.759 114.243 25.963 114.993 26.371L115.526 24.633C114.723 24.212 113.717 24.001 112.506 24.001C111.148 24.001 110.062 24.35 109.248 25.049C108.431 25.747 108.023 26.644 108.023 27.738C108.023 29.412 109.187 30.685 111.517 31.554C112.373 31.871 112.986 32.214 113.353 32.583C113.722 32.952 113.906 33.407 113.906 33.947C113.906 34.553 113.683 35.039 113.236 35.401C112.787 35.763 112.162 35.945 111.359 35.945C110.24 35.945 109.213 35.661 108.277 35.095L107.783 36.872C108.652 37.425 109.8 37.701 111.232 37.701C112.783 37.701 113.99 37.313 114.857 36.536ZM81.6449 37.504H79.3739L78.1299 33.595H73.8059L72.6209 37.504H70.4099L74.6939 24.196H77.3399L81.6449 37.504ZM77.7549 31.955L76.6299 28.48C76.5109 28.125 76.2879 27.289 75.9589 25.973H75.9189C75.7879 26.539 75.5769 27.375 75.2869 28.48L74.1819 31.955H77.7549ZM91.3389 36.457C92.2209 35.51 92.6619 34.22 92.6619 32.588C92.6619 31.127 92.2839 29.949 91.5259 29.053C90.7699 28.158 89.8249 27.711 88.6929 27.711C87.2449 27.711 86.1659 28.283 85.4549 29.429H85.4149L85.2959 27.908H83.4209C83.4729 28.988 83.4999 30.041 83.4999 31.067V41.414H85.6319V36.359H85.6719C86.2249 37.267 87.1329 37.721 88.3969 37.721C89.5679 37.721 90.5489 37.3 91.3389 36.457ZM90.4899 32.666C90.4899 31.732 90.2799 30.962 89.8579 30.356C89.3969 29.724 88.7779 29.408 88.0019 29.408C87.4759 29.408 86.9979 29.584 86.5709 29.931C86.1429 30.281 85.8629 30.738 85.7319 31.304C85.6659 31.568 85.6329 31.784 85.6329 31.954V33.554C85.6329 34.252 85.8469 34.841 86.2749 35.322C86.7029 35.803 87.2589 36.043 87.9429 36.043C88.7459 36.043 89.3709 35.733 89.8179 35.115C90.2659 34.496 90.4899 33.68 90.4899 32.666ZM102.375 36.457C103.258 35.51 103.699 34.22 103.699 32.588C103.699 31.127 103.32 29.949 102.565 29.053C101.807 28.158 100.862 27.711 99.7309 27.711C98.2819 27.711 97.2029 28.283 96.4929 29.429H96.4529L96.3339 27.908H94.4589C94.5109 28.988 94.5379 30.041 94.5379 31.067V41.414H96.6699V36.359H96.7099C97.2619 37.267 98.1699 37.721 99.4339 37.721C100.605 37.721 101.586 37.3 102.375 36.457ZM101.527 32.666C101.527 31.732 101.316 30.962 100.894 30.356C100.433 29.724 99.8159 29.408 99.0389 29.408C98.5119 29.408 98.0349 29.584 97.6069 29.931C97.1789 30.281 96.8999 30.738 96.7689 31.304C96.7039 31.568 96.6699 31.784 96.6699 31.954V33.554C96.6699 34.252 96.8839 34.841 97.3099 35.322C97.7379 35.802 98.2939 36.043 98.9799 36.043C99.7829 36.043 100.408 35.733 100.855 35.115C101.303 34.496 101.527 33.68 101.527 32.666ZM123.088 29.508H120.738V34.167C120.738 35.352 121.152 35.944 121.982 35.944C122.363 35.944 122.679 35.911 122.929 35.845L122.988 37.464C122.568 37.621 122.015 37.7 121.33 37.7C120.488 37.7 119.83 37.443 119.355 36.93C118.882 36.416 118.644 35.554 118.644 34.343V29.506H117.244V27.906H118.644V26.149L120.738 25.517V27.906H123.088V29.508ZM132.427 36.26C133.269 35.313 133.691 34.102 133.691 32.627C133.691 31.192 133.283 30.021 132.465 29.114C131.61 28.179 130.477 27.712 129.069 27.712C127.608 27.712 126.446 28.186 125.585 29.134C124.722 30.081 124.292 31.299 124.292 32.786C124.292 34.207 124.71 35.386 125.546 36.32C126.382 37.254 127.503 37.721 128.911 37.721C130.372 37.721 131.544 37.235 132.427 36.26ZM131.479 32.696C131.479 31.811 131.29 31.052 130.907 30.419C130.46 29.653 129.821 29.271 128.993 29.271C128.136 29.271 127.485 29.654 127.038 30.419C126.655 31.053 126.466 31.824 126.466 32.736C126.466 33.621 126.655 34.38 127.038 35.012C127.499 35.778 128.143 36.16 128.974 36.16C129.788 36.16 130.427 35.77 130.888 34.992C131.281 34.347 131.479 33.58 131.479 32.696ZM139.949 29.724C140.185 29.724 140.41 29.744 140.621 29.783V27.75C140.463 27.725 140.285 27.711 140.088 27.711C139.535 27.711 139.022 27.882 138.547 28.225C138.061 28.606 137.706 29.114 137.481 29.745H137.422L137.344 27.909H135.487C135.54 28.817 135.567 29.824 135.567 30.93L135.547 37.504H137.678V32.469C137.678 31.706 137.856 31.074 138.211 30.574C138.619 30.007 139.199 29.724 139.949 29.724ZM150.156 32.252C150.156 32.634 150.131 32.956 150.078 33.219H143.682C143.707 34.167 144.016 34.892 144.61 35.392C145.149 35.839 145.846 36.063 146.702 36.063C147.649 36.063 148.513 35.912 149.29 35.609L149.624 37.089C148.716 37.485 147.644 37.682 146.407 37.682C144.919 37.682 143.751 37.244 142.901 36.369C142.053 35.494 141.628 34.319 141.628 32.845C141.628 31.398 142.023 30.193 142.814 29.232C143.642 28.206 144.761 27.693 146.169 27.693C147.552 27.693 148.599 28.206 149.31 29.232C149.873 30.047 150.156 31.055 150.156 32.252ZM147.709 30.06C147.998 30.521 148.137 31.067 148.123 31.699V31.698H143.682C143.747 31.054 143.958 30.501 144.313 30.04C144.746 29.46 145.313 29.171 146.01 29.171C146.773 29.171 147.34 29.467 147.709 30.06Z" fill="white"/>
<path fill-rule="evenodd" clip-rule="evenodd" d="M99.088 19.433H98.041V12.556H99.088V19.433ZM75.992 18.667C76.697 18.072 77.05 17.186 77.05 16.009C77.05 14.961 76.723 14.156 76.071 13.593C75.489 13.095 74.626 12.846 73.481 12.846C72.833 12.846 72.233 12.892 71.676 12.982V19.413C72.103 19.465 72.613 19.491 73.209 19.491C74.411 19.491 75.339 19.216 75.992 18.667ZM75.339 14.282C75.743 14.69 75.945 15.275 75.945 16.038C75.945 16.892 75.725 17.542 75.289 17.988C74.853 18.434 74.234 18.657 73.432 18.657C73.089 18.657 72.853 18.648 72.724 18.628V13.739C72.957 13.693 73.238 13.671 73.568 13.671C74.345 13.671 74.935 13.875 75.339 14.282ZM82.909 17.037C82.909 17.762 82.702 18.356 82.288 18.822C81.854 19.301 81.279 19.54 80.561 19.54C79.869 19.54 79.318 19.311 78.907 18.851C78.497 18.392 78.292 17.813 78.292 17.115C78.292 16.385 78.503 15.786 78.927 15.321C79.351 14.856 79.921 14.623 80.639 14.623C81.331 14.623 81.887 14.852 82.308 15.311C82.708 15.757 82.909 16.333 82.909 17.037ZM81.541 15.952C81.728 16.263 81.822 16.636 81.822 17.071C81.822 17.506 81.725 17.882 81.531 18.199C81.305 18.582 80.991 18.773 80.591 18.773C80.183 18.773 79.867 18.585 79.64 18.209C79.453 17.898 79.359 17.525 79.359 17.09C79.359 16.642 79.452 16.263 79.64 15.952C79.86 15.576 80.18 15.388 80.601 15.388C81.008 15.388 81.321 15.576 81.541 15.952ZM90.765 14.719L90.7647 14.72H89.736L89.164 16.922C89.022 17.472 88.915 17.989 88.844 18.474H88.815C88.718 17.976 88.592 17.459 88.437 16.922L87.796 14.72H86.942L86.273 16.97C86.091 17.577 85.962 18.079 85.884 18.473H85.865C85.78 17.995 85.674 17.49 85.545 16.96L85.012 14.719H83.935L85.322 19.433H86.293L86.942 17.386C87.104 16.888 87.23 16.381 87.321 15.863H87.34C87.438 16.367 87.564 16.875 87.719 17.386L88.33 19.433H89.29L90.7647 14.72H90.765V14.719ZM95.15 19.433H96.198V16.609C96.198 15.917 96.017 15.396 95.655 15.047C95.364 14.762 94.998 14.62 94.558 14.62C94.21 14.62 93.892 14.709 93.608 14.885C93.369 15.036 93.187 15.225 93.065 15.454H93.036L92.987 14.717H92.066C92.091 15.203 92.104 15.652 92.104 16.066V19.432H93.152V16.636C93.152 16.327 93.25 16.057 93.443 15.828C93.638 15.599 93.889 15.485 94.2 15.485C94.834 15.485 95.15 15.901 95.15 16.733V19.433ZM104.637 18.822C105.051 18.356 105.258 17.762 105.258 17.037C105.258 16.333 105.057 15.757 104.657 15.311C104.235 14.852 103.68 14.623 102.987 14.623C102.27 14.623 101.7 14.856 101.276 15.321C100.852 15.786 100.641 16.385 100.641 17.115C100.641 17.813 100.846 18.392 101.256 18.851C101.666 19.311 102.217 19.54 102.91 19.54C103.627 19.54 104.203 19.301 104.637 18.822ZM104.17 17.071C104.17 16.636 104.076 16.263 103.889 15.952C103.67 15.576 103.356 15.388 102.95 15.388C102.528 15.388 102.208 15.576 101.989 15.952C101.801 16.263 101.708 16.642 101.708 17.09C101.708 17.525 101.802 17.898 101.989 18.209C102.216 18.585 102.532 18.773 102.94 18.773C103.34 18.773 103.653 18.582 103.879 18.199C104.074 17.882 104.17 17.506 104.17 17.071ZM109.389 19.433H110.33C110.285 19.155 110.262 18.78 110.262 18.309V16.573C110.262 15.273 109.644 14.623 108.412 14.623C107.774 14.623 107.233 14.759 106.795 15.03L107.008 15.718C107.362 15.486 107.772 15.369 108.237 15.369C108.89 15.369 109.216 15.679 109.216 16.3V16.388C108.343 16.381 107.665 16.53 107.183 16.834C106.7 17.138 106.46 17.577 106.46 18.153C106.46 18.534 106.583 18.855 106.829 19.113C107.1 19.397 107.46 19.54 107.905 19.54C108.501 19.54 108.96 19.323 109.282 18.89H109.311L109.389 19.433ZM109.242 17.813V17.086C108.086 17.066 107.508 17.383 107.508 18.036C107.508 18.282 107.574 18.466 107.709 18.589C107.844 18.712 108.016 18.773 108.221 18.773C108.451 18.773 108.666 18.7 108.862 18.555C109.059 18.409 109.18 18.224 109.225 17.997C109.236 17.946 109.242 17.884 109.242 17.813ZM115.355 19.433H116.285C116.26 19.045 116.248 18.622 116.248 18.163V12.556H115.199V15.262H115.179C114.927 14.835 114.484 14.622 113.851 14.622C113.275 14.622 112.791 14.842 112.396 15.282C111.988 15.754 111.785 16.372 111.785 17.135C111.785 17.846 111.972 18.425 112.347 18.871C112.722 19.317 113.195 19.54 113.763 19.54C114.474 19.54 114.98 19.252 115.277 18.676H115.306L115.355 19.433ZM115.199 17.445V16.659C115.199 16.523 115.189 16.413 115.17 16.329C115.111 16.077 114.984 15.865 114.791 15.694C114.596 15.523 114.361 15.437 114.09 15.437C113.699 15.437 113.393 15.592 113.168 15.903C112.945 16.214 112.832 16.611 112.832 17.096C112.832 17.562 112.939 17.94 113.154 18.231C113.381 18.541 113.687 18.696 114.07 18.696C114.414 18.696 114.689 18.567 114.898 18.308C115.1 18.069 115.199 17.781 115.199 17.445ZM124.627 18.822C125.041 18.356 125.248 17.762 125.248 17.037C125.248 16.333 125.047 15.757 124.647 15.311C124.227 14.852 123.67 14.623 122.979 14.623C122.26 14.623 121.69 14.856 121.266 15.321C120.842 15.786 120.631 16.385 120.631 17.115C120.631 17.813 120.836 18.392 121.246 18.851C121.658 19.311 122.209 19.54 122.9 19.54C123.619 19.54 124.193 19.301 124.627 18.822ZM124.162 17.071C124.162 16.636 124.068 16.263 123.881 15.952C123.66 15.576 123.348 15.388 122.94 15.388C122.52 15.388 122.2 15.576 121.979 15.952C121.791 16.263 121.698 16.642 121.698 17.09C121.698 17.525 121.792 17.898 121.979 18.209C122.206 18.585 122.522 18.773 122.93 18.773C123.33 18.773 123.645 18.582 123.871 18.199C124.064 17.882 124.162 17.506 124.162 17.071ZM129.836 19.433H130.883V16.609C130.883 15.917 130.703 15.396 130.34 15.047C130.049 14.762 129.683 14.62 129.244 14.62C128.895 14.62 128.578 14.709 128.293 14.885C128.055 15.036 127.873 15.225 127.75 15.454H127.721L127.672 14.717H126.752C126.777 15.203 126.789 15.652 126.789 16.066V19.432H127.838V16.636C127.838 16.327 127.935 16.057 128.129 15.828C128.323 15.599 128.574 15.485 128.885 15.485C129.52 15.485 129.836 15.901 129.836 16.733V19.433ZM137.935 15.504H136.782V17.794C136.782 18.376 136.987 18.667 137.393 18.667C137.581 18.667 137.737 18.651 137.86 18.618L137.887 19.413C137.68 19.491 137.408 19.53 137.073 19.53C136.659 19.53 136.337 19.404 136.104 19.152C135.87 18.9 135.754 18.476 135.754 17.881V15.504H135.065V14.719H135.754V13.855L136.781 13.545V14.718H137.935V15.504ZM142.435 19.433H143.484V16.63C143.484 15.932 143.306 15.404 142.951 15.049C142.666 14.764 142.307 14.622 141.873 14.622C141.26 14.622 140.787 14.88 140.457 15.397H140.437V12.556H139.39V19.432H140.437V16.597C140.437 16.449 140.455 16.323 140.486 16.22C140.668 15.73 141 15.485 141.486 15.485C142.119 15.485 142.435 15.908 142.435 16.753V19.433ZM149.207 16.853C149.207 17.041 149.193 17.199 149.168 17.328H146.025C146.039 17.794 146.189 18.149 146.48 18.395C146.746 18.615 147.089 18.725 147.509 18.725C147.974 18.725 148.398 18.651 148.78 18.502L148.944 19.23C148.497 19.424 147.971 19.521 147.362 19.521C146.632 19.521 146.057 19.306 145.641 18.876C145.223 18.446 145.016 17.869 145.016 17.145C145.016 16.434 145.209 15.842 145.598 15.37C146.004 14.866 146.553 14.614 147.246 14.614C147.924 14.614 148.439 14.866 148.787 15.37C149.068 15.77 149.207 16.265 149.207 16.853ZM148.004 15.777C148.146 16.003 148.215 16.271 148.207 16.582H146.025C146.059 16.265 146.162 15.994 146.336 15.767C146.549 15.482 146.828 15.34 147.17 15.34C147.545 15.34 147.822 15.486 148.004 15.777Z" fill="white"/>
<path d="M58.1281 25.784C58.0991 22.561 60.7671 20.993 60.8891 20.92C59.3781 18.717 57.0361 18.416 56.2131 18.392C54.2461 18.185 52.3381 19.569 51.3361 19.569C50.3141 19.569 48.7711 18.412 47.1081 18.446C44.9681 18.479 42.9661 19.718 41.8681 21.642C39.6021 25.565 41.2921 31.33 43.4631 34.501C44.5491 36.054 45.8181 37.788 47.4791 37.727C49.1041 37.66 49.7111 36.691 51.6721 36.691C53.6151 36.691 54.1851 37.727 55.8791 37.688C57.6231 37.66 58.7211 36.128 59.7691 34.561C61.0241 32.781 61.5281 31.028 61.5481 30.938C61.5071 30.924 58.1611 29.647 58.1281 25.784Z" fill="white"/>
<path d="M54.928 16.306C55.802 15.213 56.4 13.726 56.234 12.217C54.969 12.273 53.387 13.092 52.476 14.161C51.67 15.103 50.95 16.647 51.136 18.099C52.557 18.205 54.016 17.382 54.928 16.306Z" fill="white"/>
</svg>
