<svg width="146" height="40" viewBox="0 0 146 40" fill="none" xmlns="http://www.w3.org/2000/svg">
<rect width="146" height="40" rx="4" fill="#D8D8D8"/>
<mask id="mask0" mask-type="alpha" maskUnits="userSpaceOnUse" x="0" y="0" width="146" height="40">
<rect width="146" height="40" rx="4" fill="white"/>
</mask>
<g mask="url(#mask0)">
<rect width="146" height="40" fill="white"/>
</g>
<path fill-rule="evenodd" clip-rule="evenodd" d="M94.8569 30.536C95.6459 29.825 96.0389 28.904 96.0389 27.772C96.0389 26.852 95.7699 26.081 95.2309 25.465C94.6899 24.847 93.8489 24.308 92.7039 23.847C91.7679 23.478 91.1229 23.136 90.7679 22.82C90.3599 22.478 90.1569 22.043 90.1569 21.517C90.1569 21.042 90.3349 20.641 90.6899 20.312C91.1099 19.944 91.6959 19.759 92.4459 19.759C93.3949 19.759 94.2429 19.963 94.9929 20.371L95.5259 18.633C94.7229 18.212 93.7169 18.001 92.5059 18.001C91.1479 18.001 90.0619 18.35 89.2479 19.049C88.4309 19.747 88.0229 20.644 88.0229 21.738C88.0229 23.412 89.1869 24.685 91.5169 25.554C92.3729 25.871 92.9859 26.214 93.3529 26.583C93.7219 26.952 93.9059 27.407 93.9059 27.947C93.9059 28.553 93.6829 29.039 93.2359 29.401C92.7869 29.763 92.1619 29.945 91.3589 29.945C90.2399 29.945 89.2129 29.661 88.2769 29.095L87.7829 30.872C88.6519 31.425 89.7999 31.701 91.2319 31.701C92.7829 31.701 93.9899 31.313 94.8569 30.536ZM61.6449 31.504H59.3739L58.1299 27.595H53.8059L52.6209 31.504H50.4099L54.6939 18.196H57.3399L61.6449 31.504ZM57.7549 25.955L56.6299 22.48C56.5109 22.125 56.2879 21.289 55.9589 19.973H55.9189C55.7879 20.539 55.5769 21.375 55.2869 22.48L54.1819 25.955H57.7549ZM71.3389 30.457C72.2209 29.51 72.6619 28.22 72.6619 26.588C72.6619 25.127 72.2839 23.949 71.5259 23.053C70.7699 22.158 69.8249 21.711 68.6929 21.711C67.2449 21.711 66.1659 22.283 65.4549 23.429H65.4149L65.2959 21.908H63.4209C63.4729 22.988 63.4999 24.041 63.4999 25.067V35.414H65.6319V30.359H65.6719C66.2249 31.267 67.1329 31.721 68.3969 31.721C69.5679 31.721 70.5489 31.3 71.3389 30.457ZM70.4899 26.666C70.4899 25.732 70.2799 24.962 69.8579 24.356C69.3969 23.724 68.7779 23.408 68.0019 23.408C67.4759 23.408 66.9979 23.584 66.5709 23.931C66.1429 24.281 65.8629 24.738 65.7319 25.304C65.6659 25.568 65.6329 25.784 65.6329 25.954V27.554C65.6329 28.252 65.8469 28.841 66.2749 29.322C66.7029 29.803 67.2589 30.043 67.9429 30.043C68.7459 30.043 69.3709 29.733 69.8179 29.115C70.2659 28.496 70.4899 27.68 70.4899 26.666ZM82.3749 30.457C83.2579 29.51 83.6989 28.22 83.6989 26.588C83.6989 25.127 83.3199 23.949 82.5649 23.053C81.8069 22.158 80.8619 21.711 79.7309 21.711C78.2819 21.711 77.2029 22.283 76.4929 23.429H76.4529L76.3339 21.908H74.4589C74.5109 22.988 74.5379 24.041 74.5379 25.067V35.414H76.6699V30.359H76.7099C77.2619 31.267 78.1699 31.721 79.4339 31.721C80.6049 31.721 81.5859 31.3 82.3749 30.457ZM81.5269 26.666C81.5269 25.732 81.3159 24.962 80.8939 24.356C80.4329 23.724 79.8159 23.408 79.0389 23.408C78.5119 23.408 78.0349 23.584 77.6069 23.931C77.1789 24.281 76.8999 24.738 76.7689 25.304C76.7039 25.568 76.6699 25.784 76.6699 25.954V27.554C76.6699 28.252 76.8839 28.841 77.3099 29.322C77.7379 29.802 78.2939 30.043 78.9799 30.043C79.7829 30.043 80.4079 29.733 80.8549 29.115C81.3029 28.496 81.5269 27.68 81.5269 26.666ZM103.088 23.508H100.738V28.167C100.738 29.352 101.152 29.944 101.982 29.944C102.363 29.944 102.679 29.911 102.929 29.845L102.988 31.464C102.568 31.621 102.015 31.7 101.33 31.7C100.488 31.7 99.8299 31.443 99.3549 30.93C98.8819 30.416 98.6439 29.554 98.6439 28.343V23.506H97.2439V21.906H98.6439V20.149L100.738 19.517V21.906H103.088V23.508ZM112.427 30.26C113.269 29.313 113.691 28.102 113.691 26.627C113.691 25.192 113.283 24.021 112.465 23.114C111.61 22.179 110.477 21.712 109.069 21.712C107.608 21.712 106.446 22.186 105.585 23.134C104.722 24.081 104.292 25.299 104.292 26.786C104.292 28.207 104.71 29.386 105.546 30.32C106.382 31.254 107.503 31.721 108.911 31.721C110.372 31.721 111.544 31.235 112.427 30.26ZM111.479 26.696C111.479 25.811 111.29 25.052 110.907 24.419C110.46 23.653 109.821 23.271 108.993 23.271C108.136 23.271 107.485 23.654 107.038 24.419C106.655 25.053 106.466 25.824 106.466 26.736C106.466 27.621 106.655 28.38 107.038 29.012C107.499 29.778 108.143 30.16 108.974 30.16C109.788 30.16 110.427 29.77 110.888 28.992C111.281 28.347 111.479 27.58 111.479 26.696ZM119.949 23.724C120.185 23.724 120.41 23.744 120.621 23.783V21.75C120.463 21.725 120.285 21.711 120.088 21.711C119.535 21.711 119.022 21.882 118.547 22.225C118.061 22.606 117.706 23.114 117.481 23.745H117.422L117.344 21.909H115.487C115.54 22.817 115.567 23.824 115.567 24.93L115.547 31.504H117.678V26.469C117.678 25.706 117.856 25.074 118.211 24.574C118.619 24.007 119.199 23.724 119.949 23.724ZM130.156 26.252C130.156 26.634 130.131 26.956 130.078 27.219H123.682C123.707 28.167 124.016 28.892 124.61 29.392C125.149 29.839 125.846 30.063 126.702 30.063C127.649 30.063 128.513 29.912 129.29 29.609L129.624 31.089C128.716 31.485 127.644 31.682 126.407 31.682C124.919 31.682 123.751 31.244 122.901 30.369C122.053 29.494 121.628 28.319 121.628 26.845C121.628 25.398 122.023 24.193 122.814 23.232C123.642 22.206 124.761 21.693 126.169 21.693C127.552 21.693 128.599 22.206 129.31 23.232C129.873 24.047 130.156 25.055 130.156 26.252ZM127.709 24.06C127.998 24.521 128.137 25.067 128.123 25.699V25.698H123.682C123.747 25.054 123.958 24.501 124.313 24.04C124.746 23.46 125.313 23.171 126.01 23.171C126.773 23.171 127.34 23.467 127.709 24.06Z" fill="black"/>
<path fill-rule="evenodd" clip-rule="evenodd" d="M79.088 13.4329H78.041V6.55591H79.088V13.4329ZM55.992 12.6669C56.697 12.0719 57.05 11.1859 57.05 10.0089C57.05 8.96091 56.723 8.15591 56.071 7.59291C55.489 7.09491 54.626 6.84591 53.481 6.84591C52.833 6.84591 52.233 6.89191 51.676 6.98191V13.4129C52.103 13.4649 52.613 13.4909 53.209 13.4909C54.411 13.4909 55.339 13.2159 55.992 12.6669ZM55.339 8.28191C55.743 8.68991 55.945 9.27491 55.945 10.0379C55.945 10.8919 55.725 11.5419 55.289 11.9879C54.853 12.4339 54.234 12.6569 53.432 12.6569C53.089 12.6569 52.853 12.6479 52.724 12.6279V7.73891C52.957 7.69291 53.238 7.67091 53.568 7.67091C54.345 7.67091 54.935 7.87491 55.339 8.28191ZM62.909 11.0369C62.909 11.7619 62.702 12.3559 62.288 12.8219C61.854 13.3009 61.279 13.5399 60.561 13.5399C59.869 13.5399 59.318 13.3109 58.907 12.8509C58.497 12.3919 58.292 11.8129 58.292 11.1149C58.292 10.3849 58.503 9.78591 58.927 9.32091C59.351 8.85591 59.921 8.62291 60.639 8.62291C61.331 8.62291 61.887 8.85191 62.308 9.31091C62.708 9.75691 62.909 10.3329 62.909 11.0369ZM61.541 9.95191C61.728 10.2629 61.822 10.6359 61.822 11.0709C61.822 11.5059 61.725 11.8819 61.531 12.1989C61.305 12.5819 60.991 12.7729 60.591 12.7729C60.183 12.7729 59.867 12.5849 59.64 12.2089C59.453 11.8979 59.359 11.5249 59.359 11.0899C59.359 10.6419 59.452 10.2629 59.64 9.95191C59.86 9.57591 60.18 9.38791 60.601 9.38791C61.008 9.38791 61.321 9.57591 61.541 9.95191ZM70.765 8.71891L70.7647 8.71991H69.736L69.164 10.9219C69.022 11.4719 68.915 11.9889 68.844 12.4739H68.815C68.718 11.9759 68.592 11.4589 68.437 10.9219L67.796 8.71991H66.942L66.273 10.9699C66.091 11.5769 65.962 12.0789 65.884 12.4729H65.865C65.78 11.9949 65.674 11.4899 65.545 10.9599L65.012 8.71891H63.935L65.322 13.4329H66.293L66.942 11.3859C67.104 10.8879 67.23 10.3809 67.321 9.86291H67.34C67.438 10.3669 67.564 10.8749 67.719 11.3859L68.33 13.4329H69.29L70.7647 8.71991H70.765V8.71891ZM75.15 13.4329H76.198V10.6089C76.198 9.91691 76.017 9.39591 75.655 9.04691C75.364 8.76191 74.998 8.61991 74.558 8.61991C74.21 8.61991 73.892 8.70891 73.608 8.88491C73.369 9.03591 73.187 9.22491 73.065 9.45391H73.036L72.987 8.71691H72.066C72.091 9.20291 72.104 9.65191 72.104 10.0659V13.4319H73.152V10.6359C73.152 10.3269 73.25 10.0569 73.443 9.82791C73.638 9.59891 73.889 9.48491 74.2 9.48491C74.834 9.48491 75.15 9.90091 75.15 10.7329V13.4329ZM84.637 12.8219C85.051 12.3559 85.258 11.7619 85.258 11.0369C85.258 10.3329 85.057 9.75691 84.657 9.31091C84.235 8.85191 83.68 8.62291 82.987 8.62291C82.27 8.62291 81.7 8.85591 81.276 9.32091C80.852 9.78591 80.641 10.3849 80.641 11.1149C80.641 11.8129 80.846 12.3919 81.256 12.8509C81.666 13.3109 82.217 13.5399 82.91 13.5399C83.627 13.5399 84.203 13.3009 84.637 12.8219ZM84.17 11.0709C84.17 10.6359 84.076 10.2629 83.889 9.95191C83.67 9.57591 83.356 9.38791 82.95 9.38791C82.528 9.38791 82.208 9.57591 81.989 9.95191C81.801 10.2629 81.708 10.6419 81.708 11.0899C81.708 11.5249 81.802 11.8979 81.989 12.2089C82.216 12.5849 82.532 12.7729 82.94 12.7729C83.34 12.7729 83.653 12.5819 83.879 12.1989C84.074 11.8819 84.17 11.5059 84.17 11.0709ZM89.389 13.4329H90.33C90.285 13.1549 90.262 12.7799 90.262 12.3089V10.5729C90.262 9.27291 89.644 8.62291 88.412 8.62291C87.774 8.62291 87.233 8.75891 86.795 9.02991L87.008 9.71791C87.362 9.48591 87.772 9.36891 88.237 9.36891C88.89 9.36891 89.216 9.67891 89.216 10.2999V10.3879C88.343 10.3809 87.665 10.5299 87.183 10.8339C86.7 11.1379 86.46 11.5769 86.46 12.1529C86.46 12.5339 86.583 12.8549 86.829 13.1129C87.1 13.3969 87.46 13.5399 87.905 13.5399C88.501 13.5399 88.96 13.3229 89.282 12.8899H89.311L89.389 13.4329ZM89.242 11.8129V11.0859C88.086 11.0659 87.508 11.3829 87.508 12.0359C87.508 12.2819 87.574 12.4659 87.709 12.5889C87.844 12.7119 88.016 12.7729 88.221 12.7729C88.451 12.7729 88.666 12.6999 88.862 12.5549C89.059 12.4089 89.18 12.2239 89.225 11.9969C89.236 11.9459 89.242 11.8839 89.242 11.8129ZM95.355 13.4329H96.285C96.26 13.0449 96.248 12.6219 96.248 12.1629V6.55591H95.199V9.26191H95.179C94.927 8.83491 94.484 8.62191 93.851 8.62191C93.275 8.62191 92.791 8.84191 92.396 9.28191C91.988 9.75391 91.785 10.3719 91.785 11.1349C91.785 11.8459 91.972 12.4249 92.347 12.8709C92.722 13.3169 93.195 13.5399 93.763 13.5399C94.474 13.5399 94.98 13.2519 95.277 12.6759H95.306L95.355 13.4329ZM95.199 11.4449V10.6589C95.199 10.5229 95.189 10.4129 95.17 10.3289C95.111 10.0769 94.984 9.86491 94.791 9.69391C94.596 9.52291 94.361 9.43691 94.09 9.43691C93.699 9.43691 93.393 9.59191 93.168 9.90291C92.945 10.2139 92.832 10.6109 92.832 11.0959C92.832 11.5619 92.939 11.9399 93.154 12.2309C93.381 12.5409 93.687 12.6959 94.07 12.6959C94.414 12.6959 94.689 12.5669 94.898 12.3079C95.1 12.0689 95.199 11.7809 95.199 11.4449ZM104.627 12.8219C105.041 12.3559 105.248 11.7619 105.248 11.0369C105.248 10.3329 105.047 9.75691 104.647 9.31091C104.227 8.85191 103.67 8.62291 102.979 8.62291C102.26 8.62291 101.69 8.85591 101.266 9.32091C100.842 9.78591 100.631 10.3849 100.631 11.1149C100.631 11.8129 100.836 12.3919 101.246 12.8509C101.658 13.3109 102.209 13.5399 102.9 13.5399C103.619 13.5399 104.193 13.3009 104.627 12.8219ZM104.162 11.0709C104.162 10.6359 104.068 10.2629 103.881 9.95191C103.66 9.57591 103.348 9.38791 102.94 9.38791C102.52 9.38791 102.2 9.57591 101.979 9.95191C101.791 10.2629 101.698 10.6419 101.698 11.0899C101.698 11.5249 101.792 11.8979 101.979 12.2089C102.206 12.5849 102.522 12.7729 102.93 12.7729C103.33 12.7729 103.645 12.5819 103.871 12.1989C104.064 11.8819 104.162 11.5059 104.162 11.0709ZM109.836 13.4329H110.883V10.6089C110.883 9.91691 110.703 9.39591 110.34 9.04691C110.049 8.76191 109.683 8.61991 109.244 8.61991C108.895 8.61991 108.578 8.70891 108.293 8.88491C108.055 9.03591 107.873 9.22491 107.75 9.45391H107.721L107.672 8.71691H106.752C106.777 9.20291 106.789 9.65191 106.789 10.0659V13.4319H107.838V10.6359C107.838 10.3269 107.935 10.0569 108.129 9.82791C108.323 9.59891 108.574 9.48491 108.885 9.48491C109.52 9.48491 109.836 9.90091 109.836 10.7329V13.4329ZM117.935 9.50391H116.782V11.7939C116.782 12.3759 116.987 12.6669 117.393 12.6669C117.581 12.6669 117.737 12.6509 117.86 12.6179L117.887 13.4129C117.68 13.4909 117.408 13.5299 117.073 13.5299C116.659 13.5299 116.337 13.4039 116.104 13.1519C115.87 12.8999 115.754 12.4759 115.754 11.8809V9.50391H115.065V8.71891H115.754V7.85491L116.781 7.54491V8.71791H117.935V9.50391ZM122.435 13.4329H123.484V10.6299C123.484 9.93191 123.306 9.40391 122.951 9.04891C122.666 8.76391 122.307 8.62191 121.873 8.62191C121.26 8.62191 120.787 8.87991 120.457 9.39691H120.437V6.55591H119.39V13.4319H120.437V10.5969C120.437 10.4489 120.455 10.3229 120.486 10.2199C120.668 9.72991 121 9.48491 121.486 9.48491C122.119 9.48491 122.435 9.90791 122.435 10.7529V13.4329ZM129.207 10.8529C129.207 11.0409 129.193 11.1989 129.168 11.3279H126.025C126.039 11.7939 126.189 12.1489 126.48 12.3949C126.746 12.6149 127.089 12.7249 127.509 12.7249C127.974 12.7249 128.398 12.6509 128.78 12.5019L128.944 13.2299C128.497 13.4239 127.971 13.5209 127.362 13.5209C126.632 13.5209 126.057 13.3059 125.641 12.8759C125.223 12.4459 125.016 11.8689 125.016 11.1449C125.016 10.4339 125.209 9.84191 125.598 9.36991C126.004 8.86591 126.553 8.61391 127.246 8.61391C127.924 8.61391 128.439 8.86591 128.787 9.36991C129.068 9.76991 129.207 10.2649 129.207 10.8529ZM128.004 9.77691C128.146 10.0029 128.215 10.2709 128.207 10.5819H126.025C126.059 10.2649 126.162 9.99391 126.336 9.76691C126.549 9.48191 126.828 9.33991 127.17 9.33991C127.545 9.33991 127.822 9.48591 128.004 9.77691Z" fill="black"/>
<path d="M38.1281 19.784C38.0991 16.561 40.7671 14.993 40.8891 14.92C39.3781 12.717 37.0361 12.416 36.2131 12.392C34.2461 12.185 32.3381 13.569 31.3361 13.569C30.3141 13.569 28.7711 12.412 27.1081 12.446C24.9681 12.479 22.9661 13.718 21.8681 15.642C19.6021 19.565 21.2921 25.33 23.4631 28.501C24.5491 30.054 25.8181 31.788 27.4791 31.727C29.1041 31.66 29.7111 30.691 31.6721 30.691C33.6151 30.691 34.1851 31.727 35.8791 31.688C37.6231 31.66 38.7211 30.128 39.7691 28.561C41.0241 26.781 41.5281 25.028 41.5481 24.938C41.5071 24.924 38.1611 23.647 38.1281 19.784Z" fill="black"/>
<path d="M34.928 10.306C35.802 9.21304 36.4 7.72604 36.234 6.21704C34.969 6.27304 33.387 7.09204 32.476 8.16104C31.67 9.10304 30.95 10.647 31.136 12.099C32.557 12.205 34.016 11.382 34.928 10.306Z" fill="black"/>
</svg>
