<svg width="188" height="51" viewBox="0 0 188 51" fill="none" xmlns="http://www.w3.org/2000/svg">
<rect width="187.425" height="51" rx="4" fill="#D8D8D8"/>
<mask id="mask0" mask-type="alpha" maskUnits="userSpaceOnUse" x="0" y="0" width="188" height="51">
<rect width="187.425" height="51" rx="4" fill="white"/>
</mask>
<g mask="url(#mask0)">
<rect width="187.425" height="51" fill="black"/>
</g>
<path fill-rule="evenodd" clip-rule="evenodd" d="M133.936 36.0002H135.801V23.4992H133.936V36.0002ZM150.743 28.0022L148.604 33.4222H148.54L146.32 28.0022H144.31L147.64 35.5772L145.741 39.7912H147.687L152.818 28.0022H150.743ZM140.16 34.5802C139.55 34.5802 138.697 34.2742 138.697 33.5182C138.697 32.5542 139.759 32.1832 140.676 32.1832C141.495 32.1832 141.882 32.3612 142.38 32.6012C142.235 33.7602 141.238 34.5802 140.16 34.5802ZM140.386 27.7282C139.035 27.7282 137.636 28.3242 137.057 29.6422L138.713 30.3342C139.067 29.6422 139.726 29.4172 140.418 29.4172C141.383 29.4172 142.364 29.9962 142.38 31.0252V31.1542C142.042 30.9612 141.318 30.6722 140.434 30.6722C138.648 30.6722 136.831 31.6532 136.831 33.4862C136.831 35.1592 138.295 36.2372 139.935 36.2372C141.189 36.2372 141.882 35.6742 142.315 35.0142H142.38V35.9792H144.182V31.1862C144.182 28.9672 142.524 27.7282 140.386 27.7282ZM128.854 29.5242H126.2V25.2392H128.854C130.249 25.2392 131.041 26.3932 131.041 27.3812C131.041 28.3502 130.249 29.5242 128.854 29.5242ZM128.806 23.4982H124.335V36.0002H126.2V31.2642H128.806C130.874 31.2642 132.907 29.7662 132.907 27.3812C132.907 24.9962 130.874 23.4982 128.806 23.4982ZM104.425 34.5822C103.136 34.5822 102.057 33.5032 102.057 32.0212C102.057 30.5222 103.136 29.4272 104.425 29.4272C105.697 29.4272 106.696 30.5222 106.696 32.0212C106.696 33.5032 105.697 34.5822 104.425 34.5822ZM106.567 28.7022H106.503C106.084 28.2032 105.278 27.7512 104.264 27.7512C102.137 27.7512 100.187 29.6202 100.187 32.0212C100.187 34.4052 102.137 36.2582 104.264 36.2582C105.278 36.2582 106.084 35.8072 106.503 35.2912H106.567V35.9032C106.567 37.5312 105.697 38.4002 104.296 38.4002C103.152 38.4002 102.443 37.5792 102.153 36.8862L100.526 37.5632C100.993 38.6902 102.233 40.0762 104.296 40.0762C106.487 40.0762 108.34 38.7872 108.34 35.6452V28.0092H106.567V28.7022ZM109.629 36.0002H111.497V23.4992H109.629V36.0002ZM114.252 31.8762C114.204 30.2322 115.525 29.3952 116.475 29.3952C117.217 29.3952 117.845 29.7662 118.055 30.2972L114.252 31.8762ZM120.052 30.4582C119.697 29.5082 118.618 27.7512 116.411 27.7512C114.22 27.7512 112.399 29.4752 112.399 32.0052C112.399 34.3892 114.204 36.2582 116.62 36.2582C118.569 36.2582 119.697 35.0662 120.165 34.3732L118.715 33.4062C118.231 34.1152 117.571 34.5822 116.62 34.5822C115.67 34.5822 114.993 34.1472 114.559 33.2932L120.245 30.9412L120.052 30.4582ZM74.744 29.0572V30.8612H79.061C78.933 31.8762 78.594 32.6172 78.079 33.1322C77.45 33.7612 76.467 34.4542 74.744 34.4542C72.085 34.4542 70.007 32.3112 70.007 29.6532C70.007 26.9952 72.085 24.8512 74.744 24.8512C76.178 24.8512 77.225 25.4152 77.998 26.1412L79.271 24.8682C78.191 23.8372 76.758 23.0472 74.744 23.0472C71.102 23.0472 68.041 26.0122 68.041 29.6532C68.041 33.2932 71.102 36.2582 74.744 36.2582C76.709 36.2582 78.191 35.6132 79.351 34.4052C80.543 33.2132 80.914 31.5372 80.914 30.1842C80.914 29.7662 80.882 29.3792 80.817 29.0572H74.744ZM85.822 34.5822C84.534 34.5822 83.422 33.5192 83.422 32.0052C83.422 30.4742 84.534 29.4272 85.822 29.4272C87.111 29.4272 88.223 30.4742 88.223 32.0052C88.223 33.5192 87.111 34.5822 85.822 34.5822ZM85.822 27.7512C83.47 27.7512 81.553 29.5402 81.553 32.0052C81.553 34.4542 83.47 36.2582 85.822 36.2582C88.175 36.2582 90.092 34.4542 90.092 32.0052C90.092 29.5402 88.175 27.7512 85.822 27.7512ZM95.136 34.5822C93.847 34.5822 92.735 33.5192 92.735 32.0052C92.735 30.4742 93.847 29.4272 95.136 29.4272C96.425 29.4272 97.536 30.4742 97.536 32.0052C97.536 33.5192 96.425 34.5822 95.136 34.5822ZM95.136 27.7512C92.784 27.7512 90.867 29.5402 90.867 32.0052C90.867 34.4542 92.784 36.2582 95.136 36.2582C97.488 36.2582 99.405 34.4542 99.405 32.0052C99.405 29.5402 97.488 27.7512 95.136 27.7512Z" fill="white"/>
<path fill-rule="evenodd" clip-rule="evenodd" d="M73.6733 18.2463C74.1703 17.7483 74.4183 17.0813 74.4183 16.2433C74.4183 16.0973 74.4043 15.9473 74.3763 15.7903H71.4693V16.5113H73.6473C73.6033 17.0313 73.4353 17.4353 73.1453 17.7263C72.6973 18.1733 72.1393 18.3963 71.4693 18.3963C70.8373 18.3963 70.2913 18.1753 69.8303 17.7303C69.3693 17.2863 69.1393 16.7093 69.1393 16.0003C69.1393 15.2903 69.3693 14.7143 69.8303 14.2693C70.2913 13.8253 70.8373 13.6033 71.4693 13.6033C72.1673 13.6033 72.7143 13.8413 73.1113 14.3153L73.6393 13.7873C73.4043 13.5083 73.0913 13.2853 72.7003 13.1173C72.3103 12.9503 71.8983 12.8663 71.4693 12.8663C70.6033 12.8663 69.8663 13.1663 69.2613 13.7663C68.6543 14.3673 68.3523 15.1113 68.3523 16.0003C68.3523 16.8883 68.6543 17.6333 69.2613 18.2333C69.8663 18.8343 70.6033 19.1343 71.4693 19.1343C72.3733 19.1343 73.1083 18.8383 73.6733 18.2463ZM76.2956 13.7374H79.0276V13.0004H75.5246V19.0004H79.0276V18.2624H76.2956V16.3604H78.7586V15.6394H76.2956V13.7374ZM82.2786 19.0001H81.5076V13.7371H79.8316V13.0001H83.9546V13.7371H82.2786V19.0001ZM87.7089 19.0002H86.9379V13.0002H87.7089V19.0002ZM91.1282 19.0001H90.3572V13.7371H88.6812V13.0001H92.8042V13.7371H91.1282V19.0001ZM98.4091 19.1343C99.2861 19.1343 100.019 18.8313 100.609 18.2243C101.198 17.6183 101.493 16.8773 101.493 16.0003C101.493 15.1283 101.197 14.3883 100.605 13.7793C100.012 13.1703 99.2811 12.8663 98.4091 12.8663C97.5321 12.8663 96.7991 13.1693 96.2101 13.7753C95.6201 14.3813 95.3261 15.1233 95.3261 16.0003C95.3261 16.8773 95.6201 17.6183 96.2101 18.2243C96.7991 18.8313 97.5321 19.1343 98.4091 19.1343ZM96.7791 17.7223C97.2231 18.1723 97.7661 18.3963 98.4091 18.3963C99.0511 18.3963 99.5951 18.1723 100.039 17.7223C100.483 17.2723 100.706 16.6983 100.706 16.0003C100.706 15.3023 100.483 14.7273 100.039 14.2783C99.5951 13.8283 99.0511 13.6033 98.4091 13.6033C97.7661 13.6033 97.2231 13.8283 96.7791 14.2783C96.3361 14.7273 96.1131 15.3023 96.1131 16.0003C96.1131 16.6983 96.3361 17.2723 96.7791 17.7223ZM102.575 13.0001V19.0001H103.346V15.2631L103.312 14.1061H103.346L106.396 19.0001H107.201V13.0001H106.429V16.5111L106.463 17.6671H106.429L103.513 13.0001H102.575Z" fill="white"/>
<path fill-rule="evenodd" clip-rule="evenodd" d="M37.5002 13.4745C37.4971 13.4774 37.494 13.4803 37.4909 13.4832L37.5089 13.4652C37.7445 13.2534 38.0463 13.1402 38.3929 13.1402C38.7309 13.1402 39.1119 13.2482 39.5139 13.4772L54.1219 21.7772L59.0149 24.5572C60.4119 25.3512 60.4119 26.6512 59.0149 27.4462L54.1219 30.2262L54.0552 30.2631L39.5139 38.5252C38.9067 38.8702 38.3478 38.9402 37.9099 38.7781C37.7617 38.7233 37.6273 38.6418 37.5096 38.5355L37.4904 38.5177C37.4718 38.5002 37.4536 38.482 37.4359 38.4632C37.1449 38.1562 36.9729 37.6792 36.9729 37.0592V14.9432C36.9729 14.3242 37.1449 13.8462 37.4359 13.5382C37.5065 13.4688 37.5033 13.4716 37.5002 13.4745C37.4782 13.4949 37.4567 13.5161 37.4359 13.5382L49.8989 26.0012L37.4359 38.4632L54.1219 21.7772L49.8989 26.0012L37.5002 13.4745Z" fill="white"/>
</svg>
