<svg width="1920" height="960" viewBox="0 0 1920 960" fill="none" xmlns="http://www.w3.org/2000/svg">
<path d="M1263.89 960.001C1258.35 901.077 1277.83 838.83 1316.35 793.64C1354.64 748.45 1412.86 719.21 1471.96 715.222C1532.61 711.235 1591.94 732.058 1649.27 752.216C1709.92 773.482 1772.57 795.412 1836.32 787.659C1881.92 782.121 1924.86 761.741 1966.25 742.026C2015.4 718.767 2066.09 694.621 2120.54 695.729C2139.14 696.172 2157.73 699.495 2175.66 702.596C2200.67 707.026 2226.57 711.678 2252.03 708.134C2289.66 703.039 2326.18 680.444 2354.96 644.558C2379.31 613.988 2395.69 578.545 2412.51 534.906C2422.03 510.317 2430.89 484.4 2428.45 458.26C2426.02 433.45 2409.86 405.982 2383.07 400.887L2383.29 399.779C2410.52 404.874 2427.12 433.007 2429.56 458.039C2431.99 484.178 2423.14 510.539 2413.62 535.127C2396.8 578.988 2380.42 614.431 2355.85 645.222C2326.85 681.551 2290.1 704.146 2252.03 709.241C2226.35 712.564 2200.45 708.134 2175.44 703.703C2157.51 700.602 2138.91 697.279 2120.32 696.836C2066.09 695.729 2015.4 719.874 1966.48 743.134C1924.86 762.849 1881.92 783.229 1836.1 788.767C1827.24 789.874 1818.39 790.317 1809.31 790.317C1754.64 790.317 1700.85 771.488 1648.61 753.102C1591.27 732.944 1531.95 712.343 1471.74 716.33C1412.86 720.317 1355.09 749.336 1316.79 794.305C1278.94 839.273 1259.46 901.077 1264.99 960.001H1263.89Z" fill="white"/>
<g style="mix-blend-mode:color-dodge" filter="url(#filter0_d)">
<path d="M338.324 338.119L336.881 336.676L570.35 103L572 104.444L338.324 338.119Z" fill="url(#paint0_linear)"/>
<path d="M322.444 466.197L321 464.754L444.953 340.594L446.397 342.038L322.444 466.197Z" fill="url(#paint1_linear)"/>
</g>
<path d="M1549.5 269C1478.63 269 1411.78 241.349 1361.85 191.417C1311.92 141.485 1284 74.3716 1284 3.5C1284 -67.3716 1311.65 -134.216 1361.58 -184.149C1411.78 -234.349 1478.63 -262 1549.5 -262C1620.37 -262 1687.22 -234.349 1737.15 -184.417C1787.35 -134.216 1814.73 -67.64 1814.73 3.23154C1814.73 74.1031 1787.08 140.948 1737.15 190.88C1687.22 240.812 1620.37 269 1549.5 269ZM1549.5 -260.658C1403.73 -260.658 1285.34 -142.27 1285.34 3.5C1285.34 149.27 1403.73 267.658 1549.5 267.658C1695.27 267.658 1813.66 149.27 1813.66 3.5C1813.66 -142.27 1695.27 -260.658 1549.5 -260.658Z" fill="white" fill-opacity="0.5"/>
<path d="M1549.5 235.98C1421.45 235.98 1317.02 131.821 1317.02 3.50005C1317.02 -124.552 1421.18 -228.98 1549.5 -228.98C1677.55 -228.98 1781.98 -124.82 1781.98 3.50005C1781.98 131.552 1677.55 235.98 1549.5 235.98ZM1549.5 -227.638C1421.98 -227.638 1318.36 -124.015 1318.36 3.50005C1318.36 131.015 1421.98 234.638 1549.5 234.638C1677.02 234.638 1780.64 131.015 1780.64 3.50005C1780.64 -124.015 1677.02 -227.638 1549.5 -227.638Z" fill="white" fill-opacity="0.5"/>
<path d="M1549.5 202.692C1439.7 202.692 1350.31 113.297 1350.31 3.49998C1350.31 -106.297 1439.7 -195.692 1549.5 -195.692C1659.3 -195.692 1748.69 -106.297 1748.69 3.49998C1748.69 113.297 1659.3 202.692 1549.5 202.692ZM1549.5 -194.35C1440.24 -194.35 1351.65 -105.492 1351.65 3.49998C1351.65 112.76 1440.51 201.35 1549.5 201.35C1658.49 201.35 1747.35 112.492 1747.35 3.49998C1747.35 -105.76 1658.76 -194.35 1549.5 -194.35Z" fill="white" fill-opacity="0.5"/>
<path d="M1549.5 169.672C1457.96 169.672 1383.33 95.0425 1383.33 3.50003C1383.33 -88.0424 1457.96 -162.672 1549.5 -162.672C1641.04 -162.672 1715.67 -88.0424 1715.67 3.50003C1715.67 95.0425 1641.04 169.672 1549.5 169.672ZM1549.5 -161.33C1458.49 -161.33 1384.67 -87.5055 1384.67 3.50003C1384.67 94.5056 1458.49 168.33 1549.5 168.33C1640.51 168.33 1714.33 94.5056 1714.33 3.50003C1714.33 -87.5055 1640.51 -161.33 1549.5 -161.33Z" fill="white" fill-opacity="0.5"/>
<path d="M1549.5 136.653C1476.21 136.653 1416.35 77.0562 1416.35 3.50008C1416.35 -69.7876 1475.94 -129.653 1549.5 -129.653C1623.06 -129.653 1682.65 -70.056 1682.65 3.50008C1682.65 76.7877 1622.79 136.653 1549.5 136.653ZM1549.5 -128.31C1476.75 -128.31 1417.69 -69.2507 1417.69 3.50008C1417.69 76.2508 1476.75 135.31 1549.5 135.31C1622.25 135.31 1681.31 76.2508 1681.31 3.50008C1681.31 -69.2507 1622.25 -128.31 1549.5 -128.31Z" fill="white" fill-opacity="0.5"/>
<g style="mix-blend-mode:soft-light">
<path d="M711.971 -133.977C657.883 -10.3619 498.194 35.9937 423.501 146.732C387.442 198.239 374.564 262.621 353.959 321.854C333.354 386.236 292.144 422.291 243.208 468.646C160.788 551.057 55.1873 594.837 -42.6862 654.069C-68.4424 669.521 -94.1987 684.973 -117.379 703L-411 409.414L526.526 -528C531.677 -525.425 536.828 -522.849 539.404 -520.274C663.034 -448.165 776.361 -275.619 711.971 -133.977Z" fill="url(#paint2_linear)"/>
</g>
<g style="mix-blend-mode:soft-light">
<path d="M477.589 -401.81C526.526 -350.304 544.555 -270.469 511.072 -208.662C495.619 -180.333 472.438 -159.731 449.257 -136.553C415.774 -105.649 379.716 -72.1701 346.233 -41.2663C307.598 -5.21188 268.964 30.8425 243.208 77.1982C217.452 123.554 209.725 180.211 183.968 226.566C145.334 301.25 68.0655 347.606 -9.20309 381.085C-86.4717 414.564 -168.892 435.167 -243.585 473.797C-264.19 486.673 -287.37 499.55 -305.4 515.002L-411 409.414L433.804 -435.289C449.257 -424.988 464.711 -414.687 477.589 -401.81Z" fill="url(#paint3_linear)"/>
</g>
<g style="mix-blend-mode:soft-light">
<path d="M490.465 -105.65C451.831 -20.6644 343.655 12.8147 292.143 87.4988C266.386 123.553 258.66 167.334 243.206 208.539C227.752 252.319 199.42 278.072 165.937 311.551C109.274 368.208 37.1562 399.112 -32.3856 440.317C-50.4149 450.618 -68.4443 460.919 -83.898 473.796L-287.372 270.346L361.684 -381.208C364.26 -378.633 366.836 -378.633 371.987 -376.058C454.407 -324.551 534.251 -206.087 490.465 -105.65Z" fill="url(#paint4_linear)"/>
</g>
<g style="mix-blend-mode:soft-light">
<path d="M328.202 -293.648C361.685 -260.169 374.563 -203.512 351.383 -159.731C341.08 -141.704 325.626 -126.252 307.597 -110.8C284.416 -90.1978 261.236 -67.02 235.48 -43.8422C209.723 -18.0891 181.392 5.08878 165.938 38.5679C147.909 72.0469 142.757 110.677 124.728 141.58C96.396 193.087 44.8837 226.566 -9.20435 247.168C-63.2924 270.346 -119.956 283.223 -171.468 311.551C-186.922 319.277 -202.376 329.578 -215.254 339.88L-289.947 265.195L297.294 -316.825C307.597 -309.099 317.899 -301.374 328.202 -293.648Z" fill="url(#paint5_linear)"/>
</g>
<g clip-path="url(#clip0)">
<path d="M6.20001 9.40007C7.60001 9.40007 8.80001 8.30007 8.80001 6.80007C8.80001 5.40007 7.70001 4.20007 6.20001 4.20007C4.70001 4.20007 3.60001 5.30007 3.60001 6.80007C3.60001 8.30007 4.80001 9.40007 6.20001 9.40007Z" fill="white"/>
<path d="M20.3 9.40007C21.7 9.40007 22.9 8.30007 22.9 6.80007C22.9 5.40007 21.8 4.20007 20.3 4.20007C18.8 4.20007 17.7 5.30007 17.7 6.80007C17.8 8.30007 18.9 9.40007 20.3 9.40007Z" fill="white"/>
<path d="M34.5 9.40007C35.9 9.40007 37.1 8.30007 37.1 6.80007C37.1 5.40007 36 4.20007 34.5 4.20007C33 4.20007 31.9 5.30007 31.9 6.80007C31.9 8.30007 33.1 9.40007 34.5 9.40007Z" fill="white"/>
<path d="M6.20001 23.6C7.60001 23.6 8.80001 22.5 8.80001 21C8.80001 19.6 7.70001 18.4 6.20001 18.4C4.70001 18.4 3.60001 19.5 3.60001 21C3.60001 22.4 4.80001 23.6 6.20001 23.6Z" fill="white"/>
<path d="M20.3 23.6C21.7 23.6 22.9 22.5 22.9 21C22.9 19.6 21.8 18.4 20.3 18.4C18.8 18.4 17.7 19.5 17.7 21C17.8 22.4 18.9 23.6 20.3 23.6Z" fill="white"/>
<path d="M34.5 23.6C35.9 23.6 37.1 22.5 37.1 21C37.1 19.6 36 18.4 34.5 18.4C33 18.4 31.9 19.5 31.9 21C31.9 22.4 33.1 23.6 34.5 23.6Z" fill="white"/>
<path d="M6.20001 37.7C7.60001 37.7 8.80001 36.6 8.80001 35.1C8.80001 33.7 7.70001 32.5 6.20001 32.5C4.70001 32.5 3.60001 33.6 3.60001 35.1C3.60001 36.6 4.80001 37.7 6.20001 37.7Z" fill="white"/>
<path d="M20.3 37.7C21.7 37.7 22.9 36.6 22.9 35.1C22.9 33.7 21.8 32.5 20.3 32.5C18.8 32.5 17.7 33.6 17.7 35.1C17.8 36.6 18.9 37.7 20.3 37.7Z" fill="white"/>
<path d="M34.5 37.7C35.9 37.7 37.1 36.6 37.1 35.1C37.1 33.7 36 32.5 34.5 32.5C33 32.5 31.9 33.6 31.9 35.1C31.9 36.6 33.1 37.7 34.5 37.7Z" fill="white"/>
<path d="M6.20001 51.9001C7.60001 51.9001 8.80001 50.8001 8.80001 49.3001C8.80001 47.9001 7.70001 46.7001 6.20001 46.7001C4.70001 46.7001 3.60001 47.8001 3.60001 49.3001C3.60001 50.7001 4.80001 51.9001 6.20001 51.9001Z" fill="white"/>
<path d="M20.3 51.9001C21.7 51.9001 22.9 50.8001 22.9 49.3001C22.9 47.9001 21.8 46.7001 20.3 46.7001C18.8 46.7001 17.7 47.8001 17.7 49.3001C17.8 50.7001 18.9 51.9001 20.3 51.9001Z" fill="white"/>
<path d="M34.5 51.9001C35.9 51.9001 37.1 50.8001 37.1 49.3001C37.1 47.9001 36 46.7001 34.5 46.7001C33 46.7001 31.9 47.8001 31.9 49.3001C31.9 50.7001 33.1 51.9001 34.5 51.9001Z" fill="white"/>
<path d="M6.20001 66C7.60001 66 8.80001 64.9 8.80001 63.4C8.80001 62 7.70001 60.8 6.20001 60.8C4.70001 60.8 3.60001 61.9 3.60001 63.4C3.60001 64.9 4.80001 66 6.20001 66Z" fill="white"/>
<path d="M20.3 66C21.7 66 22.9 64.9 22.9 63.4C22.9 62 21.8 60.8 20.3 60.8C18.8 60.8 17.7 61.9 17.7 63.4C17.8 64.9 18.9 66 20.3 66Z" fill="white"/>
<path d="M34.5 66C35.9 66 37.1 64.9 37.1 63.4C37.1 62 36 60.8 34.5 60.8C33 60.8 31.9 61.9 31.9 63.4C31.9 64.9 33.1 66 34.5 66Z" fill="white"/>
<path d="M6.20001 80.2C7.60001 80.2 8.80001 79.1 8.80001 77.6C8.80001 76.2 7.70001 75 6.20001 75C4.70001 75 3.60001 76.1 3.60001 77.6C3.60001 79 4.80001 80.2 6.20001 80.2Z" fill="white"/>
<path d="M20.3 80.2C21.7 80.2 22.9 79.1 22.9 77.6C22.9 76.2 21.8 75 20.3 75C18.8 75 17.7 76.1 17.7 77.6C17.8 79 18.9 80.2 20.3 80.2Z" fill="white"/>
<path d="M34.5 80.2C35.9 80.2 37.1 79.1 37.1 77.6C37.1 76.2 36 75 34.5 75C33 75 31.9 76.1 31.9 77.6C31.9 79 33.1 80.2 34.5 80.2Z" fill="white"/>
<path d="M6.20001 94.3C7.60001 94.3 8.80001 93.2 8.80001 91.7C8.80001 90.3 7.70001 89.1 6.20001 89.1C4.70001 89.1 3.60001 90.2 3.60001 91.7C3.60001 93.2 4.80001 94.3 6.20001 94.3Z" fill="white"/>
<path d="M20.3 94.3C21.7 94.3 22.9 93.2 22.9 91.7C22.9 90.3 21.8 89.1 20.3 89.1C18.8 89.1 17.7 90.2 17.7 91.7C17.8 93.2 18.9 94.3 20.3 94.3Z" fill="white"/>
<path d="M34.5 94.3C35.9 94.3 37.1 93.2 37.1 91.7C37.1 90.3 36 89.1 34.5 89.1C33 89.1 31.9 90.2 31.9 91.7C31.9 93.2 33.1 94.3 34.5 94.3Z" fill="white"/>
<path d="M6.20001 108.5C7.60001 108.5 8.80001 107.4 8.80001 105.9C8.80001 104.5 7.70001 103.3 6.20001 103.3C4.70001 103.3 3.60001 104.4 3.60001 105.9C3.60001 107.3 4.80001 108.5 6.20001 108.5Z" fill="white"/>
<path d="M20.3 108.5C21.7 108.5 22.9 107.4 22.9 105.9C22.9 104.5 21.8 103.3 20.3 103.3C18.8 103.3 17.7 104.4 17.7 105.9C17.8 107.3 18.9 108.5 20.3 108.5Z" fill="white"/>
<path d="M34.5 108.5C35.9 108.5 37.1 107.4 37.1 105.9C37.1 104.5 36 103.3 34.5 103.3C33 103.3 31.9 104.4 31.9 105.9C31.9 107.3 33.1 108.5 34.5 108.5Z" fill="white"/>
<path d="M6.20001 122.6C7.60001 122.6 8.80001 121.5 8.80001 120C8.80001 118.6 7.70001 117.4 6.20001 117.4C4.70001 117.4 3.60001 118.5 3.60001 120C3.60001 121.5 4.80001 122.6 6.20001 122.6Z" fill="white"/>
<path d="M20.3 122.6C21.7 122.6 22.9 121.5 22.9 120C22.9 118.6 21.8 117.4 20.3 117.4C18.8 117.4 17.7 118.5 17.7 120C17.8 121.5 18.9 122.6 20.3 122.6Z" fill="white"/>
<path d="M34.5 122.6C35.9 122.6 37.1 121.5 37.1 120C37.1 118.6 36 117.4 34.5 117.4C33 117.4 31.9 118.5 31.9 120C31.9 121.5 33.1 122.6 34.5 122.6Z" fill="white"/>
<path d="M6.20001 136.8C7.60001 136.8 8.80001 135.7 8.80001 134.2C8.80001 132.8 7.70001 131.6 6.20001 131.6C4.70001 131.6 3.60001 132.7 3.60001 134.2C3.60001 135.7 4.80001 136.8 6.20001 136.8Z" fill="white"/>
<path d="M20.3 136.8C21.7 136.8 22.9 135.7 22.9 134.2C22.9 132.8 21.8 131.6 20.3 131.6C18.8 131.6 17.7 132.7 17.7 134.2C17.8 135.7 18.9 136.8 20.3 136.8Z" fill="white"/>
<path d="M34.5 136.8C35.9 136.8 37.1 135.7 37.1 134.2C37.1 132.8 36 131.6 34.5 131.6C33 131.6 31.9 132.7 31.9 134.2C31.9 135.7 33.1 136.8 34.5 136.8Z" fill="white"/>
<path d="M6.20001 150.9C7.60001 150.9 8.80001 149.8 8.80001 148.3C8.80001 146.9 7.70001 145.7 6.20001 145.7C4.70001 145.7 3.60001 146.8 3.60001 148.3C3.60001 149.8 4.80001 150.9 6.20001 150.9Z" fill="white"/>
<path d="M20.3 150.9C21.7 150.9 22.9 149.8 22.9 148.3C22.9 146.9 21.8 145.7 20.3 145.7C18.8 145.7 17.7 146.8 17.7 148.3C17.8 149.8 18.9 150.9 20.3 150.9Z" fill="white"/>
<path d="M34.5 150.9C35.9 150.9 37.1 149.8 37.1 148.3C37.1 146.9 36 145.7 34.5 145.7C33 145.7 31.9 146.8 31.9 148.3C31.9 149.8 33.1 150.9 34.5 150.9Z" fill="white"/>
<path d="M6.20001 165.1C7.60001 165.1 8.80001 164 8.80001 162.5C8.80001 161.1 7.70001 159.9 6.20001 159.9C4.70001 159.9 3.60001 161 3.60001 162.5C3.60001 164 4.80001 165.1 6.20001 165.1Z" fill="white"/>
<path d="M20.3 165.1C21.7 165.1 22.9 164 22.9 162.5C22.9 161.1 21.8 159.9 20.3 159.9C18.8 159.9 17.7 161 17.7 162.5C17.8 164 18.9 165.1 20.3 165.1Z" fill="white"/>
<path d="M34.5 165.1C35.9 165.1 37.1 164 37.1 162.5C37.1 161.1 36 159.9 34.5 159.9C33 159.9 31.9 161 31.9 162.5C31.9 164 33.1 165.1 34.5 165.1Z" fill="white"/>
<path d="M6.20001 179.3C7.60001 179.3 8.80001 178.2 8.80001 176.7C8.80001 175.3 7.70001 174.1 6.20001 174.1C4.70001 174.1 3.60001 175.2 3.60001 176.7C3.60001 178.1 4.80001 179.3 6.20001 179.3Z" fill="white"/>
<path d="M20.3 179.3C21.7 179.3 22.9 178.2 22.9 176.7C22.9 175.3 21.8 174.1 20.3 174.1C18.8 174.1 17.7 175.2 17.7 176.7C17.8 178.1 18.9 179.3 20.3 179.3Z" fill="white"/>
<path d="M34.5 179.3C35.9 179.3 37.1 178.2 37.1 176.7C37.1 175.3 36 174.1 34.5 174.1C33 174.1 31.9 175.2 31.9 176.7C31.9 178.1 33.1 179.3 34.5 179.3Z" fill="white"/>
<path d="M6.20001 193.4C7.60001 193.4 8.80001 192.3 8.80001 190.8C8.80001 189.4 7.70001 188.2 6.20001 188.2C4.70001 188.2 3.60001 189.3 3.60001 190.8C3.60001 192.3 4.80001 193.4 6.20001 193.4Z" fill="white"/>
<path d="M20.3 193.4C21.7 193.4 22.9 192.3 22.9 190.8C22.9 189.4 21.8 188.2 20.3 188.2C18.8 188.2 17.7 189.3 17.7 190.8C17.8 192.3 18.9 193.4 20.3 193.4Z" fill="white"/>
<path d="M34.5 193.4C35.9 193.4 37.1 192.3 37.1 190.8C37.1 189.4 36 188.2 34.5 188.2C33 188.2 31.9 189.3 31.9 190.8C31.9 192.3 33.1 193.4 34.5 193.4Z" fill="white"/>
<path d="M6.20001 207.6C7.60001 207.6 8.80001 206.5 8.80001 205C8.80001 203.6 7.70001 202.4 6.20001 202.4C4.70001 202.4 3.60001 203.5 3.60001 205C3.60001 206.4 4.80001 207.6 6.20001 207.6Z" fill="white"/>
<path d="M20.3 207.6C21.7 207.6 22.9 206.5 22.9 205C22.9 203.6 21.8 202.4 20.3 202.4C18.8 202.4 17.7 203.5 17.7 205C17.8 206.4 18.9 207.6 20.3 207.6Z" fill="white"/>
<path d="M34.5 207.6C35.9 207.6 37.1 206.5 37.1 205C37.1 203.6 36 202.4 34.5 202.4C33 202.4 31.9 203.5 31.9 205C31.9 206.4 33.1 207.6 34.5 207.6Z" fill="white"/>
<path d="M6.20001 221.7C7.60001 221.7 8.80001 220.6 8.80001 219.1C8.80001 217.7 7.70001 216.5 6.20001 216.5C4.70001 216.5 3.60001 217.6 3.60001 219.1C3.60001 220.6 4.80001 221.7 6.20001 221.7Z" fill="white"/>
<path d="M20.3 221.7C21.7 221.7 22.9 220.6 22.9 219.1C22.9 217.7 21.8 216.5 20.3 216.5C18.8 216.5 17.7 217.6 17.7 219.1C17.8 220.6 18.9 221.7 20.3 221.7Z" fill="white"/>
<path d="M34.5 221.7C35.9 221.7 37.1 220.6 37.1 219.1C37.1 217.7 36 216.5 34.5 216.5C33 216.5 31.9 217.6 31.9 219.1C31.9 220.6 33.1 221.7 34.5 221.7Z" fill="white"/>
<path d="M6.20001 235.9C7.60001 235.9 8.80001 234.8 8.80001 233.3C8.80001 231.9 7.70001 230.7 6.20001 230.7C4.70001 230.7 3.60001 231.8 3.60001 233.3C3.60001 234.7 4.80001 235.9 6.20001 235.9Z" fill="white"/>
<path d="M20.3 235.9C21.7 235.9 22.9 234.8 22.9 233.3C22.9 231.9 21.8 230.7 20.3 230.7C18.8 230.7 17.7 231.8 17.7 233.3C17.8 234.7 18.9 235.9 20.3 235.9Z" fill="white"/>
<path d="M34.5 235.9C35.9 235.9 37.1 234.8 37.1 233.3C37.1 231.9 36 230.7 34.5 230.7C33 230.7 31.9 231.8 31.9 233.3C31.9 234.7 33.1 235.9 34.5 235.9Z" fill="white"/>
<path d="M6.20001 250C7.60001 250 8.80001 248.9 8.80001 247.4C8.80001 246 7.70001 244.8 6.20001 244.8C4.70001 244.8 3.60001 245.9 3.60001 247.4C3.60001 248.9 4.80001 250 6.20001 250Z" fill="white"/>
<path d="M20.3 250C21.7 250 22.9 248.9 22.9 247.4C22.9 246 21.8 244.8 20.3 244.8C18.8 244.8 17.7 245.9 17.7 247.4C17.8 248.9 18.9 250 20.3 250Z" fill="white"/>
<path d="M34.5 250C35.9 250 37.1 248.9 37.1 247.4C37.1 246 36 244.8 34.5 244.8C33 244.8 31.9 245.9 31.9 247.4C31.9 248.9 33.1 250 34.5 250Z" fill="white"/>
<path d="M6.20001 264.2C7.60001 264.2 8.80001 263.1 8.80001 261.6C8.80001 260.2 7.70001 259 6.20001 259C4.70001 259 3.60001 260.1 3.60001 261.6C3.60001 263 4.80001 264.2 6.20001 264.2Z" fill="white"/>
<path d="M20.3 264.2C21.7 264.2 22.9 263.1 22.9 261.6C22.9 260.2 21.8 259 20.3 259C18.8 259 17.7 260.1 17.7 261.6C17.8 263 18.9 264.2 20.3 264.2Z" fill="white"/>
<path d="M34.5 264.2C35.9 264.2 37.1 263.1 37.1 261.6C37.1 260.2 36 259 34.5 259C33 259 31.9 260.1 31.9 261.6C31.9 263 33.1 264.2 34.5 264.2Z" fill="white"/>
<path d="M6.20001 278.3C7.60001 278.3 8.80001 277.2 8.80001 275.7C8.80001 274.3 7.70001 273.1 6.20001 273.1C4.70001 273.1 3.60001 274.2 3.60001 275.7C3.60001 277.2 4.80001 278.3 6.20001 278.3Z" fill="white"/>
<path d="M20.3 278.3C21.7 278.3 22.9 277.2 22.9 275.7C22.9 274.3 21.8 273.1 20.3 273.1C18.8 273.1 17.7 274.2 17.7 275.7C17.8 277.2 18.9 278.3 20.3 278.3Z" fill="white"/>
<path d="M34.5 278.3C35.9 278.3 37.1 277.2 37.1 275.7C37.1 274.3 36 273.1 34.5 273.1C33 273.1 31.9 274.2 31.9 275.7C31.9 277.2 33.1 278.3 34.5 278.3Z" fill="white"/>
<path d="M6.20001 292.5C7.60001 292.5 8.80001 291.4 8.80001 289.9C8.80001 288.5 7.70001 287.3 6.20001 287.3C4.70001 287.3 3.60001 288.4 3.60001 289.9C3.60001 291.3 4.80001 292.5 6.20001 292.5Z" fill="white"/>
<path d="M20.3 292.5C21.7 292.5 22.9 291.4 22.9 289.9C22.9 288.5 21.8 287.3 20.3 287.3C18.8 287.3 17.7 288.4 17.7 289.9C17.8 291.3 18.9 292.5 20.3 292.5Z" fill="white"/>
<path d="M34.5 292.5C35.9 292.5 37.1 291.4 37.1 289.9C37.1 288.5 36 287.3 34.5 287.3C33 287.3 31.9 288.4 31.9 289.9C31.9 291.3 33.1 292.5 34.5 292.5Z" fill="white"/>
<path d="M6.20001 306.6C7.60001 306.6 8.80001 305.5 8.80001 304C8.80001 302.6 7.70001 301.4 6.20001 301.4C4.70001 301.4 3.60001 302.5 3.60001 304C3.60001 305.5 4.80001 306.6 6.20001 306.6Z" fill="white"/>
<path d="M20.3 306.6C21.7 306.6 22.9 305.5 22.9 304C22.9 302.6 21.8 301.4 20.3 301.4C18.8 301.4 17.7 302.5 17.7 304C17.8 305.5 18.9 306.6 20.3 306.6Z" fill="white"/>
<path d="M34.5 306.6C35.9 306.6 37.1 305.5 37.1 304C37.1 302.6 36 301.4 34.5 301.4C33 301.4 31.9 302.5 31.9 304C31.9 305.5 33.1 306.6 34.5 306.6Z" fill="white"/>
<path d="M6.20001 320.8C7.60001 320.8 8.80001 319.7 8.80001 318.2C8.80001 316.8 7.70001 315.6 6.20001 315.6C4.70001 315.6 3.60001 316.7 3.60001 318.2C3.60001 319.7 4.80001 320.8 6.20001 320.8Z" fill="white"/>
<path d="M20.3 320.8C21.7 320.8 22.9 319.7 22.9 318.2C22.9 316.8 21.8 315.6 20.3 315.6C18.8 315.6 17.7 316.7 17.7 318.2C17.8 319.7 18.9 320.8 20.3 320.8Z" fill="white"/>
<path d="M34.5 320.8C35.9 320.8 37.1 319.7 37.1 318.2C37.1 316.8 36 315.6 34.5 315.6C33 315.6 31.9 316.7 31.9 318.2C31.9 319.7 33.1 320.8 34.5 320.8Z" fill="white"/>
<path d="M6.20001 334.9C7.60001 334.9 8.80001 333.8 8.80001 332.3C8.80001 330.9 7.70001 329.7 6.20001 329.7C4.70001 329.7 3.60001 330.8 3.60001 332.3C3.60001 333.8 4.80001 334.9 6.20001 334.9Z" fill="white"/>
<path d="M20.3 334.9C21.7 334.9 22.9 333.8 22.9 332.3C22.9 330.9 21.8 329.7 20.3 329.7C18.8 329.7 17.7 330.8 17.7 332.3C17.8 333.8 18.9 334.9 20.3 334.9Z" fill="white"/>
<path d="M34.5 334.9C35.9 334.9 37.1 333.8 37.1 332.3C37.1 330.9 36 329.7 34.5 329.7C33 329.7 31.9 330.8 31.9 332.3C31.9 333.8 33.1 334.9 34.5 334.9Z" fill="white"/>
<path d="M6.20001 349.1C7.60001 349.1 8.80001 348 8.80001 346.5C8.80001 345.1 7.70001 343.9 6.20001 343.9C4.70001 343.9 3.60001 345 3.60001 346.5C3.60001 348 4.80001 349.1 6.20001 349.1Z" fill="white"/>
<path d="M20.3 349.1C21.7 349.1 22.9 348 22.9 346.5C22.9 345.1 21.8 343.9 20.3 343.9C18.8 343.9 17.7 345 17.7 346.5C17.8 348 18.9 349.1 20.3 349.1Z" fill="white"/>
<path d="M34.5 349.1C35.9 349.1 37.1 348 37.1 346.5C37.1 345.1 36 343.9 34.5 343.9C33 343.9 31.9 345 31.9 346.5C31.9 348 33.1 349.1 34.5 349.1Z" fill="white"/>
<path d="M6.20001 363.3C7.60001 363.3 8.80001 362.2 8.80001 360.7C8.80001 359.3 7.70001 358.1 6.20001 358.1C4.70001 358.1 3.60001 359.2 3.60001 360.7C3.60001 362.1 4.80001 363.3 6.20001 363.3Z" fill="white"/>
<path d="M20.3 363.3C21.7 363.3 22.9 362.2 22.9 360.7C22.9 359.3 21.8 358.1 20.3 358.1C18.8 358.1 17.7 359.2 17.7 360.7C17.8 362.1 18.9 363.3 20.3 363.3Z" fill="white"/>
<path d="M34.5 363.3C35.9 363.3 37.1 362.2 37.1 360.7C37.1 359.3 36 358.1 34.5 358.1C33 358.1 31.9 359.2 31.9 360.7C31.9 362.1 33.1 363.3 34.5 363.3Z" fill="white"/>
<path d="M6.20001 377.4C7.60001 377.4 8.80001 376.3 8.80001 374.8C8.80001 373.4 7.70001 372.2 6.20001 372.2C4.70001 372.2 3.60001 373.3 3.60001 374.8C3.60001 376.3 4.80001 377.4 6.20001 377.4Z" fill="white"/>
<path d="M20.3 377.4C21.7 377.4 22.9 376.3 22.9 374.8C22.9 373.4 21.8 372.2 20.3 372.2C18.8 372.2 17.7 373.3 17.7 374.8C17.8 376.3 18.9 377.4 20.3 377.4Z" fill="white"/>
<path d="M34.5 377.4C35.9 377.4 37.1 376.3 37.1 374.8C37.1 373.4 36 372.2 34.5 372.2C33 372.2 31.9 373.3 31.9 374.8C31.9 376.3 33.1 377.4 34.5 377.4Z" fill="white"/>
<path d="M6.20001 391.6C7.60001 391.6 8.80001 390.5 8.80001 389C8.80001 387.6 7.70001 386.4 6.20001 386.4C4.70001 386.4 3.60001 387.5 3.60001 389C3.60001 390.4 4.80001 391.6 6.20001 391.6Z" fill="white"/>
<path d="M20.3 391.6C21.7 391.6 22.9 390.5 22.9 389C22.9 387.6 21.8 386.4 20.3 386.4C18.8 386.4 17.7 387.5 17.7 389C17.8 390.4 18.9 391.6 20.3 391.6Z" fill="white"/>
<path d="M34.5 391.6C35.9 391.6 37.1 390.5 37.1 389C37.1 387.6 36 386.4 34.5 386.4C33 386.4 31.9 387.5 31.9 389C31.9 390.4 33.1 391.6 34.5 391.6Z" fill="white"/>
<path d="M6.20001 405.7C7.60001 405.7 8.80001 404.6 8.80001 403.1C8.80001 401.7 7.70001 400.5 6.20001 400.5C4.70001 400.5 3.60001 401.6 3.60001 403.1C3.60001 404.6 4.80001 405.7 6.20001 405.7Z" fill="white"/>
<path d="M20.3 405.7C21.7 405.7 22.9 404.6 22.9 403.1C22.9 401.7 21.8 400.5 20.3 400.5C18.8 400.5 17.7 401.6 17.7 403.1C17.8 404.6 18.9 405.7 20.3 405.7Z" fill="white"/>
<path d="M34.5 405.7C35.9 405.7 37.1 404.6 37.1 403.1C37.1 401.7 36 400.5 34.5 400.5C33 400.5 31.9 401.6 31.9 403.1C31.9 404.6 33.1 405.7 34.5 405.7Z" fill="white"/>
<path d="M6.20001 419.9C7.60001 419.9 8.80001 418.8 8.80001 417.3C8.80001 415.9 7.70001 414.7 6.20001 414.7C4.70001 414.7 3.60001 415.8 3.60001 417.3C3.60001 418.7 4.80001 419.9 6.20001 419.9Z" fill="white"/>
<path d="M20.3 419.9C21.7 419.9 22.9 418.8 22.9 417.3C22.9 415.9 21.8 414.7 20.3 414.7C18.8 414.7 17.7 415.8 17.7 417.3C17.8 418.7 18.9 419.9 20.3 419.9Z" fill="white"/>
<path d="M34.5 419.9C35.9 419.9 37.1 418.8 37.1 417.3C37.1 415.9 36 414.7 34.5 414.7C33 414.7 31.9 415.8 31.9 417.3C31.9 418.7 33.1 419.9 34.5 419.9Z" fill="white"/>
<path d="M6.20001 434C7.60001 434 8.80001 432.9 8.80001 431.4C8.80001 430 7.70001 428.8 6.20001 428.8C4.70001 428.8 3.60001 429.9 3.60001 431.4C3.60001 432.9 4.80001 434 6.20001 434Z" fill="white"/>
<path d="M20.3 434C21.7 434 22.9 432.9 22.9 431.4C22.9 430 21.8 428.8 20.3 428.8C18.8 428.8 17.7 429.9 17.7 431.4C17.8 432.9 18.9 434 20.3 434Z" fill="white"/>
<path d="M34.5 434C35.9 434 37.1 432.9 37.1 431.4C37.1 430 36 428.8 34.5 428.8C33 428.8 31.9 429.9 31.9 431.4C31.9 432.9 33.1 434 34.5 434Z" fill="white"/>
</g>
<g clip-path="url(#clip1)">
<g style="mix-blend-mode:multiply" opacity="0.5">
<path d="M-129.668 890.057C-129.668 980.371 -55.0261 1055.11 35.1666 1055.11C125.359 1055.11 200.001 980.371 200.001 890.057C200.001 799.743 125.359 725 35.1666 725C-55.0261 725 -129.668 799.743 -129.668 890.057Z" fill="url(#paint6_radial)" fill-opacity="0.75"/>
</g>
<path d="M-20.8165 1008.4C44.4544 1008.4 97.367 955.416 97.367 890.057C97.367 824.698 44.4544 771.714 -20.8165 771.714C-86.0875 771.714 -139 824.698 -139 890.057C-139 955.416 -86.0875 1008.4 -20.8165 1008.4Z" fill="url(#paint7_linear)"/>
</g>
<defs>
<filter id="filter0_d" x="317" y="103" width="259" height="371.197" filterUnits="userSpaceOnUse" color-interpolation-filters="sRGB">
<feFlood flood-opacity="0" result="BackgroundImageFix"/>
<feColorMatrix in="SourceAlpha" type="matrix" values="0 0 0 0 0 0 0 0 0 0 0 0 0 0 0 0 0 0 127 0"/>
<feOffset dy="4"/>
<feGaussianBlur stdDeviation="2"/>
<feColorMatrix type="matrix" values="0 0 0 0 0 0 0 0 0 0 0 0 0 0 0 0 0 0 0.25 0"/>
<feBlend mode="normal" in2="BackgroundImageFix" result="effect1_dropShadow"/>
<feBlend mode="normal" in="SourceGraphic" in2="effect1_dropShadow" result="shape"/>
</filter>
<linearGradient id="paint0_linear" x1="336.785" y1="220.558" x2="571.9" y2="220.558" gradientUnits="userSpaceOnUse">
<stop/>
<stop offset="0.109" stop-color="#060606"/>
<stop offset="0.252" stop-color="#161616"/>
<stop offset="0.4141" stop-color="#323232"/>
<stop offset="0.5902" stop-color="#575757"/>
<stop offset="0.7775" stop-color="#888888"/>
<stop offset="0.9716" stop-color="#C3C3C3"/>
<stop offset="1" stop-color="#CCCCCC"/>
</linearGradient>
<linearGradient id="paint1_linear" x1="321" y1="403.411" x2="446.478" y2="403.411" gradientUnits="userSpaceOnUse">
<stop/>
<stop offset="0.109" stop-color="#060606"/>
<stop offset="0.252" stop-color="#161616"/>
<stop offset="0.4141" stop-color="#323232"/>
<stop offset="0.5902" stop-color="#575757"/>
<stop offset="0.7775" stop-color="#888888"/>
<stop offset="0.9716" stop-color="#C3C3C3"/>
<stop offset="1" stop-color="#CCCCCC"/>
</linearGradient>
<linearGradient id="paint2_linear" x1="-231.421" y1="588.642" x2="1152.52" y2="-795.467" gradientUnits="userSpaceOnUse">
<stop stop-color="white"/>
<stop offset="1"/>
</linearGradient>
<linearGradient id="paint3_linear" x1="-303.501" y1="516.57" x2="545.573" y2="-332.605" gradientUnits="userSpaceOnUse">
<stop/>
<stop offset="1" stop-color="white"/>
</linearGradient>
<linearGradient id="paint4_linear" x1="-162.584" y1="392.658" x2="795.087" y2="-565.128" gradientUnits="userSpaceOnUse">
<stop stop-color="white"/>
<stop offset="1"/>
</linearGradient>
<linearGradient id="paint5_linear" x1="-212.463" y1="342.784" x2="375.087" y2="-244.837" gradientUnits="userSpaceOnUse">
<stop/>
<stop offset="1" stop-color="white"/>
</linearGradient>
<radialGradient id="paint6_radial" cx="0" cy="0" r="1" gradientUnits="userSpaceOnUse" gradientTransform="translate(34.6441 889.151) rotate(180) scale(163.927 164.148)">
<stop stop-color="#7A0000"/>
<stop offset="0.0534331" stop-color="#8A1E1E"/>
<stop offset="0.1664" stop-color="#A95959"/>
<stop offset="0.2793" stop-color="#C38C8C"/>
<stop offset="0.3893" stop-color="#D9B5B5"/>
<stop offset="0.4961" stop-color="#E9D5D5"/>
<stop offset="0.5985" stop-color="#F5ECEC"/>
<stop offset="0.695" stop-color="#FDFAFA"/>
<stop offset="0.7792" stop-color="white"/>
</radialGradient>
<linearGradient id="paint7_linear" x1="94.2569" y1="889.148" x2="-139" y2="889.148" gradientUnits="userSpaceOnUse">
<stop stop-color="#FFCF00"/>
<stop offset="1" stop-color="#EC8C02"/>
</linearGradient>
<clipPath id="clip0">
<rect width="90" height="458" fill="white" transform="translate(-53 -24)"/>
</clipPath>
<clipPath id="clip1">
<rect width="339" height="327" fill="white" transform="translate(-139 725)"/>
</clipPath>
</defs>
</svg>
