<svg width="1920" height="960" viewBox="0 0 1920 960" fill="none" xmlns="http://www.w3.org/2000/svg" preserveAspectRatio="xMinYMin meet">
<g clip-path="url(#clip0)">
<rect width="1920" height="960" fill="url(#paint0_linear)"/>
<g clip-path="url(#clip1)">
<g style="mix-blend-mode:multiply" opacity="0.5">
<path d="M-129.668 890.057C-129.668 980.371 -55.026 1055.11 35.1666 1055.11C125.359 1055.11 200.001 980.371 200.001 890.057C200.001 799.743 125.359 725 35.1666 725C-55.026 725 -129.668 799.743 -129.668 890.057Z" fill="url(#paint1_radial)" fill-opacity="0.75"/>
</g>
<path d="M-20.8165 1008.4C44.4544 1008.4 97.367 955.416 97.367 890.057C97.367 824.698 44.4544 771.714 -20.8165 771.714C-86.0875 771.714 -139 824.698 -139 890.057C-139 955.416 -86.0875 1008.4 -20.8165 1008.4Z" fill="url(#paint2_linear)"/>
</g>
<g clip-path="url(#clip2)">
<path d="M6.2001 9.39998C7.6001 9.39998 8.8001 8.29998 8.8001 6.79998C8.8001 5.39998 7.7001 4.19998 6.2001 4.19998C4.7001 4.19998 3.6001 5.29998 3.6001 6.79998C3.6001 8.29998 4.8001 9.39998 6.2001 9.39998Z" fill="white"/>
<path d="M20.3 9.39998C21.7 9.39998 22.9 8.29998 22.9 6.79998C22.9 5.39998 21.8 4.19998 20.3 4.19998C18.8 4.19998 17.7 5.29998 17.7 6.79998C17.8 8.29998 18.9 9.39998 20.3 9.39998Z" fill="white"/>
<path d="M34.4999 9.39998C35.8999 9.39998 37.0999 8.29998 37.0999 6.79998C37.0999 5.39998 35.9999 4.19998 34.4999 4.19998C32.9999 4.19998 31.8999 5.29998 31.8999 6.79998C31.8999 8.29998 33.0999 9.39998 34.4999 9.39998Z" fill="white"/>
<path d="M6.2001 23.6C7.6001 23.6 8.8001 22.5 8.8001 21C8.8001 19.6 7.7001 18.4 6.2001 18.4C4.7001 18.4 3.6001 19.5 3.6001 21C3.6001 22.4 4.8001 23.6 6.2001 23.6Z" fill="white"/>
<path d="M20.3 23.6C21.7 23.6 22.9 22.5 22.9 21C22.9 19.6 21.8 18.4 20.3 18.4C18.8 18.4 17.7 19.5 17.7 21C17.8 22.4 18.9 23.6 20.3 23.6Z" fill="white"/>
<path d="M34.4999 23.6C35.8999 23.6 37.0999 22.5 37.0999 21C37.0999 19.6 35.9999 18.4 34.4999 18.4C32.9999 18.4 31.8999 19.5 31.8999 21C31.8999 22.4 33.0999 23.6 34.4999 23.6Z" fill="white"/>
<path d="M6.2001 37.7C7.6001 37.7 8.8001 36.6 8.8001 35.1C8.8001 33.7 7.7001 32.5 6.2001 32.5C4.7001 32.5 3.6001 33.6 3.6001 35.1C3.6001 36.6 4.8001 37.7 6.2001 37.7Z" fill="white"/>
<path d="M20.3 37.7C21.7 37.7 22.9 36.6 22.9 35.1C22.9 33.7 21.8 32.5 20.3 32.5C18.8 32.5 17.7 33.6 17.7 35.1C17.8 36.6 18.9 37.7 20.3 37.7Z" fill="white"/>
<path d="M34.4999 37.7C35.8999 37.7 37.0999 36.6 37.0999 35.1C37.0999 33.7 35.9999 32.5 34.4999 32.5C32.9999 32.5 31.8999 33.6 31.8999 35.1C31.8999 36.6 33.0999 37.7 34.4999 37.7Z" fill="white"/>
<path d="M6.2001 51.9C7.6001 51.9 8.8001 50.8 8.8001 49.3C8.8001 47.9 7.7001 46.7 6.2001 46.7C4.7001 46.7 3.6001 47.8 3.6001 49.3C3.6001 50.7 4.8001 51.9 6.2001 51.9Z" fill="white"/>
<path d="M20.3 51.9C21.7 51.9 22.9 50.8 22.9 49.3C22.9 47.9 21.8 46.7 20.3 46.7C18.8 46.7 17.7 47.8 17.7 49.3C17.8 50.7 18.9 51.9 20.3 51.9Z" fill="white"/>
<path d="M34.4999 51.9C35.8999 51.9 37.0999 50.8 37.0999 49.3C37.0999 47.9 35.9999 46.7 34.4999 46.7C32.9999 46.7 31.8999 47.8 31.8999 49.3C31.8999 50.7 33.0999 51.9 34.4999 51.9Z" fill="white"/>
<path d="M6.2001 66C7.6001 66 8.8001 64.9 8.8001 63.4C8.8001 62 7.7001 60.8 6.2001 60.8C4.7001 60.8 3.6001 61.9 3.6001 63.4C3.6001 64.9 4.8001 66 6.2001 66Z" fill="white"/>
<path d="M20.3 66C21.7 66 22.9 64.9 22.9 63.4C22.9 62 21.8 60.8 20.3 60.8C18.8 60.8 17.7 61.9 17.7 63.4C17.8 64.9 18.9 66 20.3 66Z" fill="white"/>
<path d="M34.4999 66C35.8999 66 37.0999 64.9 37.0999 63.4C37.0999 62 35.9999 60.8 34.4999 60.8C32.9999 60.8 31.8999 61.9 31.8999 63.4C31.8999 64.9 33.0999 66 34.4999 66Z" fill="white"/>
<path d="M6.2001 80.2C7.6001 80.2 8.8001 79.1 8.8001 77.6C8.8001 76.2 7.7001 75 6.2001 75C4.7001 75 3.6001 76.1 3.6001 77.6C3.6001 79 4.8001 80.2 6.2001 80.2Z" fill="white"/>
<path d="M20.3 80.2C21.7 80.2 22.9 79.1 22.9 77.6C22.9 76.2 21.8 75 20.3 75C18.8 75 17.7 76.1 17.7 77.6C17.8 79 18.9 80.2 20.3 80.2Z" fill="white"/>
<path d="M34.4999 80.2C35.8999 80.2 37.0999 79.1 37.0999 77.6C37.0999 76.2 35.9999 75 34.4999 75C32.9999 75 31.8999 76.1 31.8999 77.6C31.8999 79 33.0999 80.2 34.4999 80.2Z" fill="white"/>
<path d="M6.2001 94.3C7.6001 94.3 8.8001 93.2 8.8001 91.7C8.8001 90.3 7.7001 89.1 6.2001 89.1C4.7001 89.1 3.6001 90.2 3.6001 91.7C3.6001 93.2 4.8001 94.3 6.2001 94.3Z" fill="white"/>
<path d="M20.3 94.3C21.7 94.3 22.9 93.2 22.9 91.7C22.9 90.3 21.8 89.1 20.3 89.1C18.8 89.1 17.7 90.2 17.7 91.7C17.8 93.2 18.9 94.3 20.3 94.3Z" fill="white"/>
<path d="M34.4999 94.3C35.8999 94.3 37.0999 93.2 37.0999 91.7C37.0999 90.3 35.9999 89.1 34.4999 89.1C32.9999 89.1 31.8999 90.2 31.8999 91.7C31.8999 93.2 33.0999 94.3 34.4999 94.3Z" fill="white"/>
<path d="M6.2001 108.5C7.6001 108.5 8.8001 107.4 8.8001 105.9C8.8001 104.5 7.7001 103.3 6.2001 103.3C4.7001 103.3 3.6001 104.4 3.6001 105.9C3.6001 107.3 4.8001 108.5 6.2001 108.5Z" fill="white"/>
<path d="M20.3 108.5C21.7 108.5 22.9 107.4 22.9 105.9C22.9 104.5 21.8 103.3 20.3 103.3C18.8 103.3 17.7 104.4 17.7 105.9C17.8 107.3 18.9 108.5 20.3 108.5Z" fill="white"/>
<path d="M34.4999 108.5C35.8999 108.5 37.0999 107.4 37.0999 105.9C37.0999 104.5 35.9999 103.3 34.4999 103.3C32.9999 103.3 31.8999 104.4 31.8999 105.9C31.8999 107.3 33.0999 108.5 34.4999 108.5Z" fill="white"/>
<path d="M6.2001 122.6C7.6001 122.6 8.8001 121.5 8.8001 120C8.8001 118.6 7.7001 117.4 6.2001 117.4C4.7001 117.4 3.6001 118.5 3.6001 120C3.6001 121.5 4.8001 122.6 6.2001 122.6Z" fill="white"/>
<path d="M20.3 122.6C21.7 122.6 22.9 121.5 22.9 120C22.9 118.6 21.8 117.4 20.3 117.4C18.8 117.4 17.7 118.5 17.7 120C17.8 121.5 18.9 122.6 20.3 122.6Z" fill="white"/>
<path d="M34.4999 122.6C35.8999 122.6 37.0999 121.5 37.0999 120C37.0999 118.6 35.9999 117.4 34.4999 117.4C32.9999 117.4 31.8999 118.5 31.8999 120C31.8999 121.5 33.0999 122.6 34.4999 122.6Z" fill="white"/>
<path d="M6.2001 136.8C7.6001 136.8 8.8001 135.7 8.8001 134.2C8.8001 132.8 7.7001 131.6 6.2001 131.6C4.7001 131.6 3.6001 132.7 3.6001 134.2C3.6001 135.7 4.8001 136.8 6.2001 136.8Z" fill="white"/>
<path d="M20.3 136.8C21.7 136.8 22.9 135.7 22.9 134.2C22.9 132.8 21.8 131.6 20.3 131.6C18.8 131.6 17.7 132.7 17.7 134.2C17.8 135.7 18.9 136.8 20.3 136.8Z" fill="white"/>
<path d="M34.4999 136.8C35.8999 136.8 37.0999 135.7 37.0999 134.2C37.0999 132.8 35.9999 131.6 34.4999 131.6C32.9999 131.6 31.8999 132.7 31.8999 134.2C31.8999 135.7 33.0999 136.8 34.4999 136.8Z" fill="white"/>
<path d="M6.2001 150.9C7.6001 150.9 8.8001 149.8 8.8001 148.3C8.8001 146.9 7.7001 145.7 6.2001 145.7C4.7001 145.7 3.6001 146.8 3.6001 148.3C3.6001 149.8 4.8001 150.9 6.2001 150.9Z" fill="white"/>
<path d="M20.3 150.9C21.7 150.9 22.9 149.8 22.9 148.3C22.9 146.9 21.8 145.7 20.3 145.7C18.8 145.7 17.7 146.8 17.7 148.3C17.8 149.8 18.9 150.9 20.3 150.9Z" fill="white"/>
<path d="M34.4999 150.9C35.8999 150.9 37.0999 149.8 37.0999 148.3C37.0999 146.9 35.9999 145.7 34.4999 145.7C32.9999 145.7 31.8999 146.8 31.8999 148.3C31.8999 149.8 33.0999 150.9 34.4999 150.9Z" fill="white"/>
<path d="M6.2001 165.1C7.6001 165.1 8.8001 164 8.8001 162.5C8.8001 161.1 7.7001 159.9 6.2001 159.9C4.7001 159.9 3.6001 161 3.6001 162.5C3.6001 164 4.8001 165.1 6.2001 165.1Z" fill="white"/>
<path d="M20.3 165.1C21.7 165.1 22.9 164 22.9 162.5C22.9 161.1 21.8 159.9 20.3 159.9C18.8 159.9 17.7 161 17.7 162.5C17.8 164 18.9 165.1 20.3 165.1Z" fill="white"/>
<path d="M34.4999 165.1C35.8999 165.1 37.0999 164 37.0999 162.5C37.0999 161.1 35.9999 159.9 34.4999 159.9C32.9999 159.9 31.8999 161 31.8999 162.5C31.8999 164 33.0999 165.1 34.4999 165.1Z" fill="white"/>
<path d="M6.2001 179.3C7.6001 179.3 8.8001 178.2 8.8001 176.7C8.8001 175.3 7.7001 174.1 6.2001 174.1C4.7001 174.1 3.6001 175.2 3.6001 176.7C3.6001 178.1 4.8001 179.3 6.2001 179.3Z" fill="white"/>
<path d="M20.3 179.3C21.7 179.3 22.9 178.2 22.9 176.7C22.9 175.3 21.8 174.1 20.3 174.1C18.8 174.1 17.7 175.2 17.7 176.7C17.8 178.1 18.9 179.3 20.3 179.3Z" fill="white"/>
<path d="M34.4999 179.3C35.8999 179.3 37.0999 178.2 37.0999 176.7C37.0999 175.3 35.9999 174.1 34.4999 174.1C32.9999 174.1 31.8999 175.2 31.8999 176.7C31.8999 178.1 33.0999 179.3 34.4999 179.3Z" fill="white"/>
<path d="M6.2001 193.4C7.6001 193.4 8.8001 192.3 8.8001 190.8C8.8001 189.4 7.7001 188.2 6.2001 188.2C4.7001 188.2 3.6001 189.3 3.6001 190.8C3.6001 192.3 4.8001 193.4 6.2001 193.4Z" fill="white"/>
<path d="M20.3 193.4C21.7 193.4 22.9 192.3 22.9 190.8C22.9 189.4 21.8 188.2 20.3 188.2C18.8 188.2 17.7 189.3 17.7 190.8C17.8 192.3 18.9 193.4 20.3 193.4Z" fill="white"/>
<path d="M34.4999 193.4C35.8999 193.4 37.0999 192.3 37.0999 190.8C37.0999 189.4 35.9999 188.2 34.4999 188.2C32.9999 188.2 31.8999 189.3 31.8999 190.8C31.8999 192.3 33.0999 193.4 34.4999 193.4Z" fill="white"/>
<path d="M6.2001 207.6C7.6001 207.6 8.8001 206.5 8.8001 205C8.8001 203.6 7.7001 202.4 6.2001 202.4C4.7001 202.4 3.6001 203.5 3.6001 205C3.6001 206.4 4.8001 207.6 6.2001 207.6Z" fill="white"/>
<path d="M20.3 207.6C21.7 207.6 22.9 206.5 22.9 205C22.9 203.6 21.8 202.4 20.3 202.4C18.8 202.4 17.7 203.5 17.7 205C17.8 206.4 18.9 207.6 20.3 207.6Z" fill="white"/>
<path d="M34.4999 207.6C35.8999 207.6 37.0999 206.5 37.0999 205C37.0999 203.6 35.9999 202.4 34.4999 202.4C32.9999 202.4 31.8999 203.5 31.8999 205C31.8999 206.4 33.0999 207.6 34.4999 207.6Z" fill="white"/>
<path d="M6.2001 221.7C7.6001 221.7 8.8001 220.6 8.8001 219.1C8.8001 217.7 7.7001 216.5 6.2001 216.5C4.7001 216.5 3.6001 217.6 3.6001 219.1C3.6001 220.6 4.8001 221.7 6.2001 221.7Z" fill="white"/>
<path d="M20.3 221.7C21.7 221.7 22.9 220.6 22.9 219.1C22.9 217.7 21.8 216.5 20.3 216.5C18.8 216.5 17.7 217.6 17.7 219.1C17.8 220.6 18.9 221.7 20.3 221.7Z" fill="white"/>
<path d="M34.4999 221.7C35.8999 221.7 37.0999 220.6 37.0999 219.1C37.0999 217.7 35.9999 216.5 34.4999 216.5C32.9999 216.5 31.8999 217.6 31.8999 219.1C31.8999 220.6 33.0999 221.7 34.4999 221.7Z" fill="white"/>
<path d="M6.2001 235.9C7.6001 235.9 8.8001 234.8 8.8001 233.3C8.8001 231.9 7.7001 230.7 6.2001 230.7C4.7001 230.7 3.6001 231.8 3.6001 233.3C3.6001 234.7 4.8001 235.9 6.2001 235.9Z" fill="white"/>
<path d="M20.3 235.9C21.7 235.9 22.9 234.8 22.9 233.3C22.9 231.9 21.8 230.7 20.3 230.7C18.8 230.7 17.7 231.8 17.7 233.3C17.8 234.7 18.9 235.9 20.3 235.9Z" fill="white"/>
<path d="M34.4999 235.9C35.8999 235.9 37.0999 234.8 37.0999 233.3C37.0999 231.9 35.9999 230.7 34.4999 230.7C32.9999 230.7 31.8999 231.8 31.8999 233.3C31.8999 234.7 33.0999 235.9 34.4999 235.9Z" fill="white"/>
<path d="M6.2001 250C7.6001 250 8.8001 248.9 8.8001 247.4C8.8001 246 7.7001 244.8 6.2001 244.8C4.7001 244.8 3.6001 245.9 3.6001 247.4C3.6001 248.9 4.8001 250 6.2001 250Z" fill="white"/>
<path d="M20.3 250C21.7 250 22.9 248.9 22.9 247.4C22.9 246 21.8 244.8 20.3 244.8C18.8 244.8 17.7 245.9 17.7 247.4C17.8 248.9 18.9 250 20.3 250Z" fill="white"/>
<path d="M34.4999 250C35.8999 250 37.0999 248.9 37.0999 247.4C37.0999 246 35.9999 244.8 34.4999 244.8C32.9999 244.8 31.8999 245.9 31.8999 247.4C31.8999 248.9 33.0999 250 34.4999 250Z" fill="white"/>
<path d="M6.2001 264.2C7.6001 264.2 8.8001 263.1 8.8001 261.6C8.8001 260.2 7.7001 259 6.2001 259C4.7001 259 3.6001 260.1 3.6001 261.6C3.6001 263 4.8001 264.2 6.2001 264.2Z" fill="white"/>
<path d="M20.3 264.2C21.7 264.2 22.9 263.1 22.9 261.6C22.9 260.2 21.8 259 20.3 259C18.8 259 17.7 260.1 17.7 261.6C17.8 263 18.9 264.2 20.3 264.2Z" fill="white"/>
<path d="M34.4999 264.2C35.8999 264.2 37.0999 263.1 37.0999 261.6C37.0999 260.2 35.9999 259 34.4999 259C32.9999 259 31.8999 260.1 31.8999 261.6C31.8999 263 33.0999 264.2 34.4999 264.2Z" fill="white"/>
<path d="M6.2001 278.3C7.6001 278.3 8.8001 277.2 8.8001 275.7C8.8001 274.3 7.7001 273.1 6.2001 273.1C4.7001 273.1 3.6001 274.2 3.6001 275.7C3.6001 277.2 4.8001 278.3 6.2001 278.3Z" fill="white"/>
<path d="M20.3 278.3C21.7 278.3 22.9 277.2 22.9 275.7C22.9 274.3 21.8 273.1 20.3 273.1C18.8 273.1 17.7 274.2 17.7 275.7C17.8 277.2 18.9 278.3 20.3 278.3Z" fill="white"/>
<path d="M34.4999 278.3C35.8999 278.3 37.0999 277.2 37.0999 275.7C37.0999 274.3 35.9999 273.1 34.4999 273.1C32.9999 273.1 31.8999 274.2 31.8999 275.7C31.8999 277.2 33.0999 278.3 34.4999 278.3Z" fill="white"/>
<path d="M6.2001 292.5C7.6001 292.5 8.8001 291.4 8.8001 289.9C8.8001 288.5 7.7001 287.3 6.2001 287.3C4.7001 287.3 3.6001 288.4 3.6001 289.9C3.6001 291.3 4.8001 292.5 6.2001 292.5Z" fill="white"/>
<path d="M20.3 292.5C21.7 292.5 22.9 291.4 22.9 289.9C22.9 288.5 21.8 287.3 20.3 287.3C18.8 287.3 17.7 288.4 17.7 289.9C17.8 291.3 18.9 292.5 20.3 292.5Z" fill="white"/>
<path d="M34.4999 292.5C35.8999 292.5 37.0999 291.4 37.0999 289.9C37.0999 288.5 35.9999 287.3 34.4999 287.3C32.9999 287.3 31.8999 288.4 31.8999 289.9C31.8999 291.3 33.0999 292.5 34.4999 292.5Z" fill="white"/>
<path d="M6.2001 306.6C7.6001 306.6 8.8001 305.5 8.8001 304C8.8001 302.6 7.7001 301.4 6.2001 301.4C4.7001 301.4 3.6001 302.5 3.6001 304C3.6001 305.5 4.8001 306.6 6.2001 306.6Z" fill="white"/>
<path d="M20.3 306.6C21.7 306.6 22.9 305.5 22.9 304C22.9 302.6 21.8 301.4 20.3 301.4C18.8 301.4 17.7 302.5 17.7 304C17.8 305.5 18.9 306.6 20.3 306.6Z" fill="white"/>
<path d="M34.4999 306.6C35.8999 306.6 37.0999 305.5 37.0999 304C37.0999 302.6 35.9999 301.4 34.4999 301.4C32.9999 301.4 31.8999 302.5 31.8999 304C31.8999 305.5 33.0999 306.6 34.4999 306.6Z" fill="white"/>
<path d="M6.2001 320.8C7.6001 320.8 8.8001 319.7 8.8001 318.2C8.8001 316.8 7.7001 315.6 6.2001 315.6C4.7001 315.6 3.6001 316.7 3.6001 318.2C3.6001 319.7 4.8001 320.8 6.2001 320.8Z" fill="white"/>
<path d="M20.3 320.8C21.7 320.8 22.9 319.7 22.9 318.2C22.9 316.8 21.8 315.6 20.3 315.6C18.8 315.6 17.7 316.7 17.7 318.2C17.8 319.7 18.9 320.8 20.3 320.8Z" fill="white"/>
<path d="M34.4999 320.8C35.8999 320.8 37.0999 319.7 37.0999 318.2C37.0999 316.8 35.9999 315.6 34.4999 315.6C32.9999 315.6 31.8999 316.7 31.8999 318.2C31.8999 319.7 33.0999 320.8 34.4999 320.8Z" fill="white"/>
<path d="M6.2001 334.9C7.6001 334.9 8.8001 333.8 8.8001 332.3C8.8001 330.9 7.7001 329.7 6.2001 329.7C4.7001 329.7 3.6001 330.8 3.6001 332.3C3.6001 333.8 4.8001 334.9 6.2001 334.9Z" fill="white"/>
<path d="M20.3 334.9C21.7 334.9 22.9 333.8 22.9 332.3C22.9 330.9 21.8 329.7 20.3 329.7C18.8 329.7 17.7 330.8 17.7 332.3C17.8 333.8 18.9 334.9 20.3 334.9Z" fill="white"/>
<path d="M34.4999 334.9C35.8999 334.9 37.0999 333.8 37.0999 332.3C37.0999 330.9 35.9999 329.7 34.4999 329.7C32.9999 329.7 31.8999 330.8 31.8999 332.3C31.8999 333.8 33.0999 334.9 34.4999 334.9Z" fill="white"/>
<path d="M6.2001 349.1C7.6001 349.1 8.8001 348 8.8001 346.5C8.8001 345.1 7.7001 343.9 6.2001 343.9C4.7001 343.9 3.6001 345 3.6001 346.5C3.6001 348 4.8001 349.1 6.2001 349.1Z" fill="white"/>
<path d="M20.3 349.1C21.7 349.1 22.9 348 22.9 346.5C22.9 345.1 21.8 343.9 20.3 343.9C18.8 343.9 17.7 345 17.7 346.5C17.8 348 18.9 349.1 20.3 349.1Z" fill="white"/>
<path d="M34.4999 349.1C35.8999 349.1 37.0999 348 37.0999 346.5C37.0999 345.1 35.9999 343.9 34.4999 343.9C32.9999 343.9 31.8999 345 31.8999 346.5C31.8999 348 33.0999 349.1 34.4999 349.1Z" fill="white"/>
<path d="M6.2001 363.3C7.6001 363.3 8.8001 362.2 8.8001 360.7C8.8001 359.3 7.7001 358.1 6.2001 358.1C4.7001 358.1 3.6001 359.2 3.6001 360.7C3.6001 362.1 4.8001 363.3 6.2001 363.3Z" fill="white"/>
<path d="M20.3 363.3C21.7 363.3 22.9 362.2 22.9 360.7C22.9 359.3 21.8 358.1 20.3 358.1C18.8 358.1 17.7 359.2 17.7 360.7C17.8 362.1 18.9 363.3 20.3 363.3Z" fill="white"/>
<path d="M34.4999 363.3C35.8999 363.3 37.0999 362.2 37.0999 360.7C37.0999 359.3 35.9999 358.1 34.4999 358.1C32.9999 358.1 31.8999 359.2 31.8999 360.7C31.8999 362.1 33.0999 363.3 34.4999 363.3Z" fill="white"/>
<path d="M6.2001 377.4C7.6001 377.4 8.8001 376.3 8.8001 374.8C8.8001 373.4 7.7001 372.2 6.2001 372.2C4.7001 372.2 3.6001 373.3 3.6001 374.8C3.6001 376.3 4.8001 377.4 6.2001 377.4Z" fill="white"/>
<path d="M20.3 377.4C21.7 377.4 22.9 376.3 22.9 374.8C22.9 373.4 21.8 372.2 20.3 372.2C18.8 372.2 17.7 373.3 17.7 374.8C17.8 376.3 18.9 377.4 20.3 377.4Z" fill="white"/>
<path d="M34.4999 377.4C35.8999 377.4 37.0999 376.3 37.0999 374.8C37.0999 373.4 35.9999 372.2 34.4999 372.2C32.9999 372.2 31.8999 373.3 31.8999 374.8C31.8999 376.3 33.0999 377.4 34.4999 377.4Z" fill="white"/>
<path d="M6.2001 391.6C7.6001 391.6 8.8001 390.5 8.8001 389C8.8001 387.6 7.7001 386.4 6.2001 386.4C4.7001 386.4 3.6001 387.5 3.6001 389C3.6001 390.4 4.8001 391.6 6.2001 391.6Z" fill="white"/>
<path d="M20.3 391.6C21.7 391.6 22.9 390.5 22.9 389C22.9 387.6 21.8 386.4 20.3 386.4C18.8 386.4 17.7 387.5 17.7 389C17.8 390.4 18.9 391.6 20.3 391.6Z" fill="white"/>
<path d="M34.4999 391.6C35.8999 391.6 37.0999 390.5 37.0999 389C37.0999 387.6 35.9999 386.4 34.4999 386.4C32.9999 386.4 31.8999 387.5 31.8999 389C31.8999 390.4 33.0999 391.6 34.4999 391.6Z" fill="white"/>
<path d="M6.2001 405.7C7.6001 405.7 8.8001 404.6 8.8001 403.1C8.8001 401.7 7.7001 400.5 6.2001 400.5C4.7001 400.5 3.6001 401.6 3.6001 403.1C3.6001 404.6 4.8001 405.7 6.2001 405.7Z" fill="white"/>
<path d="M20.3 405.7C21.7 405.7 22.9 404.6 22.9 403.1C22.9 401.7 21.8 400.5 20.3 400.5C18.8 400.5 17.7 401.6 17.7 403.1C17.8 404.6 18.9 405.7 20.3 405.7Z" fill="white"/>
<path d="M34.4999 405.7C35.8999 405.7 37.0999 404.6 37.0999 403.1C37.0999 401.7 35.9999 400.5 34.4999 400.5C32.9999 400.5 31.8999 401.6 31.8999 403.1C31.8999 404.6 33.0999 405.7 34.4999 405.7Z" fill="white"/>
<path d="M6.2001 419.9C7.6001 419.9 8.8001 418.8 8.8001 417.3C8.8001 415.9 7.7001 414.7 6.2001 414.7C4.7001 414.7 3.6001 415.8 3.6001 417.3C3.6001 418.7 4.8001 419.9 6.2001 419.9Z" fill="white"/>
<path d="M20.3 419.9C21.7 419.9 22.9 418.8 22.9 417.3C22.9 415.9 21.8 414.7 20.3 414.7C18.8 414.7 17.7 415.8 17.7 417.3C17.8 418.7 18.9 419.9 20.3 419.9Z" fill="white"/>
<path d="M34.4999 419.9C35.8999 419.9 37.0999 418.8 37.0999 417.3C37.0999 415.9 35.9999 414.7 34.4999 414.7C32.9999 414.7 31.8999 415.8 31.8999 417.3C31.8999 418.7 33.0999 419.9 34.4999 419.9Z" fill="white"/>
<path d="M6.2001 434C7.6001 434 8.8001 432.9 8.8001 431.4C8.8001 430 7.7001 428.8 6.2001 428.8C4.7001 428.8 3.6001 429.9 3.6001 431.4C3.6001 432.9 4.8001 434 6.2001 434Z" fill="white"/>
<path d="M20.3 434C21.7 434 22.9 432.9 22.9 431.4C22.9 430 21.8 428.8 20.3 428.8C18.8 428.8 17.7 429.9 17.7 431.4C17.8 432.9 18.9 434 20.3 434Z" fill="white"/>
<path d="M34.4999 434C35.8999 434 37.0999 432.9 37.0999 431.4C37.0999 430 35.9999 428.8 34.4999 428.8C32.9999 428.8 31.8999 429.9 31.8999 431.4C31.8999 432.9 33.0999 434 34.4999 434Z" fill="white"/>
</g>
<path d="M1549.5 269C1478.63 269 1411.78 241.349 1361.85 191.417C1311.92 141.485 1284 74.3716 1284 3.5C1284 -67.3716 1311.65 -134.216 1361.58 -184.149C1411.78 -234.349 1478.63 -262 1549.5 -262C1620.37 -262 1687.22 -234.349 1737.15 -184.417C1787.35 -134.216 1814.73 -67.64 1814.73 3.23154C1814.73 74.1031 1787.08 140.948 1737.15 190.88C1687.22 240.812 1620.37 269 1549.5 269ZM1549.5 -260.658C1403.73 -260.658 1285.34 -142.27 1285.34 3.5C1285.34 149.27 1403.73 267.658 1549.5 267.658C1695.27 267.658 1813.66 149.27 1813.66 3.5C1813.66 -142.27 1695.27 -260.658 1549.5 -260.658Z" fill="white" fill-opacity="0.5"/>
<path d="M1549.5 235.98C1421.45 235.98 1317.02 131.821 1317.02 3.50005C1317.02 -124.552 1421.18 -228.98 1549.5 -228.98C1677.55 -228.98 1781.98 -124.82 1781.98 3.50005C1781.98 131.552 1677.55 235.98 1549.5 235.98ZM1549.5 -227.638C1421.98 -227.638 1318.36 -124.015 1318.36 3.50005C1318.36 131.015 1421.98 234.638 1549.5 234.638C1677.02 234.638 1780.64 131.015 1780.64 3.50005C1780.64 -124.015 1677.02 -227.638 1549.5 -227.638Z" fill="white" fill-opacity="0.5"/>
<path d="M1549.5 202.692C1439.7 202.692 1350.31 113.297 1350.31 3.49992C1350.31 -106.297 1439.7 -195.692 1549.5 -195.692C1659.3 -195.692 1748.69 -106.297 1748.69 3.49992C1748.69 113.297 1659.3 202.692 1549.5 202.692ZM1549.5 -194.35C1440.24 -194.35 1351.65 -105.492 1351.65 3.49992C1351.65 112.76 1440.51 201.35 1549.5 201.35C1658.49 201.35 1747.35 112.492 1747.35 3.49992C1747.35 -105.76 1658.76 -194.35 1549.5 -194.35Z" fill="white" fill-opacity="0.5"/>
<path d="M1549.5 169.672C1457.96 169.672 1383.33 95.0424 1383.33 3.49997C1383.33 -88.0425 1457.96 -162.672 1549.5 -162.672C1641.04 -162.672 1715.67 -88.0425 1715.67 3.49997C1715.67 95.0424 1641.04 169.672 1549.5 169.672ZM1549.5 -161.33C1458.49 -161.33 1384.67 -87.5056 1384.67 3.49997C1384.67 94.5055 1458.49 168.33 1549.5 168.33C1640.51 168.33 1714.33 94.5055 1714.33 3.49997C1714.33 -87.5056 1640.51 -161.33 1549.5 -161.33Z" fill="white" fill-opacity="0.5"/>
<path d="M1549.5 136.653C1476.21 136.653 1416.35 77.0562 1416.35 3.50008C1416.35 -69.7876 1475.94 -129.653 1549.5 -129.653C1623.06 -129.653 1682.65 -70.056 1682.65 3.50008C1682.65 76.7877 1622.79 136.653 1549.5 136.653ZM1549.5 -128.31C1476.75 -128.31 1417.69 -69.2507 1417.69 3.50008C1417.69 76.2508 1476.75 135.31 1549.5 135.31C1622.25 135.31 1681.31 76.2508 1681.31 3.50008C1681.31 -69.2507 1622.25 -128.31 1549.5 -128.31Z" fill="white" fill-opacity="0.5"/>
<path d="M1263.89 960.001C1258.35 901.077 1277.83 838.83 1316.35 793.64C1354.64 748.45 1412.86 719.21 1471.96 715.222C1532.61 711.235 1591.94 732.058 1649.27 752.216C1709.92 773.482 1772.57 795.412 1836.32 787.659C1881.92 782.121 1924.86 761.741 1966.25 742.026C2015.4 718.767 2066.09 694.621 2120.54 695.729C2139.14 696.172 2157.73 699.495 2175.66 702.596C2200.67 707.026 2226.57 711.678 2252.03 708.134C2289.66 703.039 2326.18 680.444 2354.96 644.558C2379.31 613.988 2395.69 578.545 2412.51 534.906C2422.03 510.317 2430.89 484.4 2428.45 458.26C2426.02 433.45 2409.86 405.982 2383.07 400.887L2383.29 399.779C2410.52 404.874 2427.12 433.007 2429.56 458.039C2431.99 484.178 2423.14 510.539 2413.62 535.127C2396.8 578.988 2380.42 614.431 2355.85 645.222C2326.85 681.551 2290.1 704.146 2252.03 709.241C2226.35 712.564 2200.45 708.134 2175.44 703.703C2157.51 700.602 2138.91 697.279 2120.32 696.836C2066.09 695.729 2015.4 719.874 1966.48 743.134C1924.86 762.849 1881.92 783.229 1836.1 788.767C1827.24 789.874 1818.39 790.317 1809.31 790.317C1754.64 790.317 1700.85 771.488 1648.61 753.102C1591.27 732.944 1531.95 712.343 1471.74 716.33C1412.86 720.317 1355.09 749.336 1316.79 794.305C1278.94 839.273 1259.46 901.077 1264.99 960.001H1263.89Z" fill="white"/>
<g style="mix-blend-mode:color-dodge" filter="url(#filter0_d)">
<path d="M338.325 338.119L336.881 336.676L570.35 103L572 104.444L338.325 338.119Z" fill="url(#paint3_linear)"/>
<path d="M322.444 466.197L321 464.754L444.953 340.594L446.397 342.038L322.444 466.197Z" fill="url(#paint4_linear)"/>
</g>
<g style="mix-blend-mode:soft-light">
<path d="M711.971 -133.977C657.883 -10.3619 498.194 35.9937 423.501 146.732C387.442 198.239 374.564 262.621 353.959 321.854C333.354 386.236 292.144 422.291 243.208 468.646C160.788 551.057 55.1873 594.837 -42.6862 654.069C-68.4424 669.521 -94.1987 684.973 -117.379 703L-411 409.414L526.526 -528C531.677 -525.425 536.828 -522.849 539.404 -520.274C663.034 -448.165 776.361 -275.619 711.971 -133.977Z" fill="url(#paint5_linear)"/>
</g>
<g style="mix-blend-mode:soft-light">
<path d="M477.589 -401.81C526.526 -350.304 544.555 -270.469 511.072 -208.662C495.619 -180.333 472.438 -159.731 449.257 -136.553C415.774 -105.649 379.716 -72.1701 346.233 -41.2663C307.598 -5.21188 268.964 30.8425 243.208 77.1982C217.452 123.554 209.725 180.211 183.968 226.566C145.334 301.25 68.0655 347.606 -9.20309 381.085C-86.4717 414.564 -168.892 435.167 -243.585 473.797C-264.19 486.673 -287.37 499.55 -305.4 515.002L-411 409.414L433.804 -435.289C449.257 -424.988 464.711 -414.687 477.589 -401.81Z" fill="url(#paint6_linear)"/>
</g>
<g style="mix-blend-mode:soft-light">
<path d="M490.465 -105.65C451.831 -20.6644 343.655 12.8147 292.143 87.4988C266.386 123.553 258.659 167.334 243.206 208.539C227.752 252.319 199.42 278.072 165.937 311.551C109.273 368.208 37.1561 399.112 -32.3856 440.317C-50.415 450.618 -68.4443 460.919 -83.8981 473.796L-287.372 270.346L361.684 -381.208C364.26 -378.633 366.836 -378.633 371.987 -376.058C454.407 -324.551 534.251 -206.087 490.465 -105.65Z" fill="url(#paint7_linear)"/>
</g>
<g style="mix-blend-mode:soft-light">
<path d="M328.202 -293.648C361.685 -260.169 374.563 -203.512 351.382 -159.731C341.08 -141.704 325.626 -126.252 307.597 -110.8C284.416 -90.1978 261.236 -67.02 235.479 -43.8422C209.723 -18.0891 181.391 5.08878 165.938 38.5679C147.908 72.0469 142.757 110.677 124.728 141.58C96.3958 193.087 44.8834 226.566 -9.20459 247.168C-63.2926 270.346 -119.956 283.223 -171.469 311.551C-186.922 319.277 -202.376 329.578 -215.254 339.88L-289.947 265.195L297.294 -316.825C307.597 -309.099 317.899 -301.374 328.202 -293.648Z" fill="url(#paint8_linear)"/>
</g>
<g style="mix-blend-mode:soft-light">
<path d="M2295.69 223.66C2198.75 231.038 2115.28 145.114 2019.57 135.03C1974.6 129.501 1929.28 143.074 1884.63 149.989C1836.69 158.645 1799.82 144.615 1753.78 129.153C1673.49 104.576 1609.94 52.1924 1539.16 9.94846C1520.63 -1.21419 1502.09 -12.3768 1482.78 -21.0302L1570.35 -307.085L2483.74 -27.5258C2483.84 -23.3779 2483.94 -19.23 2483.17 -16.7208C2479.84 83.8016 2406.72 215.103 2295.69 223.66Z" fill="url(#paint9_linear)"/>
</g>
<g style="mix-blend-mode:overlay">
<path d="M2386.9 -15.9993C2370.67 32.5471 2325.96 71.0066 2275.31 70.5991C2252.06 70.344 2231.12 62.5613 2208.53 55.6491C2177.55 44.7943 2144.06 33.1714 2113.08 22.3165C2077.08 9.92565 2041.08 -2.46526 2002.87 -3.18053C1964.67 -3.8958 1926.01 10.3418 1887.8 9.62655C1827.22 10.2949 1771.61 -23.193 1724.19 -61.0341C1676.77 -98.8751 1635.8 -144.346 1585.97 -178.808C1570.81 -187.564 1554.79 -197.958 1538.86 -204.205L1571.12 -309.593L2393.4 -55.174C2393.71 -42.7304 2389.87 -30.1841 2386.9 -15.9993Z" fill="url(#paint10_linear)"/>
</g>
<g style="mix-blend-mode:soft-light">
<path d="M2204.44 91.444C2137.3 95.5948 2079.43 38.0902 2014.5 30.5654C1982.85 26.3677 1952.38 36.2522 1920.94 40.3503C1887.85 45.3189 1861.89 36.0001 1829.27 26.0158C1774.07 9.11944 1730.02 -26.3149 1680.3 -56.6282C1667.65 -64.6162 1655 -72.6041 1641.59 -78.0828L1702.27 -276.313L2334.61 -82.7728C2333.85 -80.2635 2334.72 -78.6249 2333.95 -76.1157C2331.54 -5.4991 2281.51 86.2174 2204.44 91.444Z" fill="url(#paint11_linear)"/>
</g>
</g>
<defs>
<filter id="filter0_d" x="317" y="103" width="259" height="371.197" filterUnits="userSpaceOnUse" color-interpolation-filters="sRGB">
<feFlood flood-opacity="0" result="BackgroundImageFix"/>
<feColorMatrix in="SourceAlpha" type="matrix" values="0 0 0 0 0 0 0 0 0 0 0 0 0 0 0 0 0 0 127 0"/>
<feOffset dy="4"/>
<feGaussianBlur stdDeviation="2"/>
<feColorMatrix type="matrix" values="0 0 0 0 0 0 0 0 0 0 0 0 0 0 0 0 0 0 0.25 0"/>
<feBlend mode="normal" in2="BackgroundImageFix" result="effect1_dropShadow"/>
<feBlend mode="normal" in="SourceGraphic" in2="effect1_dropShadow" result="shape"/>
</filter>
<linearGradient id="paint0_linear" x1="86" y1="45" x2="1867" y2="927" gradientUnits="userSpaceOnUse">
<stop stop-color="#F1F2F7"/>
<stop offset="1" stop-color="#D9BBBE"/>
</linearGradient>
<radialGradient id="paint1_radial" cx="0" cy="0" r="1" gradientUnits="userSpaceOnUse" gradientTransform="translate(34.6441 889.151) rotate(180) scale(163.927 164.148)">
<stop stop-color="#7A0000"/>
<stop offset="0.0534331" stop-color="#8A1E1E"/>
<stop offset="0.1664" stop-color="#A95959"/>
<stop offset="0.2793" stop-color="#C38C8C"/>
<stop offset="0.3893" stop-color="#D9B5B5"/>
<stop offset="0.4961" stop-color="#E9D5D5"/>
<stop offset="0.5985" stop-color="#F5ECEC"/>
<stop offset="0.695" stop-color="#FDFAFA"/>
<stop offset="0.7792" stop-color="white"/>
</radialGradient>
<linearGradient id="paint2_linear" x1="94.2569" y1="889.148" x2="-139" y2="889.148" gradientUnits="userSpaceOnUse">
<stop stop-color="#FFCF00"/>
<stop offset="1" stop-color="#EC8C02"/>
</linearGradient>
<linearGradient id="paint3_linear" x1="336.786" y1="220.558" x2="571.9" y2="220.558" gradientUnits="userSpaceOnUse">
<stop/>
<stop offset="0.109" stop-color="#060606"/>
<stop offset="0.252" stop-color="#161616"/>
<stop offset="0.4141" stop-color="#323232"/>
<stop offset="0.5902" stop-color="#575757"/>
<stop offset="0.7775" stop-color="#888888"/>
<stop offset="0.9716" stop-color="#C3C3C3"/>
<stop offset="1" stop-color="#CCCCCC"/>
</linearGradient>
<linearGradient id="paint4_linear" x1="321" y1="403.411" x2="446.478" y2="403.411" gradientUnits="userSpaceOnUse">
<stop/>
<stop offset="0.109" stop-color="#060606"/>
<stop offset="0.252" stop-color="#161616"/>
<stop offset="0.4141" stop-color="#323232"/>
<stop offset="0.5902" stop-color="#575757"/>
<stop offset="0.7775" stop-color="#888888"/>
<stop offset="0.9716" stop-color="#C3C3C3"/>
<stop offset="1" stop-color="#CCCCCC"/>
</linearGradient>
<linearGradient id="paint5_linear" x1="-231.421" y1="588.642" x2="1152.52" y2="-795.467" gradientUnits="userSpaceOnUse">
<stop stop-color="white"/>
<stop offset="1"/>
</linearGradient>
<linearGradient id="paint6_linear" x1="-303.501" y1="516.57" x2="545.573" y2="-332.605" gradientUnits="userSpaceOnUse">
<stop/>
<stop offset="1" stop-color="white"/>
</linearGradient>
<linearGradient id="paint7_linear" x1="-162.584" y1="392.658" x2="795.087" y2="-565.128" gradientUnits="userSpaceOnUse">
<stop stop-color="white"/>
<stop offset="1"/>
</linearGradient>
<linearGradient id="paint8_linear" x1="-212.464" y1="342.784" x2="375.087" y2="-244.837" gradientUnits="userSpaceOnUse">
<stop/>
<stop offset="1" stop-color="white"/>
</linearGradient>
<linearGradient id="paint9_linear" x1="1517.32" y1="-132.736" x2="2865.77" y2="280.075" gradientUnits="userSpaceOnUse">
<stop stop-color="white"/>
<stop offset="1"/>
</linearGradient>
<linearGradient id="paint10_linear" x1="1538.82" y1="-202.959" x2="2366.12" y2="50.3087" gradientUnits="userSpaceOnUse">
<stop/>
<stop offset="1" stop-color="white"/>
</linearGradient>
<linearGradient id="paint11_linear" x1="1665.3" y1="-155.195" x2="2598.41" y2="130.464" gradientUnits="userSpaceOnUse">
<stop stop-color="white"/>
<stop offset="1"/>
</linearGradient>
<clipPath id="clip0">
<rect width="1920" height="960" fill="white"/>
</clipPath>
<clipPath id="clip1">
<rect width="339" height="327" fill="white" transform="translate(-139 725)"/>
</clipPath>
<clipPath id="clip2">
<rect width="90" height="458" fill="white" transform="translate(-53 -24)"/>
</clipPath>
</defs>
</svg>