<svg width="1920" height="960" viewBox="0 0 1920 960" fill="none" xmlns="http://www.w3.org/2000/svg">
<g clip-path="url(#clip0)">
<rect width="1920" height="960" fill="white"/>
<path d="M1920 0H0V960H1920V0Z" fill="url(#paint0_linear)"/>
<g style="mix-blend-mode:overlay">
<path d="M366.118 -606C366.3 -604.903 382.387 -493.348 422.054 -415.443C440.334 -379.599 443.807 -351.802 433.205 -327.845C419.312 -296.756 380.559 -272.982 314.569 -255.426C285.504 -247.562 256.256 -241.71 228.105 -236.041C180.212 -226.349 134.878 -217.022 103.985 -200.929C69.9844 -183.19 56.4573 -158.319 61.3929 -123.206C63.2208 -110.588 65.4144 -96.5063 67.7908 -81.5105C76.0167 -30.3051 86.4362 33.5188 83.1458 88.3818C79.3071 152.937 57.9197 192.073 17.704 208.166C-28.9095 226.819 -90.147 236.146 -144.072 244.558C-208.417 254.434 -263.988 263.029 -263.074 283.877H-263.988C-264.902 262.297 -211.708 254.068 -144.255 243.644C-90.3298 235.232 -29.0923 225.905 17.3384 207.251C57.1885 191.341 78.3931 152.389 82.2318 88.3818C85.3394 33.5188 75.1027 -30.1222 66.8768 -81.3276C64.5004 -96.3235 62.124 -110.405 60.4789 -123.023C55.5433 -158.684 69.2532 -183.738 103.619 -201.66C134.512 -217.936 179.846 -227.08 227.922 -236.955C256.073 -242.625 285.321 -248.66 314.386 -256.34C380.01 -273.897 418.764 -297.488 432.473 -328.211C442.893 -351.802 439.42 -379.416 421.323 -414.894C381.656 -493.165 365.386 -604.72 365.204 -605.817L366.118 -606Z" fill="white"/>
<path d="M381.472 -591.919C381.655 -590.821 392.623 -489.873 427.172 -410.505C440.334 -380.148 453.495 -341.012 437.592 -308.094C423.333 -278.834 388.236 -256.889 330.106 -241.527C301.041 -233.664 271.793 -227.812 243.643 -222.142C195.749 -212.45 150.415 -203.123 119.522 -187.03C85.522 -169.291 71.9949 -144.42 76.9305 -109.308C78.21 -100.53 79.4896 -91.0199 81.1348 -80.9617C96.3071 20.5347 119.157 173.968 24.1017 211.823C-19.5871 229.197 -74.975 240.535 -123.965 250.593C-190.686 264.126 -248.268 276.013 -247.354 297.775H-248.268C-249.365 275.099 -193.977 263.943 -124.148 249.679C-75.1578 239.621 -19.7699 228.465 23.7361 211.092C117.877 173.602 95.0275 20.5347 80.038 -80.596C78.5756 -90.6542 77.1132 -100.164 75.8337 -108.942C70.8981 -144.603 84.608 -169.657 118.974 -187.579C149.867 -203.855 195.201 -212.999 243.277 -222.874C271.428 -228.543 300.676 -234.578 329.741 -242.259C387.505 -257.803 422.602 -279.383 436.495 -308.46C452.215 -341.012 439.237 -379.782 426.075 -410.139C391.526 -489.691 380.559 -590.821 380.376 -591.919H381.472Z" fill="white"/>
<path d="M396.645 -577.837C396.645 -576.923 402.677 -486.216 431.925 -405.567C447.463 -362.774 459.893 -321.627 442.162 -287.612C428.086 -260.729 396.462 -240.979 345.278 -227.446C316.213 -219.582 286.966 -213.73 258.815 -208.061C210.922 -198.368 165.588 -189.042 134.695 -172.949C100.694 -155.21 87.1672 -130.338 92.1027 -95.2261C92.6511 -91.3857 93.1995 -87.3624 93.7479 -83.1562C100.877 -31.9508 109.834 31.6902 104.716 88.7476C101.974 119.837 95.0275 145.805 84.2424 166.104C71.6293 189.513 53.5323 206.154 29.9513 215.664C-9.89872 231.574 -58.7059 244.01 -101.846 254.982C-172.406 272.904 -233.278 288.449 -232.181 311.857H-233.095C-234.192 287.717 -172.955 272.173 -102.029 254.068C-58.8887 243.095 -10.0815 230.66 29.5857 214.75C73.4573 197.193 97.7695 156.046 103.802 88.7476C108.92 31.6902 100.146 -31.9508 92.8339 -82.9734C92.2855 -86.9967 91.7371 -91.0199 91.1888 -95.0432C86.2532 -130.704 99.9631 -155.758 134.329 -173.68C165.222 -189.956 210.556 -199.1 258.632 -208.975C286.783 -214.644 316.031 -220.679 345.096 -228.36C395.914 -241.893 427.538 -261.461 441.43 -288.161C458.979 -321.627 446.549 -362.774 431.194 -405.385C401.946 -486.399 395.914 -577.106 395.914 -578.02L396.645 -577.837Z" fill="white"/>
<path d="M412 -563.938C412 -563.207 412.731 -482.924 436.86 -400.63C438.323 -395.692 439.785 -390.754 441.248 -385.634C454.409 -342.292 466.657 -301.145 448.011 -267.496C434.484 -243.173 405.968 -225.434 360.634 -213.364C331.569 -205.501 302.321 -199.648 274.17 -193.979C226.277 -184.287 180.943 -174.96 150.05 -158.867C116.049 -141.128 102.522 -116.257 107.458 -81.1446C114.953 -27.3789 122.265 34.7991 115.867 90.7593C112.393 122.031 104.533 148.365 93.0168 168.848C79.4897 192.622 60.2959 209.629 35.9837 219.504C1.61764 233.22 -37.5012 245.29 -75.3405 256.811C-151.933 280.402 -217.923 300.702 -216.826 325.938H-217.74C-218.837 299.97 -152.481 279.488 -75.5233 255.897C-37.684 244.193 1.43486 232.306 35.8009 218.59C81.5005 200.302 107.458 158.424 115.318 90.5765C121.716 34.7991 114.221 -27.196 106.909 -80.9617C101.974 -116.623 115.684 -141.677 150.05 -159.599C180.943 -175.875 226.277 -185.018 274.353 -194.894C302.504 -200.563 331.751 -206.598 360.816 -214.279C405.419 -226.348 433.753 -243.905 447.097 -268.044C465.743 -301.328 453.495 -342.292 440.334 -385.451C438.871 -390.389 437.409 -395.326 435.946 -400.447C411.817 -482.741 411.086 -563.207 411.086 -563.938H412Z" fill="white"/>
<path d="M426.441 -549.857H427.355C427.355 -549.126 422.785 -479.267 441.796 -395.692C444.355 -384.171 447.828 -372.284 450.936 -360.946C462.635 -319.616 473.603 -280.663 455.506 -248.842C442.71 -226.531 416.753 -210.438 375.988 -199.466C346.924 -191.602 317.676 -185.75 289.525 -180.081C241.632 -170.388 196.298 -161.062 165.405 -144.969C131.404 -127.23 117.877 -102.358 122.813 -67.2461C128.845 -23.1729 135.974 42.114 126.652 99.5372C116.415 163.178 87.8983 204.691 42.0159 222.979C15.8758 233.403 -12.6408 243.644 -40.4261 253.519C-123.965 283.328 -202.751 311.491 -201.471 339.837H-202.385C-203.665 310.76 -124.513 282.597 -40.7918 252.605C-13.0064 242.73 15.5102 232.488 41.6503 222.064C87.1671 203.96 115.501 162.63 125.738 99.3544C135.06 42.114 127.931 -22.99 121.899 -67.0632C116.963 -102.724 130.673 -127.778 165.039 -145.7C195.932 -161.976 241.266 -171.12 289.342 -180.995C317.493 -186.664 346.741 -192.699 375.806 -200.38C416.387 -211.17 442.344 -227.263 454.775 -249.391C472.689 -280.846 461.721 -319.616 450.205 -360.763C446.914 -372.284 443.624 -383.988 441.065 -395.509C421.688 -479.084 426.258 -549.126 426.441 -549.857Z" fill="white"/>
<path d="M441.613 -535.958L442.527 -535.776C442.344 -535.227 432.473 -475.609 446.549 -390.755C449.291 -373.93 454.226 -356.557 458.979 -339.915C470.495 -299.682 481.28 -261.644 464.097 -231.286C452.398 -210.438 428.452 -195.442 390.978 -185.567C361.913 -177.703 332.665 -171.851 304.514 -166.182C256.621 -156.49 211.287 -147.163 180.394 -131.07C146.394 -113.331 132.867 -88.4597 137.802 -53.3474C146.577 10.2936 146.394 64.6079 136.888 108.315C124.093 168.299 93.9308 208.166 47.5 226.636C37.0805 230.843 26.2954 235.049 15.3275 239.255C-80.0932 276.927 -188.31 319.538 -186.847 353.736H-187.761C-189.224 318.989 -80.8244 276.196 14.9619 238.523C25.9298 234.317 36.5321 229.928 47.1344 225.905C93.1996 207.434 123.179 167.933 135.974 108.315C145.297 64.7908 145.663 10.4765 136.888 -52.9817C131.953 -88.6426 145.663 -113.697 180.029 -131.619C210.922 -147.895 256.256 -157.038 304.332 -166.914C332.483 -172.583 361.73 -178.618 390.795 -186.299C427.903 -196.174 451.667 -210.987 463.366 -231.652C480.366 -261.644 469.581 -299.499 458.065 -339.732C453.312 -356.557 448.377 -373.93 445.452 -390.755C431.559 -475.609 441.613 -535.41 441.613 -535.958Z" fill="white"/>
<path d="M456.969 -522.06L457.883 -521.694C457.7 -521.145 442.345 -471.952 451.485 -385.817C453.678 -364.603 460.442 -342.475 467.023 -321.078C479.087 -281.211 490.604 -243.722 474.152 -214.096C463.367 -194.528 441.248 -180.629 406.516 -171.303C377.451 -163.439 348.204 -157.587 320.053 -151.918C272.16 -142.225 226.826 -132.899 195.933 -116.805C161.932 -99.0665 148.405 -74.1953 153.341 -39.083C159.007 2.0642 162.663 62.7792 147.857 117.459C132.502 173.785 100.877 211.824 53.8983 230.66C-30.9201 264.492 -172.772 327.219 -170.944 368H-171.858C-173.686 326.67 -31.4685 263.578 53.5327 229.745C100.329 211.092 131.77 173.237 146.943 117.276C161.749 62.7792 158.093 2.24709 152.427 -38.9001C147.491 -74.561 161.201 -99.6151 195.567 -117.537C226.46 -133.813 271.794 -142.957 319.87 -152.832C348.021 -158.501 377.269 -164.536 406.334 -172.217C440.7 -181.361 462.635 -195.259 473.42 -214.644C489.69 -243.905 478.356 -281.211 466.291 -320.896C459.711 -342.292 452.947 -364.603 450.753 -385.817C441.431 -472.134 456.786 -521.511 456.969 -522.06Z" fill="white"/>
</g>
<g style="mix-blend-mode:soft-light">
<path d="M1920 0L1920 381C1913.77 381 1907.74 380.598 1901.7 379.794C1769.61 362.513 1722.96 204.968 1635.5 126.598C1540.6 41.3955 1416.34 39.9888 1299.32 36.1708C1250.67 34.5632 1203.22 22.3053 1162 -0.000132533L1920 0Z" fill="url(#paint1_linear)"/>
</g>
<g style="mix-blend-mode:soft-light">
<path d="M1946 -19L1946 335C1940.21 335 1934.61 334.627 1929.01 333.88C1806.32 317.823 1763 171.443 1681.77 98.6266C1593.63 19.462 1478.22 18.155 1369.54 14.6075C1324.35 13.1138 1280.28 1.72457 1242 -19.0001L1946 -19Z" fill="url(#paint2_linear)"/>
</g>
</g>
<defs>
<linearGradient id="paint0_linear" x1="0" y1="0" x2="1920" y2="960" gradientUnits="userSpaceOnUse">
<stop offset="0.0677083" stop-color="#A8D7FF"/>
<stop offset="1" stop-color="#EC779E"/>
</linearGradient>
<linearGradient id="paint1_linear" x1="2127" y1="-183" x2="1571.5" y2="266.5" gradientUnits="userSpaceOnUse">
<stop stop-color="white"/>
<stop offset="1"/>
</linearGradient>
<linearGradient id="paint2_linear" x1="1437" y1="262" x2="2250" y2="-183" gradientUnits="userSpaceOnUse">
<stop/>
<stop offset="1" stop-color="white"/>
</linearGradient>
<clipPath id="clip0">
<rect width="1920" height="960" fill="white"/>
</clipPath>
</defs>
</svg>