<svg width="1920" height="960" viewBox="0 0 1920 960" fill="none" xmlns="http://www.w3.org/2000/svg">
<rect width="1920" height="960" fill="white"/>
<g clip-path="url(#clip0)">
<rect width="1920" height="960" fill="white"/>
<path d="M1920 0H0V960H1920V0Z" fill="url(#paint0_linear)"/>
<g style="mix-blend-mode:overlay">
<path d="M359.889 1036.62C450.026 1104.2 411.576 1258.25 300.009 1301.89C277.632 1310.71 234.612 1320.48 217.751 1325.04C88.2195 1360.02 118.16 1499.58 18.411 1565.74C-81.3379 1631.9 -151.777 1545.89 -201.1 1496.59C-300.218 1397.51 -436.526 1502.1 -483.643 1372.46C-504.443 1315.44 -498.14 1211.31 -488.37 1151.14C-457.326 958.487 -461.266 958.015 -535.959 851.686C-566.53 808.052 -590.955 766.624 -590.483 712.75C-589.852 626.743 -527.45 576.493 -457.327 574.445C-224.579 567.671 -260.823 606.895 -95.0474 516.476C-33.4332 483.081 33.3813 461.028 100.511 480.088C178.671 502.299 238.394 569.561 220.745 647.693C202.781 726.455 146.997 796.395 197.896 843.968C248.637 891.382 332.313 877.993 336.567 957.385C337.04 966.994 333.889 990.78 334.676 1004.64C335.464 1021.97 346.968 1027.01 359.889 1036.62Z" fill="url(#paint1_linear)"/>
</g>
<g style="mix-blend-mode:overlay">
<path d="M-512.953 753.865C-479.388 722.99 -440.623 723.463 -396.658 737.01C-342.765 753.55 -323.698 766.782 -279.89 750.242C-221.113 728.031 -184.081 682.822 -115.533 685.342C8.01049 689.91 56.703 804.745 99.8803 856.57C144.161 909.656 192.696 882.404 245.643 891.855C300.796 901.622 316.082 969.83 266.128 1013.62C211.448 1061.67 155.506 1076.16 168.901 1153.5C172.525 1174.45 196.005 1173.82 204.357 1210.37C217.278 1265.97 170.477 1371.04 99.0924 1350.88C64.4245 1341.11 25.8171 1312.92 -20.5117 1350.56C-88.1141 1405.7 -129.873 1475.17 -190.699 1453.9C-246.326 1434.37 -276.581 1395.62 -357.263 1413.73C-382.633 1419.4 -399.81 1427.59 -464.891 1451.22C-602.932 1501.31 -687.08 1370.88 -630.508 1238.09C-608.289 1185.95 -596.313 1171.77 -579.925 1143.26C-514.686 1030 -549.354 1021.02 -565.112 922.415C-575.67 853.42 -548.724 786.945 -512.953 753.865Z" fill="url(#paint2_linear)"/>
</g>
<g style="mix-blend-mode:color-dodge" clip-path="url(#clip1)">
<path d="M1499.38 837.635C1552.23 748.475 1628.21 731.964 1720.04 734.165C1798.67 736.147 1883.89 756.841 1956.57 726.24C2029.02 695.86 2079.01 641.043 2157.2 644.125C2261.8 648.307 2306.95 731.964 2300.56 814.299C2291.75 928.336 2193.75 986.235 2096.41 980.071C2015.81 975.008 1930.58 967.743 1858.79 1020.58C1792.5 1069.23 1747.57 1169.4 1655.96 1178.64C1475.15 1196.92 1401.82 1002.53 1499.38 837.635Z" fill="url(#paint3_linear)"/>
<path d="M1556.83 1353.21C1582.37 1378.75 1624 1378.75 1649.54 1353.21L2031.42 971.476C2056.96 945.939 2056.96 904.331 2031.42 878.794C2005.87 853.257 1964.25 853.257 1938.7 878.794L1556.83 1260.53C1531.5 1286.07 1531.5 1327.68 1556.83 1353.21Z" fill="url(#paint4_linear)"/>
<path d="M1909.85 1186.56C1927.47 1204.17 1956.1 1204.17 1973.5 1186.56L2235.79 924.364C2253.4 906.753 2253.4 878.133 2235.79 860.742C2218.17 843.13 2189.54 843.13 2172.14 860.742L1909.85 1122.94C1892.23 1140.33 1892.23 1169.17 1909.85 1186.56Z" fill="url(#paint5_linear)"/>
<path d="M1645.58 1343.75C1645.36 1343.75 1644.92 1343.75 1644.7 1343.53C1644.26 1343.09 1644.26 1342.43 1644.7 1341.99L2111.58 875.271C2112.02 874.831 2112.68 874.831 2113.12 875.271C2113.56 875.712 2113.56 876.372 2113.12 876.812L1646.24 1343.53C1646.02 1343.75 1645.8 1343.75 1645.58 1343.75Z" fill="url(#paint6_linear)"/>
<path d="M1851.1 932.459C1850.44 932.459 1850 931.798 1850 931.358L1851.54 914.627C1851.54 914.186 1851.98 913.746 1852.64 913.526L1868.5 911.985L1870.04 896.134C1870.04 895.694 1870.48 895.254 1871.14 895.034L1887 893.492L1888.54 877.642C1888.54 877.201 1888.98 876.761 1889.64 876.541L1906.38 875C1907.04 875 1907.48 875.44 1907.48 876.101C1907.48 876.761 1907.04 877.201 1906.38 877.201L1890.52 878.743L1888.98 894.593C1888.98 895.033 1888.54 895.474 1887.88 895.694L1872.02 897.235L1870.48 913.086C1870.48 913.526 1870.04 913.966 1869.38 914.186L1853.52 915.727L1851.98 931.578C1852.2 932.018 1851.76 932.459 1851.1 932.459Z" fill="url(#paint7_linear)"/>
<path d="M1584.21 1110.49C1583.99 1110.49 1583.55 1110.49 1583.33 1110.27C1582.89 1109.83 1582.89 1109.17 1583.33 1108.73L1882.84 809.33C1883.28 808.89 1883.94 808.89 1884.38 809.33C1884.82 809.771 1884.82 810.431 1884.38 810.871L1584.87 1110.27C1584.87 1110.27 1584.43 1110.49 1584.21 1110.49Z" fill="url(#paint8_linear)"/>
</g>
<path d="M1265.11 -0.000607267C1270.65 58.9234 1251.17 121.17 1212.65 166.36C1174.36 211.55 1116.14 240.791 1057.04 244.778C996.386 248.765 937.062 227.942 879.73 207.784C819.078 186.518 756.434 164.588 692.682 172.341C647.083 177.879 604.139 198.259 562.745 217.974C513.604 241.234 462.913 265.379 408.459 264.272C389.865 263.829 371.27 260.506 353.34 257.404C328.327 252.974 302.428 248.322 276.972 251.866C239.341 256.961 202.817 279.556 174.04 315.442C149.691 346.012 133.311 381.455 116.487 425.094C106.969 449.683 98.1146 475.601 100.55 501.74C102.984 526.55 119.144 554.018 145.928 559.113L145.707 560.221C118.479 555.126 101.878 526.993 99.4427 501.961C97.0078 475.822 105.862 449.461 115.381 424.873C132.204 381.012 148.584 345.569 173.155 314.778C202.153 278.449 238.898 255.854 276.972 250.759C302.649 247.436 328.548 251.866 353.562 256.297C371.492 259.398 390.086 262.721 408.68 263.164C462.913 264.272 513.604 240.126 562.524 216.867C604.139 197.151 647.083 176.772 692.904 171.234C701.758 170.126 710.612 169.683 719.688 169.683C774.364 169.683 828.154 188.512 880.394 206.898C937.726 227.056 997.05 247.658 1057.26 243.67C1116.14 239.683 1173.91 210.664 1212.21 165.696C1250.06 120.727 1269.54 58.9234 1264.01 -0.000607267H1265.11Z" fill="white"/>
</g>
<defs>
<linearGradient id="paint0_linear" x1="248" y1="1310" x2="1920" y2="-1.07884e-05" gradientUnits="userSpaceOnUse">
<stop stop-color="#C5B2D3"/>
<stop offset="0.263854" stop-color="#E9E0E5"/>
<stop offset="1" stop-color="#D9BBBE"/>
</linearGradient>
<linearGradient id="paint1_linear" x1="559.5" y1="262.5" x2="-236" y2="1496" gradientUnits="userSpaceOnUse">
<stop stop-color="white"/>
<stop offset="1" stop-opacity="0.25"/>
</linearGradient>
<linearGradient id="paint2_linear" x1="-265.5" y1="685" x2="296" y2="1252.5" gradientUnits="userSpaceOnUse">
<stop stop-color="white"/>
<stop offset="1"/>
</linearGradient>
<linearGradient id="paint3_linear" x1="1774.79" y1="719.862" x2="2024.29" y2="1136.08" gradientUnits="userSpaceOnUse">
<stop stop-opacity="0"/>
<stop offset="0.2295" stop-color="#050505"/>
<stop offset="0.4926" stop-color="#131313"/>
<stop offset="0.7711" stop-color="#292929"/>
<stop offset="1" stop-color="#424242"/>
</linearGradient>
<linearGradient id="paint4_linear" x1="1991.99" y1="950.011" x2="1478.76" y2="1381.19" gradientUnits="userSpaceOnUse">
<stop stop-opacity="0"/>
<stop offset="0.1942" stop-color="#050505"/>
<stop offset="0.4169" stop-color="#131313"/>
<stop offset="0.6536" stop-color="#2A2A2A"/>
<stop offset="0.8985" stop-color="#494949"/>
<stop offset="1" stop-color="#595959"/>
</linearGradient>
<linearGradient id="paint5_linear" x1="2208.63" y1="909.569" x2="1856.05" y2="1205.77" gradientUnits="userSpaceOnUse">
<stop stop-opacity="0"/>
<stop offset="0.1942" stop-color="#050505"/>
<stop offset="0.4169" stop-color="#131313"/>
<stop offset="0.6536" stop-color="#2A2A2A"/>
<stop offset="0.8985" stop-color="#494949"/>
<stop offset="1" stop-color="#595959"/>
</linearGradient>
<linearGradient id="paint6_linear" x1="1644.4" y1="1109.36" x2="2113.49" y2="1109.36" gradientUnits="userSpaceOnUse">
<stop stop-color="#918D60"/>
<stop offset="0.3772" stop-color="#555338"/>
<stop offset="0.799" stop-color="#181710"/>
<stop offset="1"/>
</linearGradient>
<linearGradient id="paint7_linear" x1="1850" y1="903.955" x2="1907.08" y2="903.955" gradientUnits="userSpaceOnUse">
<stop stop-color="#918D60"/>
<stop offset="0.3772" stop-color="#555338"/>
<stop offset="0.799" stop-color="#181710"/>
<stop offset="1"/>
</linearGradient>
<linearGradient id="paint8_linear" x1="1884.82" y1="959.618" x2="1583.11" y2="959.618" gradientUnits="userSpaceOnUse">
<stop stop-color="#918D60"/>
<stop offset="0.3772" stop-color="#555338"/>
<stop offset="0.799" stop-color="#181710"/>
<stop offset="1"/>
</linearGradient>
<clipPath id="clip0">
<rect width="1920" height="960" fill="white"/>
</clipPath>
<clipPath id="clip1">
<rect width="1020" height="872" fill="white" transform="translate(1317 621)"/>
</clipPath>
</defs>
</svg>