<svg width="1920" height="960" viewBox="0 0 1920 960" fill="none" xmlns="http://www.w3.org/2000/svg">
<g clip-path="url(#clip0)">
<path d="M1920 0H0V960H1920V0Z" fill="url(#paint0_linear)"/>
<g style="mix-blend-mode:overlay">
<path d="M1546.08 1072C1545.89 1070.9 1529.81 959.348 1490.14 881.443C1471.86 845.599 1468.39 817.802 1478.99 793.845C1492.88 762.756 1531.64 738.982 1597.63 721.426C1626.69 713.562 1655.94 707.71 1684.09 702.041C1731.98 692.348 1777.32 683.022 1808.21 666.929C1842.21 649.19 1855.74 624.318 1850.8 589.206C1848.97 576.588 1846.78 562.506 1844.4 547.51C1836.18 496.305 1825.76 432.481 1829.05 377.618C1832.89 313.063 1854.27 273.927 1894.49 257.834C1941.1 239.181 2002.34 229.854 2056.27 221.442C2120.61 211.566 2176.18 202.971 2175.27 182.123H2176.18C2177.1 203.703 2123.9 211.932 2056.45 222.356C2002.52 230.768 1941.29 240.095 1894.86 258.748C1855.01 274.659 1833.8 313.611 1829.96 377.618C1826.86 432.481 1837.09 496.122 1845.32 547.327C1847.69 562.323 1850.07 576.405 1851.72 589.023C1856.65 624.684 1842.94 649.738 1808.58 667.66C1777.68 683.936 1732.35 693.08 1684.27 702.955C1656.12 708.625 1626.87 714.659 1597.81 722.34C1532.18 739.896 1493.43 763.487 1479.72 794.211C1469.3 817.802 1472.77 845.416 1490.87 880.894C1530.54 959.165 1546.81 1070.72 1546.99 1071.82L1546.08 1072Z" fill="white"/>
<path d="M1530.72 1057.92C1530.54 1056.82 1519.57 955.873 1485.02 876.505C1471.86 846.148 1458.7 807.012 1474.6 774.094C1488.86 744.834 1523.96 722.889 1582.09 707.527C1611.15 699.664 1640.4 693.811 1668.55 688.142C1716.45 678.45 1761.78 669.123 1792.67 653.03C1826.67 635.291 1840.2 610.42 1835.26 575.308C1833.98 566.529 1832.7 557.02 1831.06 546.962C1815.89 445.465 1793.04 292.032 1888.09 254.177C1931.78 236.803 1987.17 225.465 2036.16 215.407C2102.88 201.874 2160.46 189.987 2159.55 168.225H2160.46C2161.56 190.901 2106.17 202.057 2036.34 216.321C1987.35 226.379 1931.96 237.535 1888.46 254.908C1794.32 292.398 1817.17 445.465 1832.16 546.596C1833.62 556.654 1835.08 566.164 1836.36 574.942C1841.3 610.603 1827.59 635.657 1793.22 653.579C1762.33 669.855 1716.99 678.999 1668.92 688.874C1640.77 694.543 1611.52 700.578 1582.45 708.259C1524.69 723.803 1489.59 745.383 1475.7 774.46C1459.98 807.012 1472.96 845.782 1486.12 876.139C1520.67 955.691 1531.64 1056.82 1531.82 1057.92H1530.72Z" fill="white"/>
<path d="M1515.55 1043.84C1515.55 1042.92 1509.52 952.216 1480.27 871.567C1464.73 828.774 1452.3 787.627 1470.03 753.612C1484.11 726.729 1515.73 706.979 1566.92 693.446C1595.98 685.582 1625.23 679.73 1653.38 674.061C1701.27 664.368 1746.61 655.042 1777.5 638.949C1811.5 621.21 1825.03 596.338 1820.09 561.226C1819.54 557.386 1819 553.362 1818.45 549.156C1811.32 497.951 1802.36 434.31 1807.48 377.252C1810.22 346.163 1817.17 320.195 1827.95 299.896C1840.57 276.487 1858.66 259.846 1882.24 250.336C1922.09 234.426 1970.9 221.99 2014.04 211.018C2084.6 193.096 2145.47 177.551 2144.38 154.143H2145.29C2146.39 178.283 2085.15 193.827 2014.22 211.932C1971.08 222.905 1922.28 235.34 1882.61 251.25C1838.74 268.807 1814.43 309.954 1808.39 377.252C1803.27 434.31 1812.05 497.951 1819.36 548.973C1819.91 552.997 1820.46 557.02 1821.01 561.043C1825.94 596.704 1812.23 621.758 1777.87 639.68C1746.97 655.956 1701.64 665.1 1653.56 674.975C1625.41 680.644 1596.16 686.679 1567.1 694.36C1516.28 707.893 1484.66 727.461 1470.76 754.161C1453.22 787.627 1465.65 828.774 1481 871.384C1510.25 952.399 1516.28 1043.11 1516.28 1044.02L1515.55 1043.84Z" fill="white"/>
<path d="M1500.19 1029.94C1500.19 1029.21 1499.46 948.924 1475.33 866.63C1473.87 861.692 1472.41 856.754 1470.95 851.634C1457.79 808.292 1445.54 767.145 1464.18 733.496C1477.71 709.173 1506.23 691.434 1551.56 679.364C1580.63 671.501 1609.87 665.649 1638.02 659.979C1685.92 650.287 1731.25 640.96 1762.14 624.867C1796.15 607.128 1809.67 582.257 1804.74 547.145C1797.24 493.379 1789.93 431.201 1796.33 375.241C1799.8 343.969 1807.66 317.635 1819.18 297.152C1832.7 273.379 1851.9 256.371 1876.21 246.496C1910.58 232.78 1949.7 220.71 1987.54 209.189C2064.13 185.598 2130.12 165.299 2129.02 140.062H2129.93C2131.03 166.03 2064.68 186.512 1987.72 210.103C1949.88 221.807 1910.76 233.694 1876.39 247.41C1830.69 265.698 1804.74 307.576 1796.88 375.424C1790.48 431.201 1797.97 493.196 1805.29 546.962C1810.22 582.623 1796.51 607.677 1762.14 625.599C1731.25 641.875 1685.92 651.018 1637.84 660.894C1609.69 666.563 1580.44 672.598 1551.38 680.279C1506.78 692.349 1478.44 709.905 1465.1 734.044C1446.45 767.328 1458.7 808.292 1471.86 851.451C1473.32 856.389 1474.79 861.326 1476.25 866.447C1500.38 948.741 1501.11 1029.21 1501.11 1029.94H1500.19Z" fill="white"/>
<path d="M1485.75 1015.86H1484.84C1484.84 1015.13 1489.41 945.267 1470.4 861.692C1467.84 850.171 1464.37 838.284 1461.26 826.946C1449.56 785.616 1438.59 746.663 1456.69 714.842C1469.48 692.531 1495.44 676.438 1536.21 665.466C1565.27 657.602 1594.52 651.75 1622.67 646.081C1670.56 636.388 1715.9 627.062 1746.79 610.968C1780.79 593.229 1794.32 568.358 1789.38 533.246C1783.35 489.173 1776.22 423.886 1785.54 366.463C1795.78 302.822 1824.3 261.309 1870.18 243.021C1896.32 232.597 1924.84 222.356 1952.62 212.481C2036.16 182.672 2114.95 154.509 2113.67 126.163H2114.58C2115.86 155.24 2036.71 183.403 1952.99 213.395C1925.2 223.27 1896.68 233.511 1870.54 243.935C1825.03 262.04 1796.69 303.37 1786.46 366.646C1777.13 423.886 1784.26 488.99 1790.3 533.063C1795.23 568.724 1781.52 593.778 1747.16 611.7C1716.26 627.976 1670.93 637.12 1622.85 646.995C1594.7 652.664 1565.45 658.699 1536.39 666.38C1495.81 677.17 1469.85 693.263 1457.42 715.391C1439.51 746.846 1450.47 785.616 1461.99 826.763C1465.28 838.284 1468.57 849.988 1471.13 861.509C1490.51 945.084 1485.94 1015.13 1485.75 1015.86Z" fill="white"/>
<path d="M1470.58 1001.96L1469.67 1001.78C1469.85 1001.23 1479.72 941.609 1465.65 856.755C1462.9 839.93 1457.97 822.557 1453.22 805.915C1441.7 765.682 1430.91 727.644 1448.1 697.286C1459.8 676.438 1483.74 661.443 1521.22 651.567C1550.28 643.703 1579.53 637.851 1607.68 632.182C1655.57 622.49 1700.91 613.163 1731.8 597.07C1765.8 579.331 1779.33 554.46 1774.39 519.347C1765.62 455.706 1765.8 401.392 1775.31 357.685C1788.1 297.701 1818.26 257.834 1864.69 239.364C1875.11 235.157 1885.9 230.951 1896.87 226.745C1992.29 189.073 2100.5 146.462 2099.04 112.264H2099.96C2101.42 147.011 1993.02 189.804 1897.23 227.477C1886.26 231.683 1875.66 236.072 1865.06 240.095C1818.99 258.566 1789.02 298.067 1776.22 357.685C1766.9 401.209 1766.53 455.524 1775.31 518.982C1780.24 554.643 1766.53 579.697 1732.17 597.619C1701.27 613.895 1655.94 623.038 1607.86 632.914C1579.71 638.583 1550.46 644.618 1521.4 652.299C1484.29 662.174 1460.53 676.987 1448.83 697.652C1431.83 727.644 1442.61 765.499 1454.13 805.732C1458.88 822.557 1463.82 839.93 1466.74 856.755C1480.64 941.609 1470.58 1001.41 1470.58 1001.96Z" fill="white"/>
<path d="M1455.23 988.06L1454.31 987.694C1454.49 987.145 1469.85 937.952 1460.71 851.817C1458.52 830.603 1451.75 808.475 1445.17 787.078C1433.11 747.211 1421.59 709.722 1438.04 680.096C1448.83 660.528 1470.95 646.629 1505.68 637.303C1534.74 629.439 1563.99 623.587 1592.14 617.918C1640.04 608.225 1685.37 598.899 1716.26 582.805C1750.26 565.066 1763.79 540.195 1758.85 505.083C1753.19 463.936 1749.53 403.221 1764.34 348.541C1779.69 292.215 1811.32 254.176 1858.3 235.34C1943.11 201.508 2084.97 138.781 2083.14 98H2084.05C2085.88 139.33 1943.66 202.422 1858.66 236.255C1811.87 254.908 1780.42 292.763 1765.25 348.724C1750.45 403.221 1754.1 463.753 1759.77 504.9C1764.7 540.561 1750.99 565.615 1716.63 583.537C1685.73 599.813 1640.4 608.957 1592.32 618.832C1564.17 624.501 1534.93 630.536 1505.86 638.217C1471.49 647.361 1449.56 661.26 1438.77 680.644C1422.51 709.905 1433.84 747.211 1445.9 786.896C1452.48 808.292 1459.25 830.603 1461.44 851.817C1470.76 938.134 1455.41 987.511 1455.23 988.06Z" fill="white"/>
</g>
<g style="mix-blend-mode:soft-light">
<path d="M368.153 225.648C271.212 233.026 187.74 147.102 92.0281 137.018C47.0655 131.489 1.74428 145.061 -42.9112 151.976C-90.8441 160.633 -127.715 146.603 -173.753 131.14C-254.051 106.564 -317.602 54.1801 -388.375 11.9361C-406.913 0.773491 -425.451 -10.3891 -444.757 -19.0425L-357.184 -305.097L556.2 -25.5381C556.302 -21.3902 556.405 -17.2423 555.636 -14.7331C552.307 85.7893 479.177 217.091 368.153 225.648Z" fill="url(#paint1_linear)"/>
</g>
<g style="mix-blend-mode:soft-light">
<path d="M459.362 -14.0116C443.128 34.5347 398.421 72.9942 347.774 72.5868C324.525 72.3317 303.58 64.549 280.996 57.6368C250.014 46.7819 216.523 35.1591 185.54 24.3042C149.54 11.9133 113.539 -0.477583 75.3361 -1.19286C37.1333 -1.90812 -1.53068 12.3295 -39.7335 11.6142C-100.315 12.2825 -155.929 -21.2054 -203.35 -59.0464C-250.77 -96.8874 -291.738 -142.359 -341.565 -176.82C-356.723 -185.576 -372.752 -195.971 -388.678 -202.217L-356.415 -307.606L465.866 -53.1863C466.174 -40.7427 462.333 -28.1965 459.362 -14.0116Z" fill="url(#paint2_linear)"/>
</g>
<g style="mix-blend-mode:soft-light">
<path d="M276.898 93.4317C209.761 97.5825 151.894 40.0779 86.9595 32.5531C55.3116 28.3553 24.8414 38.2399 -6.6018 42.3379C-39.6837 47.3066 -65.6472 37.9878 -98.2681 28.0035C-153.473 11.1071 -197.513 -24.3272 -247.238 -54.6405C-259.887 -62.6285 -272.536 -70.6165 -285.953 -76.0952L-225.267 -274.326L407.076 -80.7851C406.308 -78.2759 407.179 -76.6373 406.41 -74.128C404.003 -3.51143 353.969 88.2051 276.898 93.4317Z" fill="url(#paint3_linear)"/>
<path d="M340.041 -72.4864C330.055 -39.8661 298.356 -12.5194 262.662 -12.4667C247.709 -12.9269 232.653 -17.535 216.727 -23.7818C195.782 -31.5645 173.198 -38.4767 149.744 -47.0275C124.651 -54.7077 100.326 -64.8971 73.799 -63.4109C46.4015 -63.5634 20.0793 -53.7814 -5.67951 -54.8045C-48.0304 -55.4171 -86.7452 -76.8718 -118.137 -104.318C-151.167 -130.894 -178.513 -162.591 -213.951 -185.787C-224.09 -193.007 -235.868 -199.356 -246.776 -204.067L-224.499 -276.835L344.343 -99.9855C342.909 -90.8191 341.475 -81.6527 340.041 -72.4864Z" fill="url(#paint4_linear)"/>
</g>
<path d="M-616.074 945.222C-621.607 886.298 -602.128 824.051 -563.612 778.861C-525.317 733.671 -467.099 704.43 -407.997 700.443C-347.345 696.456 -288.021 717.279 -230.689 737.437C-170.037 758.703 -107.393 780.633 -43.6414 772.88C1.95837 767.342 44.9019 746.962 86.2958 727.247C135.437 703.987 186.128 679.842 240.582 680.949C259.176 681.392 277.771 684.715 295.701 687.816C320.714 692.247 346.613 696.899 372.069 693.354C409.7 688.26 446.224 665.665 475.001 629.778C499.35 599.209 515.73 563.766 532.554 520.127C542.072 495.538 550.927 469.62 548.491 443.481C546.057 418.671 529.897 391.203 503.113 386.108L503.334 385C530.562 390.095 547.163 418.228 549.598 443.259C552.033 469.399 543.179 495.759 533.661 520.348C516.837 564.209 500.457 599.652 475.886 630.443C446.888 666.772 410.143 689.367 372.069 694.462C346.392 697.785 320.493 693.354 295.479 688.924C277.549 685.823 258.955 682.5 240.361 682.057C186.128 680.949 135.437 705.095 86.5171 728.354C44.9018 748.07 1.95831 768.449 -43.8628 773.987C-52.7171 775.095 -61.5714 775.538 -70.6471 775.538C-125.323 775.538 -179.113 756.709 -231.353 738.323C-288.685 718.165 -348.009 697.563 -408.218 701.551C-467.099 705.538 -524.874 734.557 -563.169 779.525C-601.021 824.494 -620.501 886.298 -614.967 945.222H-616.074Z" fill="white"/>
</g>
<defs>
<linearGradient id="paint0_linear" x1="1920" y1="-5.72205e-05" x2="0" y2="960" gradientUnits="userSpaceOnUse">
<stop stop-color="#A8D7FF"/>
<stop offset="1" stop-color="#D9BBBE"/>
</linearGradient>
<linearGradient id="paint1_linear" x1="-410.214" y1="-130.749" x2="938.229" y2="282.063" gradientUnits="userSpaceOnUse">
<stop stop-color="white"/>
<stop offset="1"/>
</linearGradient>
<linearGradient id="paint2_linear" x1="-388.715" y1="-200.971" x2="438.581" y2="52.2964" gradientUnits="userSpaceOnUse">
<stop/>
<stop offset="1" stop-color="white"/>
</linearGradient>
<linearGradient id="paint3_linear" x1="-262.233" y1="-153.208" x2="670.869" y2="132.451" gradientUnits="userSpaceOnUse">
<stop stop-color="white"/>
<stop offset="1"/>
</linearGradient>
<linearGradient id="paint4_linear" x1="-247.357" y1="-201.802" x2="325.119" y2="-26.5446" gradientUnits="userSpaceOnUse">
<stop stop-opacity="0"/>
<stop offset="1" stop-color="white"/>
</linearGradient>
<clipPath id="clip0">
<rect width="1920" height="960" fill="white"/>
</clipPath>
</defs>
</svg>